<svg width="14" height="19" viewBox="0 0 14 19" fill="none" xmlns="http://www.w3.org/2000/svg">
<path fill-rule="evenodd" clip-rule="evenodd" d="M8.66666 0.666716C8.66666 0.374697 8.47662 0.116667 8.19774 0.0300511C7.91886 -0.0565653 7.61608 0.0483948 7.45064 0.289031L0.117304 10.9557C-0.0229495 11.1597 -0.0386027 11.4246 0.0766506 11.6437C0.191904 11.8629 0.41909 12.0001 0.666664 12.0001H4.66666V18.0001C4.66666 18.2921 4.85672 18.5501 5.13558 18.6367C5.41446 18.7233 5.71725 18.6183 5.88269 18.3777L13.216 7.71107C13.3563 7.50705 13.372 7.24212 13.2567 7.02302C13.1415 6.80391 12.9143 6.66672 12.6667 6.66672H8.66666V0.666716Z" fill="black"/>
</svg>
