<svg width="48" height="48" viewBox="0 0 48 48" fill="none" xmlns="http://www.w3.org/2000/svg">
<rect width="48" height="48" rx="24" fill="black"/>
<path fill-rule="evenodd" clip-rule="evenodd" d="M26.7077 17.3743C26.7077 18.8697 25.4954 20.0819 24 20.0819C22.5046 20.0819 21.2924 18.8697 21.2924 17.3743C21.2924 15.8789 22.5046 14.6667 24 14.6667C25.4954 14.6667 26.7077 15.8789 26.7077 17.3743ZM27.3506 22.5368C28.2391 23.4254 28.7385 24.6306 28.7385 25.8873V27.2514C28.7385 27.6195 28.4399 27.918 28.0718 27.918H26.7077L26.1038 32.7494C26.0621 33.083 25.7785 33.3332 25.4423 33.3332H22.5579C22.2217 33.3332 21.9381 33.083 21.8963 32.7494L21.2924 27.918H19.9284C19.5602 27.918 19.2617 27.6195 19.2617 27.2514V25.8873C19.2617 24.6306 19.7609 23.4254 20.6495 22.5368C21.5382 21.6482 22.7434 21.1489 24.0001 21.1489C25.2568 21.1489 26.462 21.6482 27.3506 22.5368Z" fill="#CCFF77"/>
</svg>
