<svg width="48" height="48" viewBox="0 0 48 48" fill="none" xmlns="http://www.w3.org/2000/svg">
<rect width="48" height="48" rx="24" fill="#CCFF77" fill-opacity="0.6"/>
<path fill-rule="evenodd" clip-rule="evenodd" d="M23.9998 14.6666C18.8452 14.6666 14.6665 18.8453 14.6665 24C14.6665 29.1546 18.8452 33.3333 23.9998 33.3333C29.1545 33.3333 33.3332 29.1546 33.3332 24C33.3332 18.8453 29.1545 14.6666 23.9998 14.6666ZM27.4925 20.5073C27.6711 20.6859 27.7334 20.95 27.6536 21.1895L25.1949 28.5654C25.1126 28.8124 24.894 28.9889 24.6352 29.0173C24.3764 29.0457 24.1248 28.9208 23.9908 28.6976L22.2326 25.7672L19.3023 24.009C19.079 23.875 18.9542 23.6234 18.9826 23.3646C19.011 23.1058 19.1875 22.8872 19.4345 22.8049L26.8103 20.3463C27.0498 20.2664 27.314 20.3288 27.4925 20.5073Z" fill="#81CE00"/>
</svg>
