<svg width="24" height="24" viewBox="0 0 24 24" fill="none" xmlns="http://www.w3.org/2000/svg">
<mask id="mask0_104_14" style="mask-type:alpha" maskUnits="userSpaceOnUse" x="0" y="0" width="24" height="24">
<rect width="24" height="24" fill="#D9D9D9"/>
</mask>
<g mask="url(#mask0_104_14)">
<path d="M12.0001 16.175L15.9001 12.3C16.0834 12.1167 16.3126 12.0209 16.5876 12.0125C16.8626 12.0042 17.1001 12.1 17.3001 12.3C17.4834 12.4834 17.5751 12.7167 17.5751 13C17.5751 13.2834 17.4834 13.5167 17.3001 13.7L12.7001 18.3C12.6001 18.4 12.4918 18.4709 12.3751 18.5125C12.2584 18.5542 12.1334 18.575 12.0001 18.575C11.8668 18.575 11.7418 18.5542 11.6251 18.5125C11.5084 18.4709 11.4001 18.4 11.3001 18.3L6.70011 13.7C6.51678 13.5167 6.42094 13.2875 6.41261 13.0125C6.40428 12.7375 6.50011 12.5 6.70011 12.3C6.88344 12.1167 7.11678 12.025 7.40011 12.025C7.68344 12.025 7.91678 12.1167 8.10011 12.3L12.0001 16.175ZM12.0001 10.175L15.9001 6.30002C16.0834 6.11669 16.3126 6.02086 16.5876 6.01252C16.8626 6.00419 17.1001 6.10002 17.3001 6.30002C17.4834 6.48336 17.5751 6.71669 17.5751 7.00002C17.5751 7.28336 17.4834 7.51669 17.3001 7.70002L12.7001 12.3C12.6001 12.4 12.4918 12.4709 12.3751 12.5125C12.2584 12.5542 12.1334 12.575 12.0001 12.575C11.8668 12.575 11.7418 12.5542 11.6251 12.5125C11.5084 12.4709 11.4001 12.4 11.3001 12.3L6.70011 7.70002C6.51678 7.51669 6.42094 7.28752 6.41261 7.01252C6.40428 6.73752 6.50011 6.50002 6.70011 6.30002C6.88344 6.11669 7.11678 6.02502 7.40011 6.02502C7.68344 6.02502 7.91678 6.11669 8.10011 6.30002L12.0001 10.175Z" fill="white"/>
</g>
</svg>
