<svg width="48" height="48" viewBox="0 0 48 48" fill="none" xmlns="http://www.w3.org/2000/svg">
<rect width="48" height="48" rx="24" fill="black"/>
<path fill-rule="evenodd" clip-rule="evenodd" d="M15.3332 18C15.3332 16.1591 16.8256 14.6667 18.6665 14.6667C20.5075 14.6667 21.9998 16.1591 21.9998 18C21.9998 19.841 20.5075 21.3334 18.6665 21.3334C16.8256 21.3334 15.3332 19.841 15.3332 18ZM29.3332 14.6667C27.4922 14.6667 25.9998 16.1591 25.9998 18C25.9998 19.841 27.4922 21.3334 29.3332 21.3334C31.1741 21.3334 32.6665 19.841 32.6665 18C32.6665 16.1591 31.1741 14.6667 29.3332 14.6667ZM26.8184 24.4769C27.3298 23.5223 28.1302 22.6667 29.3332 22.6667C30.5361 22.6667 31.3365 23.5223 31.848 24.4769C32.3662 25.4444 32.6936 26.6926 32.9061 27.8828C33.1206 29.0842 33.2269 30.2788 33.28 31.1687C33.3065 31.6148 33.3198 31.9871 33.3265 32.2487C33.3298 32.3795 33.3314 32.4828 33.3324 32.5539L33.333 32.636L33.3332 32.658V32.664V32.6658C33.3332 32.666 33.3332 32.6667 32.6665 32.6667L33.3332 32.6658C33.3332 33.0339 33.0346 33.3334 32.6665 33.3334H25.9998C25.6316 33.3334 25.3332 33.0348 25.3332 32.6667H25.9998C25.3332 32.6667 25.3332 32.667 25.3332 32.6667V32.664L25.3332 32.658L25.3333 32.636L25.334 32.5539C25.3349 32.4828 25.3366 32.3795 25.3399 32.2487C25.3466 31.9871 25.3599 31.6148 25.3864 31.1687C25.4394 30.2788 25.5457 29.0842 25.7602 27.8828C25.9728 26.6926 26.3001 25.4444 26.8184 24.4769ZM14.6665 23.3334C14.6665 22.9652 14.965 22.6667 15.3332 22.6667H21.9998C22.368 22.6667 22.6665 22.9652 22.6665 23.3334H21.9998C22.6665 23.3334 22.6665 23.3332 22.6665 23.3334V23.336L22.6665 23.342L22.6664 23.364L22.6656 23.4461C22.6648 23.5173 22.6631 23.6206 22.6598 23.7514C22.6531 24.013 22.6398 24.3852 22.6132 24.8313C22.5603 25.7213 22.454 26.9159 22.2394 28.1172C22.0269 29.3075 21.6995 30.5558 21.1812 31.5232C20.6699 32.4778 19.8695 33.3334 18.6665 33.3334C17.4635 33.3334 16.6631 32.4778 16.1518 31.5232C15.6335 30.5558 15.3061 29.3075 15.0936 28.1172C14.879 26.9159 14.7727 25.7213 14.7198 24.8313C14.6932 24.3852 14.6799 24.013 14.6732 23.7514C14.6699 23.6206 14.6682 23.5173 14.6674 23.4461L14.6666 23.364L14.6665 23.342L14.6665 23.336V23.3334C14.6665 23.3332 14.6665 23.3334 15.3332 23.3334H14.6665Z" fill="#CCFF77"/>
</svg>
