<svg width="20" height="20" viewBox="0 0 20 20" fill="none" xmlns="http://www.w3.org/2000/svg">
<rect width="20" height="20" rx="10" fill="black"/>
<path d="M7 15.014V13.502L9.17 11.094C9.37533 10.87 9.59467 10.6273 9.828 10.366C10.0613 10.1047 10.276 9.834 10.472 9.554C10.668 9.274 10.8267 8.98467 10.948 8.686C11.0787 8.38733 11.144 8.084 11.144 7.776C11.144 7.244 11.004 6.852 10.724 6.6C10.444 6.33867 10.0753 6.208 9.618 6.208C9.27267 6.208 8.918 6.25933 8.554 6.362C8.19933 6.46467 7.812 6.586 7.392 6.726V5.004C7.68133 4.90133 8.01267 4.794 8.386 4.682C8.75933 4.56067 9.17 4.5 9.618 4.5C10.0753 4.5 10.514 4.56533 10.934 4.696C11.354 4.82667 11.7227 5.032 12.04 5.312C12.3573 5.58267 12.6093 5.92333 12.796 6.334C12.9827 6.74467 13.076 7.23 13.076 7.79C13.076 8.13533 13.006 8.49 12.866 8.854C12.7353 9.20867 12.5673 9.55867 12.362 9.904C12.166 10.2493 11.9467 10.5807 11.704 10.898C11.4613 11.206 11.228 11.486 11.004 11.738L9.604 13.306H12.88C13.0667 13.306 13.1833 13.3807 13.23 13.53C13.286 13.6793 13.314 13.8893 13.314 14.16C13.314 14.4307 13.286 14.6407 13.23 14.79C13.1833 14.9393 13.0667 15.014 12.88 15.014H7Z" fill="white"/>
</svg>
