<svg width="48" height="48" viewBox="0 0 48 48" fill="none" xmlns="http://www.w3.org/2000/svg">
<rect width="48" height="48" rx="24" fill="#9F9EFF" fill-opacity="0.3"/>
<path fill-rule="evenodd" clip-rule="evenodd" d="M15.3337 18.0001C15.3337 16.1591 16.826 14.6667 18.667 14.6667C20.5079 14.6667 22.0003 16.1591 22.0003 18.0001C22.0003 19.841 20.5079 21.3334 18.667 21.3334C16.826 21.3334 15.3337 19.841 15.3337 18.0001ZM29.3337 14.6667C27.4927 14.6667 26.0003 16.1591 26.0003 18.0001C26.0003 19.841 27.4927 21.3334 29.3337 21.3334C31.1746 21.3334 32.667 19.841 32.667 18.0001C32.667 16.1591 31.1746 14.6667 29.3337 14.6667ZM26.8189 24.4769C27.3303 23.5224 28.1307 22.6667 29.3337 22.6667C30.5366 22.6667 31.337 23.5224 31.8485 24.4769C32.3667 25.4444 32.6941 26.6926 32.9066 27.8829C33.1211 29.0842 33.2274 30.2789 33.2805 31.1687C33.307 31.6149 33.3203 31.9871 33.327 32.2487C33.3303 32.3795 33.3319 32.4829 33.3329 32.5539L33.3335 32.6361L33.3337 32.6581V32.6641V32.6658C33.3337 32.6661 33.3337 32.6667 32.667 32.6667L33.3337 32.6658C33.3337 33.0339 33.0351 33.3334 32.667 33.3334H26.0003C25.6321 33.3334 25.3337 33.0349 25.3337 32.6667H26.0003C25.3337 32.6667 25.3337 32.667 25.3337 32.6667V32.6641L25.3337 32.6581L25.3338 32.6361L25.3345 32.5539C25.3354 32.4829 25.337 32.3795 25.3404 32.2487C25.3471 31.9871 25.3604 31.6149 25.3869 31.1687C25.4399 30.2789 25.5462 29.0842 25.7607 27.8829C25.9733 26.6926 26.3006 25.4444 26.8189 24.4769ZM14.667 23.3334C14.667 22.9652 14.9655 22.6667 15.3337 22.6667H22.0003C22.3685 22.6667 22.667 22.9652 22.667 23.3334H22.0003C22.667 23.3334 22.667 23.3332 22.667 23.3334V23.3361L22.667 23.3421L22.6669 23.364L22.6661 23.4462C22.6653 23.5173 22.6636 23.6206 22.6603 23.7515C22.6536 24.013 22.6403 24.3852 22.6137 24.8314C22.5608 25.7213 22.4545 26.916 22.2399 28.1173C22.0274 29.3075 21.7 30.5558 21.1817 31.5233C20.6704 32.4778 19.87 33.3334 18.667 33.3334C17.464 33.3334 16.6636 32.4778 16.1523 31.5233C15.634 30.5558 15.3066 29.3075 15.094 28.1173C14.8795 26.916 14.7732 25.7213 14.7203 24.8314C14.6937 24.3852 14.6804 24.013 14.6737 23.7515C14.6704 23.6206 14.6687 23.5173 14.6679 23.4462L14.6671 23.364L14.667 23.3421L14.667 23.3361V23.3334C14.667 23.3332 14.667 23.3334 15.3337 23.3334H14.667Z" fill="#5A57FF"/>
</svg>
