<svg width="179" height="58" viewBox="0 0 179 58" fill="none" xmlns="http://www.w3.org/2000/svg">
<path d="M0 0H156.6C164.441 0 168.361 0 171.356 1.52591C173.99 2.86814 176.132 5.00986 177.474 7.64413C179 10.6389 179 14.5593 179 22.4V35.6C179 43.4407 179 47.3611 177.474 50.3559C176.132 52.9901 173.99 55.1319 171.356 56.4741C168.361 58 164.441 58 156.6 58H22.4C14.5593 58 10.6389 58 7.64413 56.4741C5.00986 55.1319 2.86814 52.9901 1.52591 50.3559C0 47.3611 0 43.4407 0 35.6V0Z" fill="black"/>
<path d="M23.795 15.015C23.795 16.145 23.77 17.145 23.72 18.015C23.67 18.875 23.545 19.885 23.345 21.045L21.8 20.895C21.99 19.815 22.11 18.845 22.16 17.985C22.21 17.125 22.235 16.135 22.235 15.015V14.88H15.335V13.59H23.795V15.015ZM25.16 23.175H14.18V21.84H25.16V23.175ZM35.7925 24.72H27.7075V20.295H35.7925V24.72ZM29.2375 23.415H34.2775V21.54H29.2375V23.415ZM35.7925 19.755H34.2625V16.335H32.2225V15.045H34.2625V12.375H35.7925V19.755ZM31.5775 16.725H27.6925V18.03C28.6825 18.03 29.5375 18.01 30.2575 17.97C30.9875 17.92 31.7275 17.84 32.4775 17.73L32.5975 19.02C31.7875 19.16 30.9775 19.255 30.1675 19.305C29.3575 19.345 28.3425 19.365 27.1225 19.365H26.1775V15.495H30.0775V14.28H26.1475V12.99H31.5775V16.725ZM38.0251 13.275H39.7351L39.5851 20.88H38.1601L38.0251 13.275ZM37.9651 23.205C37.9651 22.945 38.0501 22.73 38.2201 22.56C38.3901 22.39 38.6201 22.305 38.9101 22.305C39.1901 22.305 39.4151 22.39 39.5851 22.56C39.7551 22.73 39.8401 22.945 39.8401 23.205C39.8401 23.455 39.7551 23.665 39.5851 23.835C39.4251 24.005 39.2001 24.09 38.9101 24.09C38.6201 24.09 38.3901 24.01 38.2201 23.85C38.0501 23.68 37.9651 23.465 37.9651 23.205ZM53.5565 17.325H55.3865V18.66H53.5565V24.885H52.0415V12.375H53.5565V17.325ZM51.1415 15.6H44.0315V14.28H46.8515V12.57H48.3965V14.28H51.1415V15.6ZM47.6165 16.335C48.1965 16.335 48.7215 16.465 49.1915 16.725C49.6615 16.975 50.0265 17.325 50.2865 17.775C50.5565 18.215 50.6915 18.72 50.6915 19.29C50.6915 19.86 50.5565 20.37 50.2865 20.82C50.0265 21.27 49.6615 21.62 49.1915 21.87C48.7215 22.12 48.1965 22.245 47.6165 22.245C47.0365 22.245 46.5115 22.12 46.0415 21.87C45.5815 21.62 45.2165 21.27 44.9465 20.82C44.6865 20.37 44.5565 19.86 44.5565 19.29C44.5565 18.72 44.6865 18.215 44.9465 17.775C45.2165 17.325 45.5865 16.975 46.0565 16.725C46.5265 16.465 47.0465 16.335 47.6165 16.335ZM47.6165 17.67C47.1465 17.67 46.7665 17.82 46.4765 18.12C46.1865 18.41 46.0415 18.8 46.0415 19.29C46.0415 19.79 46.1865 20.185 46.4765 20.475C46.7665 20.765 47.1465 20.91 47.6165 20.91C48.0865 20.91 48.4665 20.765 48.7565 20.475C49.0565 20.185 49.2065 19.79 49.2065 19.29C49.2065 18.8 49.0565 18.41 48.7565 18.12C48.4665 17.82 48.0865 17.67 47.6165 17.67ZM59.2991 16.215C59.2991 17.225 59.4991 18.16 59.8991 19.02C60.3091 19.87 60.9191 20.525 61.7291 20.985L60.8741 22.185C59.8141 21.595 59.0491 20.6 58.5791 19.2C58.3591 19.92 58.0541 20.56 57.6641 21.12C57.2841 21.68 56.8241 22.125 56.2841 22.455L55.3991 21.255C56.2091 20.765 56.8141 20.065 57.2141 19.155C57.6241 18.235 57.8291 17.255 57.8291 16.215V15.84H55.8191V14.55H57.8291V12.825H59.2841V14.55H61.2791V15.84H59.2991V16.215ZM65.9741 24.885H64.5191V12.375H65.9741V24.885ZM63.5291 24.27H62.0741V18.495H60.5441V17.16H62.0741V12.615H63.5291V24.27ZM81.0838 19.83H76.4637V22.08H74.8887V19.83H70.0587V18.54H81.0838V19.83ZM79.8537 24.645H71.4087V20.91H72.9687V23.325H79.8537V24.645ZM75.5637 12.63C76.4237 12.63 77.1787 12.735 77.8287 12.945C78.4887 13.155 78.9987 13.46 79.3587 13.86C79.7188 14.25 79.8988 14.705 79.8988 15.225C79.8988 15.745 79.7188 16.2 79.3587 16.59C78.9987 16.97 78.4887 17.265 77.8287 17.475C77.1787 17.685 76.4237 17.79 75.5637 17.79C74.7037 17.79 73.9487 17.685 73.2987 17.475C72.6487 17.265 72.1437 16.97 71.7837 16.59C71.4237 16.2 71.2437 15.745 71.2437 15.225C71.2437 14.705 71.4237 14.25 71.7837 13.86C72.1437 13.46 72.6487 13.155 73.2987 12.945C73.9487 12.735 74.7037 12.63 75.5637 12.63ZM75.5637 13.935C74.7337 13.935 74.0787 14.05 73.5987 14.28C73.1187 14.5 72.8787 14.815 72.8787 15.225C72.8787 15.615 73.1187 15.925 73.5987 16.155C74.0887 16.375 74.7437 16.485 75.5637 16.485C76.3837 16.485 77.0337 16.375 77.5137 16.155C78.0037 15.925 78.2487 15.615 78.2487 15.225C78.2487 14.815 78.0087 14.5 77.5287 14.28C77.0487 14.05 76.3937 13.935 75.5637 13.935ZM92.5863 19.62H81.5763V18.315H86.3163V17.205H82.9263V12.93H91.2663V14.205H84.4563V15.93H91.3263V17.205H87.8313V18.315H92.5863V19.62ZM87.0513 20.28C88.3713 20.28 89.4013 20.48 90.1413 20.88C90.8813 21.28 91.2513 21.85 91.2513 22.59C91.2513 23.31 90.8763 23.87 90.1263 24.27C89.3863 24.67 88.3613 24.87 87.0513 24.87C85.7413 24.87 84.7113 24.67 83.9613 24.27C83.2213 23.87 82.8513 23.31 82.8513 22.59C82.8513 21.85 83.2213 21.28 83.9613 20.88C84.7013 20.48 85.7313 20.28 87.0513 20.28ZM87.0513 21.54C86.2013 21.54 85.5463 21.63 85.0863 21.81C84.6363 21.99 84.4113 22.25 84.4113 22.59C84.4113 22.93 84.6363 23.19 85.0863 23.37C85.5363 23.55 86.1913 23.64 87.0513 23.64C87.9113 23.64 88.5663 23.55 89.0163 23.37C89.4663 23.19 89.6913 22.93 89.6913 22.59C89.6913 22.25 89.4663 21.99 89.0163 21.81C88.5663 21.63 87.9113 21.54 87.0513 21.54ZM103.414 20.115H101.944V16.965H100.849V19.95H99.4088V12.585H100.849V15.66H101.944V12.375H103.414V20.115ZM99.0038 14.94H93.0338V13.665H95.2538V12.45H96.7988V13.665H99.0038V14.94ZM96.0338 15.345C96.8038 15.345 97.4338 15.55 97.9238 15.96C98.4138 16.36 98.6588 16.885 98.6588 17.535C98.6588 18.175 98.4138 18.7 97.9238 19.11C97.4338 19.51 96.8038 19.71 96.0338 19.71C95.2738 19.71 94.6488 19.51 94.1588 19.11C93.6688 18.7 93.4238 18.175 93.4238 17.535C93.4238 16.885 93.6688 16.36 94.1588 15.96C94.6488 15.55 95.2738 15.345 96.0338 15.345ZM96.0338 16.53C95.6638 16.53 95.3638 16.62 95.1338 16.8C94.9138 16.97 94.8038 17.215 94.8038 17.535C94.8038 17.835 94.9138 18.08 95.1338 18.27C95.3638 18.45 95.6638 18.54 96.0338 18.54C96.4038 18.54 96.6988 18.45 96.9188 18.27C97.1488 18.08 97.2638 17.835 97.2638 17.535C97.2638 17.215 97.1538 16.97 96.9338 16.8C96.7138 16.62 96.4138 16.53 96.0338 16.53ZM97.6088 20.775C97.6088 21.265 97.7288 21.74 97.9688 22.2C98.2088 22.65 98.5638 23.025 99.0338 23.325C99.5138 23.005 99.8738 22.615 100.114 22.155C100.364 21.695 100.489 21.235 100.489 20.775V20.46H102.049V20.775C102.049 21.395 102.244 21.955 102.634 22.455C103.024 22.955 103.594 23.31 104.344 23.52L103.639 24.72C103.069 24.54 102.584 24.27 102.184 23.91C101.794 23.55 101.489 23.125 101.269 22.635C101.059 23.135 100.769 23.58 100.399 23.97C100.039 24.35 99.5938 24.635 99.0638 24.825C98.0238 24.445 97.2838 23.735 96.8438 22.695C96.6138 23.165 96.2988 23.575 95.8988 23.925C95.5088 24.275 95.0438 24.54 94.5038 24.72L93.7838 23.52C94.5238 23.28 95.0938 22.91 95.4938 22.41C95.8938 21.9 96.0938 21.355 96.0938 20.775V20.46H97.6088V20.775ZM110.671 14.835H106.711V20.535C107.661 20.525 108.491 20.495 109.201 20.445C109.911 20.385 110.626 20.295 111.346 20.175L111.511 21.465C110.701 21.625 109.891 21.735 109.081 21.795C108.281 21.855 107.301 21.885 106.141 21.885H105.151V13.5H110.671V14.835ZM114.721 24.9H113.176V18.09H110.041V16.755H113.176V12.375H114.721V24.9ZM126.164 24.885H124.634V12.375H126.164V24.885ZM118.289 20.385C120.179 20.355 121.944 20.17 123.584 19.83L123.779 21.165C121.959 21.565 119.969 21.765 117.809 21.765H116.759V13.575H118.289V20.385ZM133.819 13.275C134.419 13.275 134.954 13.46 135.424 13.83C135.904 14.19 136.279 14.705 136.549 15.375C136.819 16.045 136.954 16.825 136.954 17.715C136.954 18.605 136.819 19.385 136.549 20.055C136.279 20.725 135.904 21.245 135.424 21.615C134.954 21.975 134.419 22.155 133.819 22.155C133.209 22.155 132.664 21.975 132.184 21.615C131.714 21.245 131.344 20.725 131.074 20.055C130.804 19.385 130.669 18.605 130.669 17.715C130.669 16.825 130.804 16.045 131.074 15.375C131.344 14.705 131.714 14.19 132.184 13.83C132.664 13.46 133.209 13.275 133.819 13.275ZM133.819 14.745C133.319 14.745 132.914 15.01 132.604 15.54C132.294 16.06 132.139 16.785 132.139 17.715C132.139 18.645 132.294 19.375 132.604 19.905C132.914 20.425 133.319 20.685 133.819 20.685C134.329 20.685 134.734 20.425 135.034 19.905C135.334 19.375 135.484 18.645 135.484 17.715C135.484 16.785 135.334 16.06 135.034 15.54C134.734 15.01 134.329 14.745 133.819 14.745ZM140.029 17.16H141.874V18.525H140.029V24.885H138.484V12.375H140.029V17.16ZM146.686 14.535C146.686 15.335 146.936 16.075 147.436 16.755C147.946 17.425 148.666 17.91 149.596 18.21L148.831 19.455C148.151 19.235 147.566 18.905 147.076 18.465C146.586 18.015 146.201 17.49 145.921 16.89C145.641 17.55 145.246 18.12 144.736 18.6C144.236 19.08 143.636 19.44 142.936 19.68L142.126 18.45C143.076 18.12 143.811 17.6 144.331 16.89C144.851 16.17 145.111 15.385 145.111 14.535V14.46H142.561V13.155H149.176V14.46H146.686V14.535ZM152.116 19.92H150.571V12.375H152.116V19.92ZM152.116 24.885H150.571V21.78H143.881V20.475H152.116V24.885ZM163.379 19.335H159.824V22.095H164.594V23.415H153.569V22.095H158.294V19.335H154.904V13.305H163.274V14.595H156.449V18.015H163.379V19.335ZM23.645 38.1H25.49V39.42H23.645V45.9H22.1V33.375H23.645V38.1ZM20.345 35.865H16.235V41.505C17.245 41.495 18.125 41.465 18.875 41.415C19.635 41.355 20.405 41.25 21.185 41.1L21.335 42.465C20.475 42.615 19.615 42.72 18.755 42.78C17.905 42.83 16.885 42.855 15.695 42.855H14.69V34.56H20.345V35.865ZM35.7475 45.9H34.2025V33.375H35.7475V45.9ZM32.0125 39.21H27.9025V41.625C28.9325 41.615 29.8675 41.58 30.7075 41.52C31.5475 41.46 32.4075 41.35 33.2875 41.19L33.4075 42.51C32.4675 42.68 31.5375 42.795 30.6175 42.855C29.7075 42.915 28.6375 42.945 27.4075 42.945H26.3425V37.92H30.4375V35.775H26.3275V34.455H32.0125V39.21ZM46.6501 38.22H48.3901V39.555H46.6501V45.855H45.1051V33.375H46.6501V38.22ZM43.4701 34.68C43.4701 38.8 41.6401 41.78 37.9801 43.62L37.1101 42.42C38.5701 41.65 39.6901 40.74 40.4701 39.69C41.2601 38.64 41.7301 37.415 41.8801 36.015H37.7701V34.68H43.4701ZM62.0748 36.03H52.2048V34.71H56.3898V33.36H57.9198V34.71H62.0748V36.03ZM62.6898 42.765H57.9198V45.885H56.3898V42.765H51.6648V41.445H62.6898V42.765ZM57.1548 36.54C58.4548 36.54 59.4648 36.725 60.1848 37.095C60.9048 37.465 61.2648 37.99 61.2648 38.67C61.2648 39.36 60.9048 39.89 60.1848 40.26C59.4648 40.63 58.4548 40.815 57.1548 40.815C55.8648 40.815 54.8598 40.63 54.1398 40.26C53.4198 39.89 53.0598 39.36 53.0598 38.67C53.0598 37.99 53.4198 37.465 54.1398 37.095C54.8598 36.725 55.8648 36.54 57.1548 36.54ZM57.1548 37.74C56.3348 37.74 55.7098 37.82 55.2798 37.98C54.8598 38.14 54.6498 38.37 54.6498 38.67C54.6498 38.97 54.8598 39.2 55.2798 39.36C55.7098 39.51 56.3348 39.585 57.1548 39.585C57.9748 39.585 58.5948 39.51 59.0148 39.36C59.4448 39.2 59.6598 38.97 59.6598 38.67C59.6598 38.37 59.4448 38.14 59.0148 37.98C58.5948 37.82 57.9748 37.74 57.1548 37.74ZM74.1773 39.63H63.1673V38.34H74.1773V39.63ZM72.8723 37.59H64.5773V33.675H72.7673V34.965H66.1073V36.315H72.8723V37.59ZM72.7973 43.605H65.9873V44.49H73.1273V45.75H64.4723V42.45H71.2823V41.655H64.4573V40.41H72.7973V43.605ZM84.7648 45.885H83.2348V39.555H80.7298V38.22H83.2348V33.375H84.7648V45.885ZM80.7748 34.71C80.7748 36.71 80.3648 38.45 79.5448 39.93C78.7348 41.4 77.3448 42.635 75.3748 43.635L74.5648 42.39C76.0848 41.62 77.2148 40.715 77.9548 39.675C78.6948 38.635 79.1248 37.405 79.2448 35.985H75.1348V34.71H80.7748ZM96.2374 45.9H94.6924V33.375H96.2374V45.9ZM92.5024 39.21H88.3924V41.625C89.4224 41.615 90.3574 41.58 91.1974 41.52C92.0374 41.46 92.8974 41.35 93.7774 41.19L93.8974 42.51C92.9574 42.68 92.0274 42.795 91.1074 42.855C90.1974 42.915 89.1274 42.945 87.8974 42.945H86.8324V37.92H90.9274V35.775H86.8174V34.455H92.5024V39.21ZM99.7149 41.46C100.985 41.43 102.13 41.3 103.15 41.07L103.36 42.465C102.66 42.615 101.98 42.715 101.32 42.765C100.66 42.815 99.8899 42.84 99.0099 42.84H98.1699V34.605H99.7149V41.46ZM108.085 45.885H106.63V33.375H108.085V45.885ZM105.49 45.285H104.05V38.7H101.56V37.395H104.05V33.615H105.49V45.285ZM121.725 38.1H113.685V36.765H116.955V35.205H118.515V36.765H121.725V38.1ZM117.72 38.76C118.31 38.76 118.84 38.865 119.31 39.075C119.79 39.285 120.165 39.575 120.435 39.945C120.705 40.315 120.84 40.725 120.84 41.175C120.84 41.645 120.705 42.065 120.435 42.435C120.165 42.795 119.79 43.08 119.31 43.29C118.84 43.49 118.31 43.59 117.72 43.59C117.13 43.59 116.6 43.49 116.13 43.29C115.66 43.08 115.29 42.795 115.02 42.435C114.75 42.065 114.615 41.645 114.615 41.175C114.615 40.725 114.75 40.315 115.02 39.945C115.29 39.575 115.66 39.285 116.13 39.075C116.61 38.865 117.14 38.76 117.72 38.76ZM117.72 40.14C117.27 40.14 116.9 40.235 116.61 40.425C116.33 40.615 116.19 40.865 116.19 41.175C116.19 41.505 116.33 41.765 116.61 41.955C116.89 42.145 117.26 42.24 117.72 42.24C118.18 42.24 118.55 42.145 118.83 41.955C119.12 41.765 119.265 41.505 119.265 41.175C119.265 40.865 119.12 40.615 118.83 40.425C118.55 40.235 118.18 40.14 117.72 40.14ZM133.227 38.1H125.187V36.765H128.457V35.205H130.017V36.765H133.227V38.1ZM129.222 38.76C129.812 38.76 130.342 38.865 130.812 39.075C131.292 39.285 131.667 39.575 131.937 39.945C132.207 40.315 132.342 40.725 132.342 41.175C132.342 41.645 132.207 42.065 131.937 42.435C131.667 42.795 131.292 43.08 130.812 43.29C130.342 43.49 129.812 43.59 129.222 43.59C128.632 43.59 128.102 43.49 127.632 43.29C127.162 43.08 126.792 42.795 126.522 42.435C126.252 42.065 126.117 41.645 126.117 41.175C126.117 40.725 126.252 40.315 126.522 39.945C126.792 39.575 127.162 39.285 127.632 39.075C128.112 38.865 128.642 38.76 129.222 38.76ZM129.222 40.14C128.772 40.14 128.402 40.235 128.112 40.425C127.832 40.615 127.692 40.865 127.692 41.175C127.692 41.505 127.832 41.765 128.112 41.955C128.392 42.145 128.762 42.24 129.222 42.24C129.682 42.24 130.052 42.145 130.332 41.955C130.622 41.765 130.767 41.505 130.767 41.175C130.767 40.865 130.622 40.615 130.332 40.425C130.052 40.235 129.682 40.14 129.222 40.14Z" fill="#CCFF77"/>
</svg>
