<svg width="151" height="37" viewBox="0 0 151 37" fill="none" xmlns="http://www.w3.org/2000/svg">
<path d="M0 18.5C0 14.3156 0 12.2234 0.443751 10.5031C1.71645 5.56927 5.56927 1.71645 10.5031 0.443751C12.2234 0 14.3156 0 18.5 0H151V14.6C151 22.4407 151 26.3611 149.474 29.3559C148.132 31.9901 145.99 34.1319 143.356 35.4741C140.361 37 136.441 37 128.6 37H18.5C14.3156 37 12.2234 37 10.5031 36.5562C5.56927 35.2835 1.71645 31.4307 0.443751 26.4969C0 24.7766 0 22.6844 0 18.5Z" fill="#CCFF77"/>
<path d="M18.5 0.5H150.5V14.5996C150.5 18.5282 150.499 21.4454 150.311 23.7549C150.122 26.0583 149.749 27.7139 149.028 29.1289C147.734 31.669 145.669 33.734 143.129 35.0283C141.714 35.7493 140.058 36.1223 137.755 36.3105C135.445 36.4992 132.528 36.5 128.6 36.5H18.5C14.2846 36.5 12.2713 36.4962 10.6279 36.0723C5.87031 34.845 2.15499 31.1297 0.927734 26.3721C0.503827 24.7287 0.5 22.7154 0.5 18.5C0.5 14.2846 0.503827 12.2713 0.927734 10.6279C2.15499 5.87031 5.87031 2.15499 10.6279 0.927734C12.2713 0.503827 14.2846 0.5 18.5 0.5Z" stroke="black" stroke-opacity="0.05"/>
<path d="M17.435 13.275C18.035 13.275 18.57 13.46 19.04 13.83C19.52 14.19 19.895 14.705 20.165 15.375C20.435 16.045 20.57 16.825 20.57 17.715C20.57 18.605 20.435 19.385 20.165 20.055C19.895 20.725 19.52 21.245 19.04 21.615C18.57 21.975 18.035 22.155 17.435 22.155C16.825 22.155 16.28 21.975 15.8 21.615C15.33 21.245 14.96 20.725 14.69 20.055C14.42 19.385 14.285 18.605 14.285 17.715C14.285 16.825 14.42 16.045 14.69 15.375C14.96 14.705 15.33 14.19 15.8 13.83C16.28 13.46 16.825 13.275 17.435 13.275ZM17.435 14.745C16.935 14.745 16.53 15.01 16.22 15.54C15.91 16.06 15.755 16.785 15.755 17.715C15.755 18.645 15.91 19.375 16.22 19.905C16.53 20.425 16.935 20.685 17.435 20.685C17.945 20.685 18.35 20.425 18.65 19.905C18.95 19.375 19.1 18.645 19.1 17.715C19.1 16.785 18.95 16.06 18.65 15.54C18.35 15.01 17.945 14.745 17.435 14.745ZM23.645 17.16H25.49V18.525H23.645V24.885H22.1V12.375H23.645V17.16ZM35.5825 17.07H36.9175V18.42H35.5825V24.885H34.0825V12.375H35.5825V17.07ZM27.0925 16.485H28.0375V13.5H29.3125V21.96H25.8175V13.5H27.0925V16.485ZM28.0375 20.625V17.79H27.0925V20.625H28.0375ZM31.0825 16.485H32.0425V13.5H33.3175V21.96H29.8225V13.5H31.0825V16.485ZM32.0425 20.625V17.79H31.0825V20.625H32.0425ZM43.4622 13.275C44.2722 13.275 44.9522 13.605 45.5022 14.265C46.0622 14.925 46.3972 15.82 46.5072 16.95H48.7572V12.375H50.2722V24.9H48.7572V18.255H46.5222C46.4722 19.045 46.3072 19.735 46.0272 20.325C45.7572 20.915 45.4022 21.37 44.9622 21.69C44.5222 22 44.0222 22.155 43.4622 22.155C42.8622 22.155 42.3272 21.975 41.8572 21.615C41.3972 21.245 41.0322 20.725 40.7622 20.055C40.5022 19.385 40.3722 18.605 40.3722 17.715C40.3722 16.825 40.5022 16.045 40.7622 15.375C41.0322 14.705 41.3972 14.19 41.8572 13.83C42.3272 13.46 42.8622 13.275 43.4622 13.275ZM43.4622 14.745C42.9622 14.745 42.5622 15.01 42.2622 15.54C41.9722 16.06 41.8272 16.785 41.8272 17.715C41.8272 18.645 41.9722 19.375 42.2622 19.905C42.5622 20.425 42.9622 20.685 43.4622 20.685C43.9622 20.685 44.3622 20.425 44.6622 19.905C44.9622 19.375 45.1122 18.645 45.1122 17.715C45.1122 16.785 44.9622 16.06 44.6622 15.54C44.3622 15.01 43.9622 14.745 43.4622 14.745ZM62.0448 24.885H60.5898V12.375H62.0448V24.885ZM59.5998 24.27H58.1448V18.03H56.4498V16.71H58.1448V12.615H59.5998V24.27ZM55.4148 15.78C55.4148 16.91 55.6148 17.945 56.0148 18.885C56.4148 19.815 57.0298 20.525 57.8598 21.015L56.9448 22.2C55.8948 21.56 55.1398 20.475 54.6798 18.945C54.4598 19.745 54.1548 20.45 53.7648 21.06C53.3848 21.66 52.9198 22.135 52.3698 22.485L51.4248 21.3C52.2548 20.77 52.8748 20.01 53.2848 19.02C53.7048 18.02 53.9148 16.94 53.9148 15.78V15.015H51.8748V13.71H57.3348V15.015H55.4148V15.78ZM77.1545 19.83H72.5345V22.08H70.9595V19.83H66.1295V18.54H77.1545V19.83ZM75.9245 24.645H67.4795V20.91H69.0395V23.325H75.9245V24.645ZM71.6345 12.63C72.4945 12.63 73.2495 12.735 73.8995 12.945C74.5595 13.155 75.0695 13.46 75.4295 13.86C75.7895 14.25 75.9695 14.705 75.9695 15.225C75.9695 15.745 75.7895 16.2 75.4295 16.59C75.0695 16.97 74.5595 17.265 73.8995 17.475C73.2495 17.685 72.4945 17.79 71.6345 17.79C70.7745 17.79 70.0195 17.685 69.3695 17.475C68.7195 17.265 68.2145 16.97 67.8545 16.59C67.4945 16.2 67.3145 15.745 67.3145 15.225C67.3145 14.705 67.4945 14.25 67.8545 13.86C68.2145 13.46 68.7195 13.155 69.3695 12.945C70.0195 12.735 70.7745 12.63 71.6345 12.63ZM71.6345 13.935C70.8045 13.935 70.1495 14.05 69.6695 14.28C69.1895 14.5 68.9495 14.815 68.9495 15.225C68.9495 15.615 69.1895 15.925 69.6695 16.155C70.1595 16.375 70.8145 16.485 71.6345 16.485C72.4545 16.485 73.1045 16.375 73.5845 16.155C74.0745 15.925 74.3195 15.615 74.3195 15.225C74.3195 14.815 74.0795 14.5 73.5995 14.28C73.1195 14.05 72.4645 13.935 71.6345 13.935ZM88.657 19.62H77.647V18.315H82.387V17.205H78.997V12.93H87.337V14.205H80.527V15.93H87.397V17.205H83.902V18.315H88.657V19.62ZM83.122 20.28C84.442 20.28 85.472 20.48 86.212 20.88C86.952 21.28 87.322 21.85 87.322 22.59C87.322 23.31 86.947 23.87 86.197 24.27C85.457 24.67 84.432 24.87 83.122 24.87C81.812 24.87 80.782 24.67 80.032 24.27C79.292 23.87 78.922 23.31 78.922 22.59C78.922 21.85 79.292 21.28 80.032 20.88C80.772 20.48 81.802 20.28 83.122 20.28ZM83.122 21.54C82.272 21.54 81.617 21.63 81.157 21.81C80.707 21.99 80.482 22.25 80.482 22.59C80.482 22.93 80.707 23.19 81.157 23.37C81.607 23.55 82.262 23.64 83.122 23.64C83.982 23.64 84.637 23.55 85.087 23.37C85.537 23.19 85.762 22.93 85.762 22.59C85.762 22.25 85.537 21.99 85.087 21.81C84.637 21.63 83.982 21.54 83.122 21.54ZM98.9517 14.28H96.4767C96.4967 14.96 96.7567 15.59 97.2567 16.17C97.7567 16.74 98.4517 17.15 99.3417 17.4L98.6367 18.675C97.9567 18.485 97.3717 18.19 96.8817 17.79C96.3917 17.38 96.0067 16.9 95.7267 16.35C95.4467 16.97 95.0517 17.51 94.5417 17.97C94.0317 18.42 93.4167 18.75 92.6967 18.96L91.9467 17.685C92.8767 17.415 93.5967 16.97 94.1067 16.35C94.6267 15.72 94.8967 15.03 94.9167 14.28H92.3817V13.005H98.9517V14.28ZM101.652 14.91H103.317V16.215H101.652V18.795H100.122V12.375H101.652V14.91ZM101.652 22.53H95.2617V23.505H102.012V24.765H93.7467V21.39H100.137V20.535H93.7467V19.29H101.652V22.53ZM113.964 20.115H112.494V16.965H111.399V19.95H109.959V12.585H111.399V15.66H112.494V12.375H113.964V20.115ZM109.554 14.94H103.584V13.665H105.804V12.45H107.349V13.665H109.554V14.94ZM106.584 15.345C107.354 15.345 107.984 15.55 108.474 15.96C108.964 16.36 109.209 16.885 109.209 17.535C109.209 18.175 108.964 18.7 108.474 19.11C107.984 19.51 107.354 19.71 106.584 19.71C105.824 19.71 105.199 19.51 104.709 19.11C104.219 18.7 103.974 18.175 103.974 17.535C103.974 16.885 104.219 16.36 104.709 15.96C105.199 15.55 105.824 15.345 106.584 15.345ZM106.584 16.53C106.214 16.53 105.914 16.62 105.684 16.8C105.464 16.97 105.354 17.215 105.354 17.535C105.354 17.835 105.464 18.08 105.684 18.27C105.914 18.45 106.214 18.54 106.584 18.54C106.954 18.54 107.249 18.45 107.469 18.27C107.699 18.08 107.814 17.835 107.814 17.535C107.814 17.215 107.704 16.97 107.484 16.8C107.264 16.62 106.964 16.53 106.584 16.53ZM108.159 20.775C108.159 21.265 108.279 21.74 108.519 22.2C108.759 22.65 109.114 23.025 109.584 23.325C110.064 23.005 110.424 22.615 110.664 22.155C110.914 21.695 111.039 21.235 111.039 20.775V20.46H112.599V20.775C112.599 21.395 112.794 21.955 113.184 22.455C113.574 22.955 114.144 23.31 114.894 23.52L114.189 24.72C113.619 24.54 113.134 24.27 112.734 23.91C112.344 23.55 112.039 23.125 111.819 22.635C111.609 23.135 111.319 23.58 110.949 23.97C110.589 24.35 110.144 24.635 109.614 24.825C108.574 24.445 107.834 23.735 107.394 22.695C107.164 23.165 106.849 23.575 106.449 23.925C106.059 24.275 105.594 24.54 105.054 24.72L104.334 23.52C105.074 23.28 105.644 22.91 106.044 22.41C106.444 21.9 106.644 21.355 106.644 20.775V20.46H108.159V20.775ZM118.432 13.275C119.242 13.275 119.922 13.605 120.472 14.265C121.032 14.925 121.367 15.82 121.477 16.95H123.727V12.375H125.242V24.9H123.727V18.255H121.492C121.442 19.045 121.277 19.735 120.997 20.325C120.727 20.915 120.372 21.37 119.932 21.69C119.492 22 118.992 22.155 118.432 22.155C117.832 22.155 117.297 21.975 116.827 21.615C116.367 21.245 116.002 20.725 115.732 20.055C115.472 19.385 115.342 18.605 115.342 17.715C115.342 16.825 115.472 16.045 115.732 15.375C116.002 14.705 116.367 14.19 116.827 13.83C117.297 13.46 117.832 13.275 118.432 13.275ZM118.432 14.745C117.932 14.745 117.532 15.01 117.232 15.54C116.942 16.06 116.797 16.785 116.797 17.715C116.797 18.645 116.942 19.375 117.232 19.905C117.532 20.425 117.932 20.685 118.432 20.685C118.932 20.685 119.332 20.425 119.632 19.905C119.932 19.375 120.082 18.645 120.082 17.715C120.082 16.785 119.932 16.06 119.632 15.54C119.332 15.01 118.932 14.745 118.432 14.745ZM129.259 20.88C129.269 20.21 129.354 19.69 129.514 19.32C129.684 18.94 130.004 18.515 130.474 18.045C130.794 17.735 131.029 17.5 131.179 17.34C131.329 17.18 131.454 16.99 131.554 16.77C131.654 16.55 131.704 16.295 131.704 16.005C131.704 15.525 131.579 15.155 131.329 14.895C131.089 14.625 130.739 14.49 130.279 14.49C129.859 14.49 129.504 14.61 129.214 14.85C128.924 15.09 128.779 15.44 128.779 15.9H127.144C127.154 15.03 127.449 14.35 128.029 13.86C128.619 13.37 129.369 13.125 130.279 13.125C131.239 13.125 131.989 13.375 132.529 13.875C133.069 14.375 133.339 15.065 133.339 15.945C133.339 16.535 133.184 17.06 132.874 17.52C132.564 17.98 132.109 18.49 131.509 19.05C131.259 19.29 131.084 19.555 130.984 19.845C130.884 20.135 130.829 20.48 130.819 20.88H129.259ZM129.139 23.205C129.139 22.945 129.224 22.73 129.394 22.56C129.574 22.38 129.809 22.29 130.099 22.29C130.379 22.29 130.604 22.38 130.774 22.56C130.944 22.73 131.029 22.945 131.029 23.205C131.029 23.455 130.944 23.665 130.774 23.835C130.604 23.995 130.379 24.075 130.099 24.075C129.809 24.075 129.574 23.995 129.394 23.835C129.224 23.665 129.139 23.455 129.139 23.205Z" fill="black"/>
</svg>
