<svg width="154" height="76" viewBox="0 0 154 76" fill="none" xmlns="http://www.w3.org/2000/svg">
<rect width="154" height="64" rx="14" fill="black"/>
<path d="M60.5799 13.425C60.5799 13.945 60.7549 14.45 61.1049 14.94C61.4549 15.43 61.9499 15.85 62.5899 16.2C63.2299 16.55 63.9749 16.78 64.8249 16.89L64.2099 18.21C63.1899 18.05 62.2899 17.73 61.5099 17.25C60.7399 16.77 60.1599 16.175 59.7699 15.465C59.3699 16.175 58.7799 16.77 57.9999 17.25C57.2299 17.73 56.3399 18.05 55.3299 18.21L54.7149 16.89C55.5549 16.78 56.2949 16.55 56.9349 16.2C57.5849 15.85 58.0799 15.43 58.4199 14.94C58.7699 14.45 58.9449 13.945 58.9449 13.425V12.765H60.5799V13.425ZM65.2299 20.535H60.4899V24.885H58.9599V20.535H54.2499V19.2H65.2299V20.535ZM76.7775 23.37H65.7525V22.035H68.2725V18.93C67.7925 18.64 67.4225 18.275 67.1625 17.835C66.9025 17.395 66.7725 16.905 66.7725 16.365C66.7725 15.705 66.9625 15.125 67.3425 14.625C67.7225 14.115 68.2525 13.725 68.9325 13.455C69.6125 13.185 70.3825 13.05 71.2425 13.05C72.1025 13.05 72.8725 13.185 73.5525 13.455C74.2425 13.725 74.7825 14.115 75.1725 14.625C75.5625 15.125 75.7575 15.705 75.7575 16.365C75.7575 16.905 75.6225 17.395 75.3525 17.835C75.0925 18.265 74.7275 18.625 74.2575 18.915V22.035H76.7775V23.37ZM71.2425 14.325C70.3425 14.325 69.6225 14.51 69.0825 14.88C68.5425 15.24 68.2725 15.735 68.2725 16.365C68.2725 16.985 68.5425 17.485 69.0825 17.865C69.6325 18.235 70.3525 18.42 71.2425 18.42C72.1425 18.42 72.8675 18.235 73.4175 17.865C73.9775 17.485 74.2575 16.985 74.2575 16.365C74.2575 15.745 73.9775 15.25 73.4175 14.88C72.8675 14.51 72.1425 14.325 71.2425 14.325ZM72.7125 22.035V19.515C72.2825 19.615 71.7925 19.665 71.2425 19.665C70.7125 19.665 70.2325 19.615 69.8025 19.515V22.035H72.7125ZM87.575 19.335H86.12V12.375H87.575V19.335ZM85.28 19.245H83.84V16.785H82.745V15.495H83.84V12.6H85.28V19.245ZM87.575 22.8H80.93V23.565H87.935V24.78H79.4V21.675H86.06V20.94H79.4V19.755H87.575V22.8ZM83.015 14.67H77.195V13.425H79.355V12.36H80.87V13.425H83.015V14.67ZM80.12 14.985C80.85 14.985 81.45 15.175 81.92 15.555C82.4 15.935 82.64 16.435 82.64 17.055C82.64 17.675 82.405 18.175 81.935 18.555C81.465 18.935 80.86 19.125 80.12 19.125C79.38 19.125 78.775 18.935 78.305 18.555C77.835 18.175 77.6 17.675 77.6 17.055C77.6 16.435 77.835 15.935 78.305 15.555C78.775 15.175 79.38 14.985 80.12 14.985ZM80.12 16.11C79.77 16.11 79.485 16.2 79.265 16.38C79.045 16.55 78.935 16.775 78.935 17.055C78.935 17.345 79.04 17.575 79.25 17.745C79.47 17.915 79.76 18 80.12 18C80.48 18 80.765 17.915 80.975 17.745C81.195 17.575 81.305 17.345 81.305 17.055C81.305 16.775 81.195 16.55 80.975 16.38C80.755 16.2 80.47 16.11 80.12 16.11ZM95.0125 14.085C95.0125 14.715 95.1975 15.335 95.5675 15.945C95.9375 16.545 96.4525 17.065 97.1125 17.505C97.7725 17.935 98.5225 18.225 99.3625 18.375L98.6575 19.71C97.6475 19.5 96.7525 19.1 95.9725 18.51C95.1925 17.92 94.6075 17.205 94.2175 16.365C93.8175 17.195 93.2275 17.905 92.4475 18.495C91.6675 19.085 90.7725 19.49 89.7625 19.71L89.0875 18.375C89.9175 18.225 90.6575 17.935 91.3075 17.505C91.9575 17.065 92.4625 16.545 92.8225 15.945C93.1925 15.335 93.3775 14.715 93.3775 14.085V13.17H95.0125V14.085ZM99.7825 23.325H88.7575V21.96H99.7825V23.325Z" fill="white"/>
<path fill-rule="evenodd" clip-rule="evenodd" d="M20 39C19.8157 39 19.6352 39.0549 19.4799 39.1583C19.3266 39.2603 19.2041 39.4054 19.1265 39.5766L17.6519 42.6774C17.649 42.6835 17.6463 42.6897 17.6436 42.6959C17.643 42.6974 17.6419 42.6988 17.6406 42.6998C17.6393 42.7007 17.6378 42.7014 17.6361 42.7016C17.6305 42.7022 17.6248 42.703 17.6192 42.7038L14.3725 43.2048C14.193 43.223 14.0219 43.2932 13.8786 43.4075C13.7303 43.5258 13.6181 43.6864 13.5556 43.8698C13.4931 44.0532 13.4831 44.2515 13.5266 44.4407C13.57 44.6292 13.6647 44.8006 13.7993 44.9344L16.1759 47.3229L16.1813 47.3282C16.1847 47.3315 16.1873 47.3356 16.1888 47.3402C16.1902 47.3448 16.1906 47.3497 16.1898 47.3545L16.1892 47.3577L15.6229 50.8099C15.5918 50.997 15.6115 51.1903 15.68 51.3662C15.7487 51.5424 15.8635 51.695 16.0113 51.8067C16.1591 51.9182 16.334 51.9844 16.5161 51.9975C16.6979 52.0107 16.8795 51.9705 17.0405 51.8817L17.0415 51.8811L19.9667 50.2708C19.9772 50.2661 19.9886 50.2636 20 50.2636C20.0115 50.2636 20.0228 50.2661 20.0333 50.2708L22.9585 51.8811C23.1196 51.9702 23.302 52.0108 23.4839 51.9975C23.666 51.9844 23.8409 51.9182 23.9888 51.8067C24.1366 51.695 24.2514 51.5424 24.32 51.3662C24.3885 51.1903 24.4083 50.998 24.3773 50.811L24.3771 50.8099L23.8108 47.3576L23.8103 47.3545C23.8094 47.3497 23.8098 47.3448 23.8113 47.3402C23.8127 47.3357 23.8153 47.3315 23.8186 47.3282L23.8241 47.3229L26.2007 44.9344C26.3353 44.8006 26.4301 44.6292 26.4734 44.4407C26.5169 44.2515 26.5069 44.0532 26.4444 43.8698C26.382 43.6864 26.2698 43.5258 26.1214 43.4075C25.9781 43.2932 25.807 43.223 25.6276 43.2048L22.3808 42.7038C22.3752 42.703 22.3695 42.7022 22.3639 42.7016C22.3623 42.7014 22.3607 42.7007 22.3594 42.6998C22.3581 42.6988 22.3571 42.6974 22.3564 42.6959C22.3538 42.6897 22.351 42.6835 22.3481 42.6774L20.8735 39.5766C20.7959 39.4053 20.6734 39.2603 20.5201 39.1583C20.3648 39.0549 20.1843 39 20 39Z" fill="#CCFF77"/>
<path d="M36.032 48.044H32.252L32.228 47.264L35.984 41.42H37.34V47H38.456V48.044H37.34V50H36.032V48.044ZM36.032 43.184L35.912 43.4L33.62 47H36.032V43.184ZM39.5554 49.34C39.5554 49.124 39.6234 48.944 39.7594 48.8C39.8954 48.656 40.0834 48.584 40.3234 48.584C40.5634 48.584 40.7514 48.656 40.8874 48.8C41.0314 48.944 41.1034 49.124 41.1034 49.34C41.1034 49.548 41.0354 49.72 40.8994 49.856C40.7634 49.992 40.5714 50.06 40.3234 50.06C40.0834 50.06 39.8954 49.992 39.7594 49.856C39.6234 49.72 39.5554 49.548 39.5554 49.34ZM48.0868 47.672C48.0868 48.184 47.9668 48.624 47.7268 48.992C47.4868 49.36 47.1548 49.64 46.7308 49.832C46.3148 50.024 45.8388 50.12 45.3028 50.12C44.7668 50.12 44.2868 50.024 43.8628 49.832C43.4468 49.64 43.1148 49.36 42.8668 48.992C42.6268 48.624 42.5068 48.184 42.5068 47.672C42.5068 47.208 42.6308 46.792 42.8788 46.424C43.1348 46.048 43.4828 45.764 43.9228 45.572C43.5388 45.388 43.2388 45.128 43.0228 44.792C42.8068 44.456 42.6988 44.08 42.6988 43.664C42.6988 42.928 42.9388 42.352 43.4188 41.936C43.9068 41.512 44.5348 41.3 45.3028 41.3C46.0708 41.3 46.6948 41.512 47.1748 41.936C47.6548 42.352 47.8948 42.928 47.8948 43.664C47.8948 44.08 47.7828 44.456 47.5588 44.792C47.3428 45.128 47.0428 45.392 46.6588 45.584C47.0988 45.768 47.4468 46.044 47.7028 46.412C47.9588 46.78 48.0868 47.2 48.0868 47.672ZM46.5868 43.712C46.5868 43.312 46.4668 42.988 46.2268 42.74C45.9948 42.484 45.6868 42.356 45.3028 42.356C44.9108 42.356 44.5988 42.48 44.3668 42.728C44.1348 42.968 44.0188 43.296 44.0188 43.712C44.0188 44.12 44.1348 44.448 44.3668 44.696C44.5988 44.936 44.9108 45.056 45.3028 45.056C45.6948 45.056 46.0068 44.936 46.2388 44.696C46.4708 44.448 46.5868 44.12 46.5868 43.712ZM46.7788 47.612C46.7788 47.164 46.6388 46.804 46.3588 46.532C46.0868 46.252 45.7308 46.112 45.2908 46.112C44.8428 46.112 44.4828 46.252 44.2108 46.532C43.9468 46.804 43.8148 47.164 43.8148 47.612C43.8148 48.068 43.9468 48.428 44.2108 48.692C44.4828 48.948 44.8468 49.076 45.3028 49.076C45.7588 49.076 46.1188 48.948 46.3828 48.692C46.6468 48.428 46.7788 48.068 46.7788 47.612Z" fill="#CCFF77"/>
<rect x="56" y="35" width="86" height="21" rx="6" fill="#CCFF77" fill-opacity="0.3"/>
<path d="M69.992 46.112H67.16V48.476H70.964V49.52H62.144V48.476H65.924V46.112H63.164V41.492H64.412V45.068H69.992V46.112ZM79.398 47.924H78.15V40.7H79.398V47.924ZM79.65 50.516H72.99V47.18H74.226V49.472H79.65V50.516ZM74.118 41.36C74.606 41.36 75.05 41.468 75.45 41.684C75.85 41.9 76.162 42.2 76.386 42.584C76.618 42.968 76.734 43.4 76.734 43.88C76.734 44.36 76.618 44.792 76.386 45.176C76.162 45.56 75.85 45.86 75.45 46.076C75.05 46.292 74.606 46.4 74.118 46.4C73.638 46.4 73.198 46.292 72.798 46.076C72.406 45.86 72.094 45.56 71.862 45.176C71.63 44.792 71.514 44.36 71.514 43.88C71.514 43.4 71.63 42.968 71.862 42.584C72.094 42.2 72.406 41.9 72.798 41.684C73.198 41.468 73.638 41.36 74.118 41.36ZM74.118 42.488C73.71 42.488 73.374 42.616 73.11 42.872C72.846 43.128 72.714 43.464 72.714 43.88C72.714 44.304 72.846 44.64 73.11 44.888C73.374 45.136 73.71 45.26 74.118 45.26C74.526 45.26 74.862 45.136 75.126 44.888C75.39 44.64 75.522 44.304 75.522 43.88C75.522 43.464 75.39 43.128 75.126 42.872C74.862 42.616 74.526 42.488 74.118 42.488ZM85.5521 42.068C85.5521 42.572 85.7001 43.068 85.9961 43.556C86.2921 44.036 86.7041 44.452 87.2321 44.804C87.7601 45.148 88.3601 45.38 89.0321 45.5L88.4681 46.568C87.6601 46.4 86.9441 46.08 86.3201 45.608C85.6961 45.136 85.2281 44.564 84.9161 43.892C84.5961 44.556 84.1241 45.124 83.5001 45.596C82.8761 46.068 82.1601 46.392 81.3521 46.568L80.8121 45.5C81.4761 45.38 82.0681 45.148 82.5881 44.804C83.1081 44.452 83.5121 44.036 83.8001 43.556C84.0961 43.068 84.2441 42.572 84.2441 42.068V41.336H85.5521V42.068ZM89.3681 49.46H80.5481V48.368H89.3681V49.46ZM98.5701 49.556H89.7501V48.464H93.5181V46.568H90.5061V45.548H91.8501V42.62H90.4701V41.564H97.8141V42.62H96.4221V45.548H97.7781V46.568H94.7421V48.464H98.5701V49.556ZM95.1981 45.548V42.62H93.0741V45.548H95.1981ZM107.772 49.508H98.9521V48.452H107.772V49.508ZM106.992 43.208H103.98C104.012 43.64 104.168 44.052 104.448 44.444C104.728 44.836 105.12 45.172 105.624 45.452C106.128 45.732 106.72 45.924 107.4 46.028L106.92 47.072C106.096 46.936 105.376 46.676 104.76 46.292C104.144 45.9 103.676 45.416 103.356 44.84C103.036 45.416 102.568 45.9 101.952 46.292C101.336 46.676 100.616 46.936 99.7921 47.072L99.3001 46.028C99.9881 45.924 100.584 45.732 101.088 45.452C101.592 45.172 101.984 44.836 102.264 44.444C102.544 44.052 102.7 43.64 102.732 43.208H99.7321V42.152H102.744V40.892H103.968V42.152H106.992V43.208ZM111.814 43.532C111.814 44.084 111.91 44.628 112.102 45.164C112.302 45.692 112.586 46.168 112.954 46.592C113.33 47.008 113.774 47.324 114.286 47.54L113.602 48.56C113.05 48.312 112.57 47.944 112.162 47.456C111.754 46.96 111.438 46.388 111.214 45.74C110.982 46.444 110.658 47.064 110.242 47.6C109.834 48.136 109.354 48.54 108.802 48.812L108.094 47.792C108.59 47.56 109.026 47.216 109.402 46.76C109.778 46.304 110.062 45.796 110.254 45.236C110.454 44.668 110.554 44.1 110.554 43.532V42.752H108.454V41.696H113.902V42.752H111.814V43.532ZM116.182 50.708H114.934V40.7H116.182V50.708ZM125.204 46.268H122.36V48.476H126.176V49.532H117.356V48.476H121.136V46.268H118.424V41.444H125.12V42.476H119.66V45.212H125.204V46.268ZM130.026 43.076C130.026 43.996 130.234 44.86 130.65 45.668C131.066 46.468 131.638 47.044 132.366 47.396L131.61 48.428C131.106 48.172 130.67 47.804 130.302 47.324C129.934 46.836 129.642 46.268 129.426 45.62C129.21 46.308 128.906 46.912 128.514 47.432C128.122 47.952 127.654 48.348 127.11 48.62L126.366 47.588C126.878 47.34 127.318 46.98 127.686 46.508C128.054 46.036 128.33 45.504 128.514 44.912C128.706 44.312 128.802 43.7 128.802 43.076V41.504H130.026V43.076ZM134.13 44.588H135.594V45.704H134.13V50.708H132.894V40.7H134.13V44.588Z" fill="#CCFF77"/>
<path d="M77.848 74.6432C77.4563 75.2699 76.5437 75.2699 76.152 74.6432L67.9562 61.53C67.54 60.8639 68.0188 60 68.8042 60L85.1958 60C85.9812 60 86.46 60.864 86.0438 61.53L77.848 74.6432Z" fill="black"/>
</svg>
