<svg width="112" height="37" viewBox="0 0 112 37" fill="none" xmlns="http://www.w3.org/2000/svg">
<path d="M0 0H93.5C97.6844 0 99.7766 0 101.497 0.443751C106.431 1.71645 110.284 5.56927 111.556 10.5031C112 12.2234 112 14.3156 112 18.5C112 22.6844 112 24.7766 111.556 26.4969C110.284 31.4307 106.431 35.2835 101.497 36.5562C99.7766 37 97.6844 37 93.5 37H22.4C14.5593 37 10.6389 37 7.64413 35.4741C5.00986 34.1319 2.86814 31.9901 1.52591 29.3559C0 26.3611 0 22.4407 0 14.6V0Z" fill="black"/>
<path d="M24.05 14.715C24.05 15.785 24.02 16.75 23.96 17.61C23.91 18.47 23.775 19.48 23.555 20.64L22.025 20.46C22.235 19.4 22.365 18.445 22.415 17.595C22.475 16.735 22.505 15.805 22.505 14.805H15.335V13.5H24.05V14.715ZM25.16 23.295H14.18V21.96H18.2V17.625H19.73V21.96H25.16V23.295ZM31.8025 18.645H26.0875V13.185H31.8025V18.645ZM27.6025 17.355H30.3175V14.475H27.6025V17.355ZM35.2075 15.075H36.8875V16.395H35.2075V19.215H33.6925V12.375H35.2075V15.075ZM28.9075 20.97H33.6925V19.71H35.2075V24.72H27.3625V19.71H28.9075V20.97ZM33.6925 23.415V22.23H28.9075V23.415H33.6925ZM46.6501 17.1H48.4951V18.42H46.6501V24.9H45.1051V12.375H46.6501V17.1ZM43.3501 14.865H39.2401V20.505C40.2501 20.495 41.1301 20.465 41.8801 20.415C42.6401 20.355 43.4101 20.25 44.1901 20.1L44.3401 21.465C43.4801 21.615 42.6201 21.72 41.7601 21.78C40.9101 21.83 39.8901 21.855 38.7001 21.855H37.6951V13.56H43.3501V14.865ZM62.6748 20.73H57.9048V24.885H56.3748V20.73H51.6498V19.395H62.6748V20.73ZM57.1398 12.825C57.9898 12.825 58.7448 12.94 59.4048 13.17C60.0648 13.4 60.5748 13.725 60.9348 14.145C61.3048 14.565 61.4898 15.06 61.4898 15.63C61.4898 16.19 61.3048 16.68 60.9348 17.1C60.5748 17.52 60.0648 17.845 59.4048 18.075C58.7448 18.305 57.9898 18.42 57.1398 18.42C56.2898 18.42 55.5348 18.305 54.8748 18.075C54.2148 17.845 53.6998 17.52 53.3298 17.1C52.9698 16.68 52.7898 16.19 52.7898 15.63C52.7898 15.06 52.9698 14.565 53.3298 14.145C53.6998 13.725 54.2148 13.4 54.8748 13.17C55.5348 12.94 56.2898 12.825 57.1398 12.825ZM57.1398 14.13C56.2898 14.13 55.6148 14.265 55.1148 14.535C54.6248 14.795 54.3798 15.16 54.3798 15.63C54.3798 16.11 54.6248 16.48 55.1148 16.74C55.6048 17 56.2798 17.13 57.1398 17.13C57.9998 17.13 58.6748 17 59.1648 16.74C59.6648 16.47 59.9148 16.1 59.9148 15.63C59.9148 15.16 59.6648 14.795 59.1648 14.535C58.6648 14.265 57.9898 14.13 57.1398 14.13ZM73.2323 24.9H71.6873V12.375H73.2323V24.9ZM69.4973 18.21H65.3873V20.625C66.4173 20.615 67.3523 20.58 68.1923 20.52C69.0323 20.46 69.8923 20.35 70.7723 20.19L70.8923 21.51C69.9523 21.68 69.0223 21.795 68.1023 21.855C67.1923 21.915 66.1223 21.945 64.8923 21.945H63.8273V16.92H67.9223V14.775H63.8123V13.455H69.4973V18.21ZM84.4648 14.91H85.8748V16.215H84.4648V18.75H82.9198V12.375H84.4648V14.91ZM84.4648 22.53H77.8198V23.445H84.8698V24.72H76.2898V21.345H82.9498V20.49H76.2898V19.2H84.4648V22.53ZM78.1198 14.43H76.4848V16.89C77.1348 16.87 77.7248 16.805 78.2548 16.695L78.3898 18C77.9198 18.09 77.4798 18.15 77.0698 18.18C76.6598 18.2 76.1698 18.21 75.5998 18.21H75.0148V13.14H78.1198V14.43ZM81.9898 14.43H80.2198V16.905C80.6498 16.895 81.0198 16.875 81.3298 16.845C81.6498 16.805 81.9698 16.74 82.2898 16.65L82.4098 17.97C81.9998 18.07 81.5998 18.13 81.2098 18.15C80.8198 18.17 80.2048 18.18 79.3648 18.18H78.7498V13.14H81.9898V14.43ZM95.8624 18.18C95.8724 18.73 95.7724 19.235 95.5624 19.695C95.3524 20.145 95.0574 20.5 94.6774 20.76C94.3074 21.02 93.8874 21.15 93.4174 21.15C93.0074 21.15 92.6374 21.07 92.3074 20.91C91.9874 20.75 91.6324 20.49 91.2424 20.13C90.9824 19.9 90.7574 19.73 90.5674 19.62C90.3774 19.51 90.1824 19.455 89.9824 19.455C89.6224 19.455 89.3474 19.585 89.1574 19.845C88.9674 20.095 88.8774 20.44 88.8874 20.88L87.5074 20.895C87.4974 20.325 87.5924 19.82 87.7924 19.38C88.0024 18.94 88.2924 18.595 88.6624 18.345C89.0324 18.095 89.4574 17.97 89.9374 17.97C90.3374 17.97 90.7024 18.055 91.0324 18.225C91.3724 18.385 91.7324 18.64 92.1124 18.99C92.3824 19.23 92.6074 19.405 92.7874 19.515C92.9774 19.625 93.1774 19.68 93.3874 19.68C93.7274 19.68 94.0024 19.54 94.2124 19.26C94.4224 18.98 94.5224 18.62 94.5124 18.18H95.8624Z" fill="#CCFF77"/>
</svg>
