<svg width="114" height="39" viewBox="0 0 114 39" fill="none" xmlns="http://www.w3.org/2000/svg">
<path d="M3.081 16.697C3.44257 16.6804 3.91824 16.7214 4.5106 16.8201C5.05294 16.9522 5.47221 17.1406 5.7671 17.3868C6.06328 17.683 6.75435 17.6843 6.95052 18.3741C7.13131 19.0972 7.59288 20.455 7.65955 21.391C7.75828 22.3936 7.78264 23.4604 7.73392 24.5951C7.68519 25.7298 7.58647 26.8863 7.43774 28.0697C7.29029 28.7928 6.27611 29.298 5.96455 29.6595C5.61965 30.0544 5.23373 30.3173 4.80677 30.4481C4.32981 30.6288 3.8785 30.6699 3.45154 30.5711C3.00792 30.5058 2.6143 30.3493 2.26812 30.1032C1.77577 29.8236 1.38857 29.3967 1.11034 28.8223C0.946225 28.5428 0.806471 28.2479 0.691078 27.935C0.575684 27.6235 0.476959 27.294 0.394902 26.9491C0.180783 26.2259 0.0666716 25.5118 0.0500037 24.8053C0.0333358 24.4438 0.0205147 24.0912 0.0128218 23.7463C0.00384674 23.4014 0 23.0565 0 22.7116C0 21.8897 0.0987256 21.0935 0.296176 20.3217C0.493627 19.5819 0.730824 18.9254 1.01033 18.3497C1.3719 17.7586 1.7168 17.3317 2.04503 17.0688C2.42326 16.7893 2.76816 16.6496 3.07972 16.6496V16.6983L3.081 16.697ZM3.22845 18.1997C2.93227 18.4138 2.70277 18.6767 2.53865 18.9882C2.43993 19.1523 2.35787 19.3293 2.29248 19.5177C2.22709 19.7062 2.16939 19.9075 2.11939 20.1216C2.07067 20.3191 2.02836 20.5204 1.9963 20.7255C1.96297 20.9307 1.93861 21.1486 1.92194 21.3781C1.90527 21.6243 1.88476 21.8589 1.8604 22.0808C1.83604 22.3026 1.81552 22.5282 1.79885 22.759C1.61807 24.5002 1.65141 25.758 1.89758 26.5298C2.09503 27.3671 2.41557 28.0171 2.85919 28.4761C3.3682 29.1339 3.86952 29.2646 4.36187 28.871C4.85421 28.5094 5.13372 28.0081 5.20039 27.3683C5.21706 26.9901 5.23245 26.608 5.24911 26.2221C5.26578 25.8362 5.28245 25.4374 5.29783 25.0271C5.33117 24.2386 5.33117 23.4334 5.29783 22.6116C5.24911 21.8564 5.17475 21.1166 5.07602 20.3935C4.94396 19.7037 4.79651 19.1126 4.6324 18.619C4.53367 18.5202 4.45931 18.4625 4.41059 18.4459C4.36187 18.4292 4.31186 18.4125 4.26314 18.3971C4.21442 18.3805 4.15672 18.3638 4.09005 18.3484C4.02466 18.3484 3.95799 18.3446 3.8926 18.3356C3.82721 18.3279 3.75285 18.3151 3.67079 18.2984C3.58873 18.2818 3.51052 18.2664 3.43616 18.2497C3.36179 18.233 3.29256 18.2164 3.22717 18.201L3.22845 18.1997ZM4.08749 31.8033C6.85308 31.7046 9.2071 31.6558 11.1496 31.6558C12.1432 31.6558 13.9972 31.6558 16.7 31.8033V35.0074C16.7 35.2369 16.6948 35.4638 16.6859 35.6856C16.6769 35.9074 16.6718 36.1331 16.6718 36.3639C16.6538 36.5613 16.6487 36.7498 16.6577 36.9306C16.6666 37.1114 16.6807 37.2922 16.6987 37.4729V37.8922C16.6987 38.0076 16.6615 38.105 16.5884 38.1884C16.5333 38.2871 16.4141 38.3615 16.2307 38.4102C16.0115 38.4589 15.7358 38.4846 15.4063 38.4846C12.6625 38.6064 10.7662 38.623 9.71868 38.632H6.98386C6.15046 38.632 5.38502 38.623 4.68881 38.6076L2.90278 38.7064C2.84765 38.0166 2.79252 37.055 2.73739 35.8228C2.71944 35.1984 2.70533 34.6279 2.69636 34.1099C2.68738 33.5919 2.69123 33.129 2.71046 32.7175C2.65533 32.3226 2.71046 32.0764 2.87586 31.9777C2.94894 31.9123 3.35153 31.8546 4.08492 31.8046L4.08749 31.8033ZM4.6824 37.0268C5.51965 37.0755 6.32099 37.1088 7.08515 37.1255C7.84931 37.1422 8.58398 37.1422 9.29044 37.1255C9.99691 37.0921 10.7072 37.0639 11.4227 37.0396C12.1368 37.0152 11.9547 37.0152 12.6612 36.9652C12.6612 36.7344 12.6574 36.4639 12.6484 36.1523C12.6394 35.8395 12.6279 35.4869 12.6112 35.0933C12.5945 34.6984 12.574 34.3381 12.5497 34.0086C12.5253 33.6804 12.5048 33.3842 12.4881 33.1213C12.1753 33.1213 12.7407 33.088 12.3958 33.097C12.0509 33.1059 11.6893 33.1175 11.3111 33.1342C10.9495 33.1508 10.5752 33.1713 10.1892 33.1957C9.8033 33.2201 9.42122 33.2495 9.04299 33.2816C8.64809 33.2983 8.26729 33.3188 7.89675 33.3431C7.52749 33.3675 7.1531 33.397 6.77615 33.429C6.39792 33.4624 6.03635 33.4867 5.69145 33.5034C5.34656 33.5201 5.00935 33.5278 4.68112 33.5278V37.0268H4.6824ZM14.2267 30.3981C14.2447 30.2006 14.2588 29.9839 14.2677 29.7454C14.2767 29.507 14.2818 29.2569 14.2818 28.9941C14.2818 28.7479 14.2767 28.4889 14.2677 28.2184C14.2588 27.9479 14.2447 27.6799 14.2267 27.4171C14.2088 27.1376 14.1895 26.8632 14.1716 26.5914C14.1536 26.3208 14.1344 26.0529 14.1164 25.79C14.0985 25.5105 14.0793 25.2361 14.0613 24.9643C14.0434 24.6938 14.0241 24.4104 14.0062 24.1142C13.8228 24.1142 13.6215 24.1181 13.401 24.1271C13.1818 24.136 12.9523 24.1399 12.7138 24.1399C12.4753 24.1566 12.233 24.1642 11.9855 24.1642H9.71868C9.4802 24.1642 9.25583 24.1604 9.04555 24.1514C8.83528 24.1437 8.6468 24.1309 8.48269 24.1142V22.241H9.55456C9.79304 22.2577 10.0392 22.2705 10.2969 22.2782C10.5534 22.2872 10.8098 22.2987 11.0662 22.3154C11.2855 22.3154 11.5201 22.3192 11.7676 22.3282C12.015 22.3372 12.2753 22.341 12.5509 22.341C12.8074 22.3577 13.0497 22.3654 13.2792 22.3654H13.8972C13.8972 22.3 13.8921 22.0987 13.8831 21.7615C13.8741 21.4256 13.86 21.055 13.8421 20.6524C13.8241 20.2499 13.81 19.8562 13.801 19.469C13.7921 19.0831 13.7869 18.7997 13.7869 18.619C13.769 18.3895 13.7549 18.1676 13.7459 17.9535C13.7369 17.7407 13.7318 17.5432 13.7318 17.3625V16.697L15.9845 16.6483C16.0025 16.8458 16.0115 17.047 16.0115 17.2522V17.8804C15.9935 18.0946 15.9845 18.3164 15.9845 18.5459V19.26C15.9294 19.7524 15.9025 20.2293 15.9025 20.6896C15.8845 20.9358 15.8794 21.1704 15.8884 21.3922C15.8974 21.6141 15.9115 21.832 15.9294 22.0449C15.9474 22.8821 15.9704 23.6924 15.9986 24.472C16.0256 25.2528 16.0486 26.0362 16.0679 26.8247C16.123 28.3851 16.1499 29.5929 16.1499 30.4468L14.2267 30.3981Z" fill="white"/>
<path d="M26.5941 35.9177C26.2774 35.8844 25.9876 35.8562 25.7248 35.8318C25.4619 35.8074 25.2158 35.7946 24.9875 35.7946C24.7593 35.778 24.5311 35.7703 24.3029 35.7703C24.0746 35.7703 23.8631 35.7869 23.6708 35.819H23.0117C22.8015 35.819 22.5899 35.8356 22.3796 35.8677C22.1514 35.8844 21.9142 35.8959 21.6681 35.9049C21.4219 35.9126 21.168 35.9331 20.9039 35.9664H20.7064C20.627 35.9664 20.5436 35.9831 20.4564 36.0151C20.2628 36.0485 20.0872 36.0485 19.9295 36.0151C19.6487 35.9331 19.4551 35.851 19.3499 35.769C19.1743 35.6215 19.0871 35.3664 19.0871 35.0048C19.0512 34.5945 19.0217 34.1047 18.9948 33.538C18.9679 32.9713 18.9371 32.3354 18.9025 31.6276C18.814 30.198 18.7614 28.7441 18.7448 27.2658C18.6922 25.8208 18.6653 24.4233 18.6653 23.077C18.6473 22.3872 18.6383 21.8 18.6383 21.3153V20.0704L18.5332 19.06C18.8499 19.06 19.323 19.0357 19.9564 18.9857C20.5359 18.9369 21.159 18.9113 21.827 18.9113C22.1258 18.8946 22.4284 18.8831 22.7361 18.8741C23.0438 18.8664 23.3554 18.8536 23.6708 18.8369H24.5144C24.7785 18.8369 25.0234 18.8459 25.2517 18.8613C25.8491 18.9434 26.2966 19.0421 26.5954 19.1575C26.8582 19.2895 27.0338 19.6101 27.1223 20.1191V22.509C27.1223 23.1988 27.1172 23.9181 27.1095 24.6656C27.1005 25.4131 27.0877 26.2054 27.0697 27.044C27.0338 27.8812 26.9992 28.6954 26.9646 29.4839C26.9287 30.2724 26.8941 31.0609 26.8595 31.8495C26.8236 32.638 26.7851 33.3034 26.7415 33.8458C26.6979 34.3881 26.6492 34.8228 26.5966 35.1523V35.9164L26.5941 35.9177ZM20.3231 20.5909C20.3051 21.0999 20.2923 21.6384 20.2833 22.2051C20.2744 22.7718 20.2782 23.368 20.2962 23.9912C20.2962 24.6322 20.309 25.272 20.3359 25.9131C20.3628 26.5542 20.3923 27.2029 20.4282 27.8594C20.4449 28.5005 20.468 29.1249 20.4936 29.7326C20.5205 30.3404 20.559 30.9314 20.6116 31.5071C20.6821 32.6085 20.7603 33.5521 20.8488 34.3407H21.2962C21.4539 34.3407 21.6129 34.333 21.7706 34.3163C22.0514 34.3163 22.3771 34.2919 22.7451 34.2419H23.2195C23.3951 34.2419 23.5708 34.2342 23.7464 34.2176C23.9221 34.2176 24.1105 34.2137 24.3131 34.2048C24.5144 34.1971 24.7298 34.1919 24.958 34.1919C24.9747 33.765 24.9888 33.2726 24.9978 32.7136C25.0068 32.1559 25.0106 31.5469 25.0106 30.8904V26.8978C24.9927 26.208 24.9747 25.5554 24.958 24.9387C24.9401 24.322 24.9221 23.7194 24.9055 23.127C24.8875 22.5526 24.8696 22.0474 24.8529 21.6115C24.835 21.1769 24.817 20.8025 24.8003 20.4896C24.3785 20.4896 23.9746 20.4935 23.5887 20.5024C23.2028 20.5114 22.8246 20.5153 22.4553 20.5153C21.7181 20.5486 21.0065 20.573 20.3218 20.5896L20.3231 20.5909ZM32.124 17.3868C32.1458 18.1433 32.1624 18.9023 32.1727 19.6665C32.183 20.4306 32.1894 21.191 32.1894 21.9461V26.3567C32.5176 26.4055 32.9099 26.4311 33.3689 26.4311C33.5869 26.4478 33.8164 26.4555 34.0574 26.4555H34.8114C34.9857 26.4721 35.1768 26.4849 35.3845 26.4926C35.5922 26.5016 35.805 26.5055 36.0243 26.5055H37.2372V28.2299H36.155C35.7614 28.2299 35.3358 28.2223 34.8767 28.2056C33.9151 28.2056 32.9971 28.1812 32.1227 28.1312C32.1009 28.2466 32.0842 28.362 32.074 28.4761C32.0624 28.5915 32.0573 28.6979 32.0573 28.7967V29.4377C32.0355 29.5531 32.0188 29.6634 32.0086 29.7698C31.997 29.8762 31.9919 29.9788 31.9919 30.0775V30.693C31.9265 31.8597 31.8932 33.0098 31.8932 34.1432C31.8714 34.7009 31.8598 35.2728 31.8598 35.8562V37.6178L28.6853 37.5935V35.819C28.6853 35.5228 28.6904 35.2228 28.7019 34.9189C28.7122 34.615 28.7288 34.315 28.7506 34.0188V33.1688C28.7506 32.8816 28.7609 32.5893 28.784 32.2944C28.784 32.0148 28.7891 31.7276 28.8006 31.4315C28.8109 31.1353 28.8173 30.8314 28.8173 30.5199C28.8391 29.5339 28.8558 28.5236 28.866 27.4889C28.8763 26.4542 28.8827 25.3695 28.8827 24.2361C28.8827 23.1026 28.8776 21.9692 28.866 20.8358C28.8545 19.7024 28.8378 18.56 28.8173 17.4099L32.1227 17.3855L32.124 17.3868Z" fill="white"/>
<path d="M49.655 34.4894C49.3755 34.4894 48.7434 34.5138 47.7574 34.5638C47.2484 34.5804 46.7188 34.5971 46.1675 34.6125C45.6175 34.6292 45.0379 34.6535 44.4302 34.6869C43.8225 34.7202 43.2147 34.7522 42.607 34.7856C41.9993 34.8189 41.3915 34.851 40.7838 34.8843C40.176 34.901 39.626 34.9176 39.1324 34.933C38.64 34.9497 38.2208 34.9741 37.8759 35.0074L37.8271 33.0855H38.4926C38.7888 33.0855 39.1657 33.0778 39.626 33.0611C40.0696 33.0611 40.5504 33.0483 41.0671 33.0239C41.5851 32.9996 42.139 32.9713 42.7301 32.938C43.3045 32.9213 43.8968 32.9098 44.5046 32.9008C45.1123 32.8931 45.7367 32.8803 46.3778 32.8636C47.0022 32.8636 47.5894 32.8598 48.1395 32.8508C48.6895 32.8431 49.1947 32.838 49.655 32.838V34.4894ZM42.2621 18.4215C42.607 18.3395 43.116 18.3638 43.7904 18.4959C44.4469 18.6433 44.9482 18.8652 45.2931 19.1613C45.8508 19.7203 46.3278 20.6807 46.7227 22.0449C47.0676 23.4091 46.8458 25.1502 46.0573 27.2696C45.5649 28.6172 44.8328 29.4377 43.8635 29.7339C42.8609 30.0468 42.0236 29.9801 41.3505 29.5365C40.3158 28.9454 39.6504 28.0825 39.3542 26.9491C39.0413 25.9144 38.8862 24.7066 38.8862 23.327C38.8862 21.75 39.2721 20.5512 40.044 19.7293C40.8158 18.9075 41.5556 18.4728 42.2621 18.4228V18.4215ZM42.7314 19.9742C42.107 20.3691 41.639 20.7961 41.3261 21.2551C40.9812 21.7474 40.7671 22.4385 40.6851 23.3257C40.4876 25.0836 40.603 26.2747 41.03 26.8991C41.4249 27.5402 41.7198 27.9094 41.9172 28.0082C42.3775 28.3697 42.8788 28.4031 43.4199 28.1069C43.9622 27.8607 44.3315 27.4248 44.5289 26.8004C44.611 26.5709 44.6764 26.3119 44.7264 26.0247C44.7751 25.7375 44.8161 25.4374 44.8495 25.1246C44.8828 24.7964 44.9072 24.472 44.9238 24.1515C44.9405 23.8309 44.9482 23.5155 44.9482 23.2027C44.9315 22.8911 44.9033 22.5949 44.8623 22.3154C44.8213 22.0359 44.7674 21.7654 44.702 21.5025C44.5546 21.0422 44.3648 20.673 44.1353 20.3935C44.0699 20.3614 43.9917 20.3242 43.9007 20.2832C43.8096 20.2422 43.6994 20.1973 43.5686 20.1473C43.4365 20.114 43.3019 20.0819 43.1622 20.0486C43.0224 20.0152 42.8788 19.9909 42.7314 19.9742ZM52.8834 17.6087C52.8988 18.2984 52.9078 19.0049 52.9078 19.728V21.9949C52.8911 22.8001 52.8834 23.6129 52.8834 24.4348V26.9978C52.8347 28.7223 52.809 30.4891 52.809 32.2957C52.7924 33.1996 52.7847 34.0984 52.7847 34.9946V37.7422L51.0602 37.6435C51.0269 36.5588 51.0025 35.5151 50.9858 34.5138C50.9692 33.5124 50.9615 32.5585 50.9615 31.6559C50.9615 30.7532 50.9653 29.8288 50.9743 28.9826C50.982 28.1364 50.9948 27.294 51.0115 26.4568V21.8974C51.0115 21.1576 51.0076 20.4396 50.9987 19.7409C50.991 19.0434 50.9781 18.3484 50.9615 17.6587L52.8834 17.6099V17.6087Z" fill="white"/>
<path d="M77.379 30.793H74.6929C74.0351 30.793 73.353 30.7891 72.6478 30.7801C71.9414 30.7725 71.2106 30.7596 70.4541 30.743C70.4054 31.0391 70.3797 31.3097 70.3797 31.5558C70.363 31.7033 70.3554 31.8482 70.3554 31.9866V32.4174C70.3066 32.697 70.281 32.9521 70.281 33.1816C70.2643 33.3137 70.2566 33.4368 70.2566 33.5509V33.847C70.24 34.4061 70.24 34.8651 70.2566 35.2266V36.2613C70.29 36.5896 70.3143 36.9178 70.331 37.2473C70.331 37.4114 70.3348 37.6127 70.3438 37.8512C70.3515 38.0897 70.3566 38.3564 70.3566 38.6525L68.4347 38.5782C68.4347 38.282 68.4308 38.0115 68.4219 37.7653C68.4129 37.5191 68.4091 37.3127 68.4091 37.1499C68.3924 36.9691 68.3847 36.7844 68.3847 36.596V32.8867C68.3847 32.788 68.3808 32.6777 68.3719 32.5546C68.3629 32.4316 68.3514 32.3046 68.3347 32.1726V30.743C67.4808 30.7596 66.6794 30.7725 65.9319 30.7801C65.1845 30.7891 64.4652 30.793 63.7754 30.793C63.0856 30.793 62.5394 30.7891 62.1368 30.7801C61.7342 30.7725 61.4675 30.7596 61.3354 30.743L61.4342 29.0916H64.219C64.5972 29.0749 64.987 29.0633 65.3896 29.0544C65.7922 29.0467 66.223 29.0339 66.6833 29.0172C67.1269 29.0172 67.5744 29.0133 68.0257 29.0044C68.477 28.9967 68.9335 28.9916 69.3937 28.9916H70.7862C71.2375 28.9916 71.6862 28.9839 72.1286 28.9672C72.5555 28.9672 72.9748 28.9633 73.3851 28.9544C73.7954 28.9467 74.1813 28.9339 74.5428 28.9172H75.566C75.8699 28.9172 76.1532 28.9095 76.4161 28.8928C76.6622 28.8928 76.8725 28.889 77.0443 28.88C77.2174 28.8723 77.3443 28.8672 77.4264 28.8672L77.3777 30.7891L77.379 30.793ZM62.9138 25.5926C63.1112 25.4118 63.3484 25.1695 63.6279 24.8656C63.9074 24.5617 64.219 24.1797 64.5639 23.7194C64.9088 23.2757 65.2537 22.8154 65.5986 22.3398C65.9435 21.8641 66.2961 21.3782 66.6576 20.8858C67.0359 20.3935 67.409 19.9088 67.7795 19.4319C68.1488 18.9562 68.5142 18.4869 68.8758 18.0266C69.2207 17.583 69.5322 17.2048 69.8117 16.8932C70.0912 16.5816 70.3374 16.3265 70.5515 16.129L72.0542 17.3368C71.7414 17.6984 71.4298 18.0843 71.1182 18.4946L69.9348 19.9729C70.231 20.2858 70.5913 20.6345 71.0195 21.0204C71.4465 21.4064 71.9311 21.8384 72.4735 22.3141C73.5415 23.2834 74.7403 24.1373 76.0712 24.8771L74.839 26.4542C74.3133 26.0926 73.78 25.7067 73.2376 25.2964C72.6953 24.8861 72.1619 24.4425 71.6362 23.9655C71.0772 23.4899 70.5605 23.0373 70.0835 22.6103C69.6066 22.1833 69.1719 21.7641 68.777 21.3538C68.5629 21.6333 68.3462 21.9077 68.1244 22.1795C67.9026 22.45 67.6936 22.709 67.4962 22.9552C67.282 23.218 67.0731 23.4642 66.8679 23.695C66.6628 23.9258 66.4692 24.1553 66.2884 24.3848C66.0743 24.6476 65.873 24.8861 65.6845 25.099C65.496 25.3131 65.3191 25.5092 65.155 25.69C64.9908 25.8875 64.8344 26.0644 64.687 26.2195C64.5395 26.376 64.4164 26.5196 64.3177 26.6503L62.9125 25.5913L62.9138 25.5926Z" fill="white"/>
<path d="M96.305 37.1755C95.5165 37.2242 94.3497 37.2499 92.806 37.2499C92.0175 37.2332 91.2123 37.2255 90.3917 37.2255H81.0397C80.4897 37.2255 80.0499 37.2422 79.7217 37.2742V35.2536H80.5346C80.8461 35.2536 81.1833 35.2613 81.5449 35.2779C81.9231 35.2779 82.3167 35.2818 82.7283 35.2907C83.1386 35.2984 83.5745 35.3036 84.0348 35.3036C83.9861 34.8112 83.9605 34.2522 83.9605 33.6278C83.9438 33.2996 83.931 32.9752 83.9233 32.6547C83.9143 32.3341 83.9105 32.0187 83.9105 31.7059C83.9105 31.3776 83.9066 31.0648 83.8976 30.7699C83.8887 30.4737 83.8848 30.1788 83.8848 29.8827C83.8681 29.6031 83.8605 29.3493 83.8605 29.1185V28.5274L85.8324 28.38C85.8324 28.5274 85.8362 28.712 85.8452 28.9339C85.8529 29.1557 85.8657 29.4147 85.8824 29.7096C85.8824 30.0057 85.8862 30.3135 85.8952 30.634C85.9029 30.9545 85.908 31.2789 85.908 31.6071C85.9247 32.2969 85.9491 32.9624 85.9824 33.6034C85.9824 33.9317 85.9863 34.2355 85.9952 34.515C86.0029 34.7946 86.0081 35.0574 86.0081 35.3036C86.2209 35.3202 86.435 35.3318 86.6491 35.3407C86.862 35.3484 87.0761 35.3536 87.2902 35.3536H88.6211C88.8185 35.3702 89.0275 35.3818 89.2493 35.3908C89.4711 35.3984 89.6891 35.4036 89.9019 35.4036H91.1584C91.1097 34.9112 91.0841 34.3522 91.0841 33.7278C91.0674 33.3996 91.0597 33.0752 91.0597 32.7547V31.8059C91.0597 31.4776 91.0559 31.1609 91.0469 30.8571C91.0379 30.5532 91.0341 30.2455 91.0341 29.9327C91.0174 29.6365 91.0097 29.3698 91.0097 29.1313V28.5274L92.9816 28.38V31.6571C92.9816 32.002 92.9778 32.3431 92.9688 32.6803C92.9599 33.0175 92.956 33.3496 92.956 33.6778C92.9393 34.0227 92.9317 34.3355 92.9317 34.6138V35.4023H96.3563L96.3075 37.1768L96.305 37.1755ZM81.1 24.4348C80.8205 24.0732 80.632 23.4822 80.5333 22.6603C80.4346 21.8551 80.6397 21.0256 81.1487 20.1717C81.4449 19.6793 82.0116 19.2601 82.8488 18.9152C83.654 18.6036 84.599 18.3818 85.6824 18.2497C86.7671 18.1189 87.8915 18.0933 89.0583 18.1754C90.225 18.2741 91.3251 18.4715 92.3598 18.7664C93.1483 19.0459 93.765 19.4319 94.2087 19.9242C94.6523 20.4499 94.9805 21.0089 95.1946 21.6C95.3754 22.241 95.4165 22.8411 95.3177 23.3988C95.2023 23.9578 94.9639 24.4835 94.6036 24.9759C93.7497 25.9285 92.6816 26.4952 91.3995 26.676C90.7584 26.7747 90.1225 26.8324 89.4891 26.8491C88.857 26.8658 88.2287 26.8491 87.6043 26.8004C85.9619 26.7016 84.6477 26.4555 83.6617 26.0606C82.6424 25.699 81.9039 25.3054 81.4436 24.8771C81.3949 24.8771 81.3205 24.8028 81.2218 24.6553C81.0743 24.5079 81.0333 24.4335 81.0987 24.4335L81.1 24.4348ZM83.3668 24.0655C83.5963 24.1809 83.8681 24.3002 84.1797 24.4233C84.4913 24.5463 84.8285 24.6579 85.19 24.7553C85.9298 24.9861 86.6684 25.1092 87.4082 25.1246C88.6736 25.2233 89.7981 25.1823 90.7841 25.0015C91.6713 24.8541 92.4021 24.5412 92.9778 24.0655C93.6022 23.5399 93.7907 22.8257 93.5445 21.9218C93.2483 21.0679 92.6739 20.5166 91.82 20.2704C89.7006 19.6793 87.8851 19.5306 86.3735 19.8268C84.8451 20.1229 83.8271 20.5089 83.3181 20.9845C82.8091 21.4769 82.6527 22.0192 82.8501 22.6116C83.0309 23.2693 83.2027 23.754 83.3681 24.0655H83.3668Z" fill="white"/>
<path d="M101.996 17.6586C102.177 17.642 102.382 17.6343 102.613 17.6343C102.844 17.6343 103.089 17.651 103.353 17.683C103.845 17.7317 104.388 17.9535 104.98 18.3484C105.571 18.8408 106.039 19.7203 106.385 20.9845C106.681 22.2821 106.533 23.9168 105.941 25.8888C105.695 26.5785 105.382 27.1042 105.005 27.4658C104.595 27.844 104.168 28.1146 103.725 28.2787C103.264 28.4261 102.789 28.4595 102.295 28.3774C101.818 28.3287 101.415 28.1889 101.087 27.9581C100.036 27.3504 99.4115 26.5785 99.214 25.6413C98.9833 24.6399 98.8691 23.5052 98.8691 22.241C99.0166 20.7294 99.4025 19.6126 100.027 18.8895C100.601 18.2164 101.259 17.8048 101.999 17.6574L101.996 17.6586ZM102.145 19.21C101.569 19.4408 101.183 19.8268 100.987 20.3678C100.889 20.6307 100.806 20.9217 100.741 21.2422C100.676 21.5628 100.626 21.9038 100.594 22.2654C100.495 22.9398 100.487 23.5219 100.569 24.0155C100.603 24.2617 100.639 24.4835 100.681 24.681C100.722 24.8784 100.776 25.0502 100.841 25.199C100.906 25.331 100.972 25.4503 101.039 25.5567C101.104 25.6631 101.178 25.7657 101.26 25.8644C101.374 26.0785 101.507 26.226 101.655 26.308C102.066 26.867 102.6 26.9824 103.257 26.6529C103.881 26.3247 104.291 25.8567 104.489 25.2477C104.8 24.2463 104.899 23.186 104.785 22.0692C104.638 20.9525 104.382 20.0729 104.021 19.4319C103.922 19.3331 103.676 19.2434 103.281 19.1613C102.903 19.0959 102.525 19.1126 102.148 19.21H102.145ZM100.641 33.897C100.822 33.897 101.044 33.9009 101.307 33.9099C101.569 33.9188 101.873 33.9304 102.218 33.9471C102.563 33.9637 102.928 33.9804 103.314 33.9958C103.7 34.0124 104.107 34.0291 104.534 34.0445C105.421 34.0932 106.383 34.1189 107.417 34.1189C107.91 34.1355 108.415 34.1394 108.933 34.1317C109.451 34.124 109.971 34.1112 110.497 34.0945V33.8355C110.497 33.7458 110.505 33.6509 110.521 33.5522C110.521 33.4701 110.525 33.3791 110.534 33.2816C110.542 33.1829 110.547 33.0842 110.547 32.9854V31.8764H108.366C108.178 31.8764 107.984 31.8687 107.786 31.852C107.589 31.852 107.376 31.8482 107.145 31.8392C106.915 31.8315 106.668 31.8187 106.406 31.802C106.143 31.802 105.888 31.8059 105.641 31.8148C105.395 31.8238 105.157 31.8277 104.927 31.8277C104.681 31.8443 104.443 31.8572 104.213 31.8648C103.982 31.8738 103.753 31.8777 103.523 31.8777C103.326 31.8943 103.132 31.9072 102.944 31.9148C102.755 31.9238 102.569 31.9277 102.389 31.9277H101.427L101.378 30.0545H103.252C103.481 30.0378 103.708 30.0262 103.93 30.0173C104.152 30.0096 104.386 30.0044 104.632 30.0044H106.185C106.809 30.0532 107.421 30.0993 108.021 30.1404C108.621 30.1814 109.199 30.2186 109.758 30.2506C110.333 30.284 110.817 30.316 111.212 30.3493C111.607 30.3827 111.91 30.4147 112.124 30.4481L112.075 35.8203C111.714 35.8203 111.339 35.8164 110.953 35.8074C110.567 35.7985 110.169 35.7869 109.758 35.7703C109.348 35.7369 108.937 35.7126 108.526 35.6959C108.115 35.6792 107.697 35.6626 107.27 35.6472C106.859 35.6138 106.448 35.5933 106.038 35.5856C105.626 35.5767 105.225 35.5651 104.83 35.5485C104.418 35.5151 104.037 35.4997 103.684 35.4997H102.71C102.71 35.5651 102.707 35.6305 102.698 35.6972C102.689 35.7626 102.685 35.8369 102.685 35.919C102.668 36.0011 102.66 36.1318 102.66 36.3139V36.5485C102.66 36.6383 102.668 36.7255 102.685 36.8075C102.685 36.9062 102.726 37.0614 102.808 37.2755C102.989 37.2755 103.243 37.2717 103.572 37.2627C103.9 37.2537 104.303 37.2499 104.78 37.2499C105.256 37.2332 105.749 37.2255 106.258 37.2255H109.487C110.029 37.2255 110.571 37.2332 111.114 37.2499C111.639 37.2499 112.12 37.2537 112.555 37.2627C112.989 37.2704 113.364 37.2755 113.677 37.2755L113.43 39H103.795C103.236 39 102.723 38.9872 102.255 38.9628C101.787 38.9384 101.381 38.9179 101.036 38.9013C101.019 38.8679 101.003 38.791 100.987 38.6666C100.971 38.5435 100.954 38.3743 100.939 38.1615C100.922 37.9307 100.905 37.6935 100.89 37.4473C100.873 37.2011 100.856 36.946 100.841 36.6832C100.776 36.1408 100.726 35.6074 100.694 35.0818C100.677 34.8189 100.665 34.5894 100.656 34.392C100.647 34.1945 100.644 34.0304 100.644 33.8996L100.641 33.897ZM113.184 17.1894C113.119 18.192 113.065 19.21 113.024 20.2447C112.983 21.2794 112.946 22.3141 112.913 23.3501C112.879 24.4015 112.855 25.4003 112.838 26.3439C112.821 27.2889 112.814 28.2043 112.814 29.0916L110.941 29.0428V27.8351C110.941 27.4081 110.948 26.9568 110.965 26.4798C110.965 26.0041 110.978 25.5067 111.002 24.9887C111.026 24.4707 111.047 23.9335 111.064 23.3745C111.08 22.8654 111.101 22.3475 111.125 21.8218C111.15 21.2961 111.17 20.7538 111.187 20.1947C111.22 19.6524 111.244 19.119 111.261 18.5933C111.278 18.0676 111.293 17.5497 111.31 17.0406L113.183 17.1881L113.184 17.1894Z" fill="white"/>
<path d="M25.2292 6.40749H24.1922C23.9398 6.40749 23.6767 6.40445 23.4015 6.39837C23.1263 6.39229 22.8344 6.38164 22.5242 6.36948C22.4846 6.90622 22.4557 7.40648 22.4375 7.87328C22.4193 8.34008 22.4284 8.68828 22.4664 8.92092L21.7092 8.94069C21.6955 8.76583 21.6848 8.57728 21.6757 8.37353C21.6666 8.16978 21.6605 7.95843 21.6605 7.73795C21.6468 7.28484 21.6575 6.8302 21.6894 6.371C21.3534 6.38469 21.0341 6.39381 20.7345 6.39989C20.4334 6.40597 20.1476 6.40901 19.8769 6.40901C19.3204 6.40901 19.0011 6.39685 18.9175 6.371L18.9464 5.75063H20.5216C20.6798 5.75063 20.847 5.74758 21.0219 5.7415C21.364 5.7415 21.7198 5.73238 22.0893 5.71261H22.6367C22.8146 5.71261 22.991 5.70957 23.1658 5.70349C23.3346 5.70349 23.4988 5.70349 23.66 5.69893C23.8212 5.69589 23.9732 5.69437 24.1162 5.69437H24.5191C24.6392 5.69437 24.7502 5.69132 24.8536 5.68524C24.9509 5.68524 25.033 5.68524 25.1015 5.68068C25.1699 5.67764 25.2201 5.67612 25.252 5.67612L25.2322 6.41357L25.2292 6.40749ZM20.7482 2.13177H21.2713C21.4522 2.13177 21.6423 2.12873 21.843 2.12265H22.3615C22.5135 2.12265 22.6413 2.12569 22.7446 2.13177C22.842 2.13177 22.8997 2.15154 22.9195 2.18955C22.9256 2.2154 22.9195 2.28079 22.8997 2.38418L22.7249 2.86923H22.5257C22.4573 2.86923 22.3858 2.86619 22.3067 2.86011C22.1456 2.86011 21.9768 2.85098 21.8019 2.83122H21.5449C21.4583 2.83122 21.3686 2.82817 21.2789 2.82209C21.1876 2.82209 21.0994 2.82209 21.0128 2.81753C20.9261 2.81449 20.8425 2.80993 20.7649 2.80233V3.15661C20.7649 3.26913 20.768 3.38165 20.774 3.49112C20.774 3.6006 20.774 3.70856 20.7786 3.81043C20.7816 3.91383 20.7832 4.01114 20.7832 4.10086H20.958C21.0356 4.10086 21.1298 4.09781 21.2393 4.09173C21.3488 4.09173 21.4628 4.09173 21.5784 4.08717C21.6955 4.08413 21.8141 4.08261 21.9372 4.08261H23.2175V3.62189C23.2175 3.46375 23.2206 3.3041 23.2267 3.1414C23.2267 2.98631 23.2266 2.82665 23.2312 2.66092C23.2343 2.4967 23.2358 2.33248 23.2358 2.17131C23.216 1.85504 23.2069 1.53117 23.2069 1.20121C23.2008 1.04004 23.1978 0.881902 23.1978 0.726808V0.261528L23.993 0.301062C23.993 0.418142 23.9915 0.547386 23.9884 0.688795C23.9854 0.831725 23.9839 0.98986 23.9839 1.16472C23.9778 1.34566 23.9732 1.52965 23.9687 1.71819C23.9656 1.90522 23.9611 2.0968 23.9535 2.28991C23.9474 2.47693 23.9398 2.66396 23.9337 2.84794C23.9276 3.03193 23.917 3.21439 23.9048 3.39533C23.885 3.7633 23.8759 4.06436 23.8759 4.297L23.8562 4.74252C23.6235 4.72275 23.3453 4.71363 23.0214 4.71363C22.8526 4.71971 22.6823 4.72427 22.5074 4.72883C22.3326 4.73187 22.1516 4.73643 21.9646 4.74404C21.6149 4.7638 21.2667 4.77293 20.917 4.77293C20.5551 4.78661 20.2631 4.77597 20.0442 4.74404C20.0442 4.55701 20.0427 4.36695 20.0396 4.17688C20.0366 3.98682 20.032 3.79371 20.0244 3.59908C20.0183 3.41206 20.0077 3.22199 19.9955 3.03193C19.9819 2.84186 19.9666 2.65483 19.9469 2.47389C19.9332 2.29295 19.9225 2.11657 19.9134 1.94475C19.9043 1.77293 19.8921 1.60719 19.88 1.44602C19.8602 1.12975 19.8511 0.840848 19.8511 0.582359L20.6463 0.513935C20.6524 0.649261 20.6615 0.784588 20.6706 0.916874C20.6798 1.04916 20.6889 1.18297 20.695 1.31981C20.7071 1.46274 20.7178 1.60111 20.7239 1.73644C20.7299 1.87176 20.736 2.00405 20.7436 2.13329L20.7482 2.13177Z" fill="white"/>
<path d="M32.464 8.20173C32.1341 8.25342 31.6779 8.28231 31.0971 8.2884C30.7991 8.2884 30.4995 8.28839 30.1954 8.29296C29.8913 8.296 29.5811 8.29752 29.2649 8.29752C28.9486 8.29752 28.6414 8.296 28.3434 8.29296C28.0454 8.28992 27.7519 8.2884 27.4615 8.2884C27.1832 8.28231 26.94 8.27927 26.7286 8.27927C26.5173 8.27927 26.3485 8.28535 26.2192 8.29904L26.2588 7.63913H29.1782C29.1721 7.56767 29.1645 7.48708 29.1584 7.39737C29.1523 7.30766 29.1447 7.2073 29.1386 7.0963C29.1326 6.98682 29.125 6.87583 29.1189 6.76635C29.1128 6.65687 29.1052 6.54283 29.0991 6.42727C29.093 6.31019 29.0854 6.19767 29.0793 6.08819C29.0733 5.97872 29.0657 5.87228 29.0596 5.76888C29.0535 5.67157 29.0489 5.58338 29.0444 5.50279C29.0413 5.4222 29.0398 5.35226 29.0398 5.29448L29.797 5.2367V5.43133C29.797 5.50887 29.8001 5.59554 29.8062 5.69286C29.8062 5.89965 29.8153 6.12013 29.835 6.35277V6.71617C29.835 6.83629 29.8381 6.95337 29.8442 7.07045C29.8442 7.19362 29.8442 7.30309 29.8487 7.40041C29.8518 7.49772 29.8533 7.58439 29.8533 7.66194C30.1118 7.66194 30.3627 7.66042 30.6044 7.65738C30.8462 7.65434 31.0849 7.64977 31.3176 7.64217C31.5441 7.62849 31.754 7.61632 31.9486 7.60264C32.1432 7.58895 32.3196 7.57071 32.4823 7.54486L32.4625 8.20477L32.464 8.20173ZM27.3049 1.2286C28.2811 1.19058 29.1599 1.17081 29.943 1.17081C30.7261 1.17081 31.4134 1.19058 32.0474 1.2286V2.86772C32.0474 3.01065 32.0459 3.14598 32.0428 3.27522C32.0398 3.40447 32.0383 3.53067 32.0383 3.65383C32.0322 3.777 32.0307 3.88495 32.0337 3.97923C32.0368 4.0735 32.0413 4.15257 32.0489 4.21643V4.38064C32.0489 4.43234 32.0352 4.47188 32.0109 4.49773C31.9912 4.53574 31.9531 4.56615 31.8938 4.58439C31.8163 4.60416 31.7159 4.61329 31.5928 4.61329C31.4316 4.62697 31.2628 4.63761 31.088 4.64674C30.9131 4.65586 30.7322 4.66194 30.5451 4.66194C30.3581 4.66802 30.1711 4.67106 29.9871 4.67106H29.4397C29.2588 4.67715 29.0793 4.68171 28.9014 4.68627C28.7235 4.68931 28.5502 4.69083 28.3829 4.69083C28.2157 4.69083 28.0484 4.69083 27.9025 4.68627C27.7565 4.68323 27.6257 4.67867 27.5102 4.67106L26.9096 4.70908C26.9035 4.64522 26.8959 4.56007 26.8898 4.45667C26.8837 4.35327 26.8761 4.23011 26.87 4.0887C26.8639 3.94729 26.8563 3.80285 26.8503 3.65687C26.8442 3.5109 26.8366 3.36037 26.8305 3.20528C26.8305 3.05018 26.829 2.89661 26.8259 2.74456C26.8229 2.59251 26.8214 2.44197 26.8214 2.29296C26.8153 2.14395 26.8138 2.01015 26.8168 1.89002C26.8198 1.7699 26.8244 1.66803 26.832 1.5844C26.8122 1.51293 26.8092 1.44299 26.8229 1.37152C26.8229 1.32591 26.8457 1.29094 26.8913 1.26509C26.9293 1.25292 26.9749 1.24532 27.0266 1.24532C27.0586 1.24532 27.0981 1.24532 27.1437 1.24076C27.1893 1.23772 27.2441 1.23316 27.3079 1.22555L27.3049 1.2286ZM27.5086 4.04157C27.8386 4.06133 28.167 4.0735 28.4924 4.0811C28.8193 4.08718 29.1508 4.08718 29.4868 4.0811C29.8168 4.07502 30.1331 4.06438 30.4372 4.05221C30.7413 4.04005 31.0378 4.02332 31.3297 4.00355C31.3297 3.96402 31.3282 3.90928 31.3252 3.83934C31.3221 3.76787 31.3176 3.6812 31.31 3.57781C31.3039 3.48049 31.2963 3.38014 31.2902 3.27674C31.2841 3.17335 31.2765 3.06387 31.2704 2.94679C31.2643 2.84947 31.2567 2.75064 31.2507 2.65029C31.2446 2.54993 31.237 2.44806 31.2309 2.34466C31.2248 2.24735 31.2187 2.16068 31.2157 2.08313C31.2126 2.00558 31.2111 1.94172 31.2111 1.8885H29.3789C29.204 1.8885 29.0353 1.89002 28.8695 1.89306C28.7053 1.89611 28.5411 1.89763 28.3799 1.89763C28.2187 1.90371 28.0652 1.90675 27.9192 1.90675H27.5071V4.04005L27.5086 4.04157Z" fill="white"/>
<path d="M34.2865 0.831729V1.19513C34.2865 1.33502 34.2896 1.49468 34.2956 1.67562C34.2956 2.05119 34.3048 2.43284 34.3245 2.82058V4.67258C34.4219 4.66649 34.5283 4.66193 34.6438 4.65737C34.7609 4.65433 34.8826 4.65281 35.0118 4.65281H37.8628L37.805 5.31272C37.6819 5.3188 37.5557 5.32336 37.4264 5.32792C37.2972 5.33096 37.1679 5.32944 37.0387 5.32336C36.9094 5.32336 36.7771 5.32184 36.6403 5.3188C36.505 5.31576 36.3681 5.31424 36.2328 5.31424C36.0975 5.31424 35.9469 5.31576 35.801 5.3188C35.655 5.32184 35.5045 5.3264 35.3494 5.334C35.1943 5.34009 35.0331 5.34769 34.8643 5.35377C34.6955 5.35985 34.5222 5.36746 34.3413 5.37354C34.2637 5.39331 34.1892 5.40243 34.1177 5.40243C34.0402 5.41611 33.9566 5.40547 33.8653 5.37354C33.8 5.36746 33.7483 5.32792 33.7102 5.25646C33.6646 5.21084 33.6418 5.11049 33.6418 4.95539C33.6221 4.76077 33.6129 4.47035 33.6129 4.08261C33.6068 3.89559 33.6023 3.70096 33.5977 3.50025C33.5947 3.29954 33.5901 3.08971 33.5825 2.86923V0.833249H34.2804L34.2865 0.831729ZM35.024 6.20527C36.0002 6.16573 36.8304 6.14749 37.5161 6.14749C38.2019 6.14749 38.8314 6.16725 39.4654 6.20527V7.46578C39.4654 7.55701 39.4639 7.6452 39.4609 7.73187C39.4578 7.81854 39.4563 7.90825 39.4563 7.99796C39.4502 8.07551 39.4487 8.15002 39.4517 8.22148C39.4548 8.29295 39.4593 8.36441 39.467 8.43436V8.59857C39.467 8.64419 39.4533 8.6822 39.4274 8.71565C39.4137 8.75519 39.3757 8.78408 39.3103 8.80232C39.2328 8.82209 39.1355 8.83121 39.0199 8.83121C38.3661 8.86314 37.6971 8.88291 37.0128 8.88899H36.0473C35.7523 8.88899 35.4832 8.88595 35.2369 8.87987L34.6058 8.91788C34.5921 8.78256 34.5815 8.61834 34.5724 8.42827C34.5633 8.23821 34.5511 8.02229 34.5389 7.78357C34.5328 7.53725 34.5283 7.31373 34.5237 7.10998C34.5207 6.90623 34.5222 6.72377 34.5283 6.56259C34.5085 6.4075 34.5283 6.31018 34.5861 6.27217C34.6317 6.24632 34.7761 6.22351 35.0225 6.20375L35.024 6.20527ZM35.3053 8.26102C35.6352 8.28078 35.9515 8.29295 36.2556 8.29903C36.5597 8.30511 36.8501 8.30511 37.1284 8.29903C37.4006 8.28534 37.6743 8.2747 37.9525 8.26558C38.2308 8.25645 38.5151 8.24125 38.8055 8.22148C38.8055 8.04054 38.7964 7.79421 38.7766 7.48403C38.7706 7.32893 38.7614 7.18601 38.7523 7.05676C38.7432 6.92752 38.7341 6.81043 38.728 6.70704C38.6048 6.70704 38.4756 6.70856 38.3402 6.7116C38.2049 6.71464 38.065 6.7192 37.9236 6.72681C37.7807 6.73289 37.6347 6.74201 37.4827 6.75113C37.3306 6.76026 37.1801 6.77242 37.0311 6.78459C36.7209 6.80435 36.4198 6.8226 36.1294 6.84237C35.9804 6.85605 35.839 6.86517 35.7021 6.87126C35.5668 6.87734 35.433 6.88038 35.3038 6.88038V8.25797L35.3053 8.26102ZM38.1076 5.72934C38.1137 5.52255 38.1198 5.30968 38.1274 5.0892C38.1335 4.86872 38.1395 4.63912 38.1471 4.4004C38.1532 4.16168 38.1578 3.91992 38.1623 3.67815C38.1654 3.43639 38.1669 3.19158 38.1669 2.94526C38.173 2.71262 38.1775 2.4815 38.1821 2.2519C38.1852 2.0223 38.1867 1.79726 38.1867 1.57831C38.1867 1.35935 38.1897 1.14192 38.1958 0.947289C38.2019 0.752662 38.2125 0.568678 38.2247 0.393818L38.8451 0.355804C38.8451 0.562596 38.8435 0.77699 38.8405 1.00051C38.8375 1.22402 38.8359 1.45514 38.8359 1.69387C38.8299 1.93259 38.8268 2.17435 38.8268 2.41612V3.82716C38.8268 4.05372 38.8299 4.28028 38.8359 4.50532C38.8359 4.95843 38.8451 5.35225 38.8648 5.68829L38.1076 5.7263V5.72934Z" fill="white"/>
<path d="M43.8309 7.18448C43.8249 7.04916 43.8173 6.88646 43.8112 6.69944C43.8051 6.51241 43.7944 6.29802 43.7823 6.05929C43.7564 5.59401 43.7367 5.11201 43.7245 4.61479C43.6926 4.12975 43.6728 3.68423 43.6667 3.27673C43.647 2.889 43.647 2.62747 43.6667 2.49062L44.3844 2.47085C44.3525 2.76127 44.3418 3.12772 44.3555 3.56715C44.3555 4.02027 44.3646 4.46883 44.3844 4.91586C44.3966 5.14242 44.4103 5.36137 44.4224 5.57577C44.4346 5.78864 44.4452 5.99999 44.4513 6.20679C44.4635 6.41358 44.4741 6.59908 44.4802 6.76482C44.4863 6.92904 44.4924 7.07653 44.5 7.20577C44.5319 7.20577 44.5623 7.20729 44.5927 7.21033C44.6216 7.21337 44.6551 7.21489 44.6946 7.21489C44.7265 7.22098 44.7615 7.22402 44.7965 7.22402H45.3439C45.3499 6.97161 45.3697 6.64166 45.4016 6.23416C45.4275 5.84034 45.4473 5.40699 45.4594 4.9341C45.4853 4.48099 45.505 4.03243 45.5172 3.5854C45.5233 3.36492 45.5278 3.16269 45.5324 2.97415C45.5355 2.78712 45.537 2.61226 45.537 2.45109H46.2547C46.2547 2.51647 46.2531 2.61378 46.2501 2.74759C46.2471 2.87988 46.2425 3.05017 46.2349 3.25697C46.2288 3.67055 46.209 4.12975 46.1771 4.63456C46.1634 4.88697 46.1497 5.13634 46.133 5.38114C46.1163 5.62747 46.1026 5.86923 46.0889 6.10795C46.0494 6.593 46.0311 6.96401 46.0311 7.2225C46.1087 7.22858 46.1878 7.23314 46.2683 7.2377C46.3489 7.24074 46.431 7.24226 46.5162 7.24226H46.9723V7.88241C46.8887 7.88241 46.7777 7.88088 46.6424 7.87784C46.5071 7.8748 46.352 7.87328 46.1771 7.87328C45.9962 7.8672 45.8061 7.86264 45.61 7.85808C45.4123 7.85504 45.2101 7.85047 45.0033 7.84287C44.7965 7.82919 44.5958 7.8231 44.4027 7.8231H43.3307C43.1847 7.8231 43.0646 7.82919 42.9673 7.84287V7.18296H43.8309V7.18448ZM43.0737 1.13279C43.1513 1.13279 43.2471 1.13431 43.3596 1.13735C43.4721 1.14039 43.5998 1.14191 43.7428 1.14191C43.8857 1.148 44.0332 1.15104 44.1883 1.15104H44.6824C44.8497 1.15712 45.023 1.16168 45.2009 1.16624C45.3788 1.16928 45.5583 1.1708 45.7392 1.1708H46.7093L46.6895 1.81095H44.9242C44.7433 1.81095 44.5654 1.81247 44.3905 1.81551C44.2156 1.81855 44.0438 1.82007 43.8766 1.82007C43.5527 1.82615 43.2851 1.8368 43.0722 1.84896V1.13127L43.0737 1.13279ZM48.5628 0.618853C48.5689 0.891027 48.5719 1.16776 48.5719 1.45362V2.34617C48.5659 2.66244 48.5628 2.98327 48.5628 3.30562V4.31373C48.5431 4.99189 48.5339 5.68829 48.5339 6.39837C48.5278 6.75418 48.5248 7.10846 48.5248 7.4597V8.54079L47.8467 8.50278C47.833 8.07551 47.8238 7.66497 47.8178 7.27115C47.8117 6.87734 47.8086 6.50177 47.8086 6.14596C47.8086 5.79016 47.8086 5.42676 47.8132 5.09376C47.8162 4.76077 47.8208 4.42929 47.8284 4.09934V2.30512C47.8284 2.0147 47.8269 1.73188 47.8238 1.45666C47.8208 1.18145 47.8162 0.909274 47.8086 0.6371L48.5659 0.617332L48.5628 0.618853Z" fill="white"/>
<path d="M55.3808 8.20172C55.1482 8.22756 54.9034 8.25037 54.6479 8.27014C54.3925 8.28991 54.1264 8.30207 53.8481 8.30967C53.5699 8.30967 53.2947 8.30967 53.024 8.31423C52.7518 8.31728 52.4873 8.3188 52.2288 8.3188C51.6859 8.29903 51.1918 8.28991 50.7447 8.28991C50.5182 8.28382 50.3144 8.28078 50.1335 8.28078C49.9525 8.28078 49.7974 8.28687 49.6682 8.30055L49.6484 7.64064C49.9845 7.64064 50.3859 7.64976 50.8512 7.66953C51.0777 7.67561 51.3134 7.68169 51.5597 7.6893C51.8061 7.69538 52.0569 7.70602 52.317 7.71819C52.8279 7.71819 53.354 7.70906 53.8983 7.6893C54.435 7.66953 54.9353 7.62087 55.4021 7.54333L55.3823 8.20324L55.3808 8.20172ZM50.319 6.2524C50.3129 6.12316 50.3053 5.95286 50.2992 5.74302C50.2931 5.53319 50.2855 5.28231 50.2795 4.99189C50.2734 4.70147 50.2658 4.41105 50.2597 4.12367C50.2536 3.83629 50.246 3.54282 50.2399 3.24632C50.2338 2.9559 50.2262 2.67765 50.2202 2.41155C50.2141 2.14698 50.2065 1.89457 50.2004 1.65433C50.1943 1.41561 50.1897 1.22554 50.1852 1.08718C50.1821 0.948808 50.1806 0.856056 50.1806 0.81044H50.9759C51.1629 0.81044 51.356 0.81196 51.5521 0.815001C51.7498 0.818043 51.9551 0.822604 52.1679 0.830206C52.3687 0.830206 52.5648 0.831727 52.7594 0.834768C52.9541 0.837809 53.1472 0.842371 53.3418 0.849974C53.5288 0.856056 53.69 0.863658 53.8223 0.86974C53.9546 0.875823 54.0625 0.883425 54.1477 0.889507L54.099 1.58743C53.9956 1.57526 53.8831 1.56462 53.7599 1.55854C53.6368 1.55246 53.5045 1.54942 53.3631 1.54942C53.2217 1.54942 53.0772 1.55094 52.9313 1.55398C52.7853 1.55702 52.6393 1.56158 52.4903 1.56918C52.3352 1.57526 52.1892 1.58287 52.0539 1.58895C51.9186 1.59503 51.7848 1.60263 51.6555 1.60872C51.4031 1.62848 51.21 1.62848 51.0732 1.60872C51.0793 1.76989 51.0838 1.94475 51.0884 2.13178C51.0914 2.3188 51.0929 2.51951 51.0929 2.73238V4.00354C51.0929 4.20425 51.0914 4.3928 51.0884 4.5707C51.0853 4.7486 51.0838 4.9113 51.0838 5.06031C51.0777 5.3705 51.0869 5.5484 51.1127 5.59401C51.2617 5.58793 51.5004 5.56817 51.8304 5.53623C52.1345 5.5043 52.4416 5.48454 52.7518 5.47845C52.9206 5.46629 53.0833 5.45565 53.2414 5.44956C53.3996 5.44348 53.5592 5.4374 53.7219 5.4298C53.877 5.42371 54.0215 5.41915 54.1538 5.41459C54.286 5.41155 54.4077 5.41003 54.5172 5.41003L54.4974 6.06994C54.394 6.07602 54.2678 6.08362 54.1188 6.08971C53.9698 6.09579 53.8025 6.10643 53.614 6.11859C53.4193 6.12468 53.2217 6.1338 53.0179 6.14292C52.8142 6.15205 52.6059 6.16117 52.393 6.16725C52.1923 6.18094 51.9931 6.19158 51.7969 6.2007C51.5993 6.20983 51.4046 6.21591 51.21 6.21591C51.0093 6.22199 50.8344 6.22959 50.687 6.23568C50.5379 6.24176 50.4148 6.24936 50.319 6.25544V6.2524ZM51.4913 3.17942H51.7772C51.8973 3.17942 52.0372 3.17638 52.1984 3.1703C52.5146 3.1703 52.8385 3.16117 53.1685 3.14141C53.3372 3.13532 53.5014 3.13076 53.6626 3.1262C53.8238 3.12316 53.9819 3.12164 54.1385 3.12164H54.7589L54.7209 3.81956H53.1107C52.9556 3.82564 52.805 3.8302 52.6591 3.83477C52.5131 3.83781 52.3702 3.83933 52.2272 3.83933C52.0843 3.83933 51.9551 3.83781 51.8395 3.83477C51.7224 3.83172 51.6236 3.82716 51.5384 3.81956L51.4898 3.17942H51.4913Z" fill="white"/>
<path d="M56.6035 7.60111C56.6096 7.4521 56.6157 7.25595 56.6233 7.00962C56.6294 6.7633 56.6354 6.47288 56.6431 6.13684C56.6491 5.80689 56.6537 5.47237 56.6583 5.13329C56.6613 4.79422 56.6628 4.44906 56.6628 4.10086C56.6689 3.75114 56.6719 3.42574 56.6719 3.12164V2.24886C56.6659 1.9706 56.6628 1.75317 56.6628 1.59351V1.28788L57.4976 1.26812C57.5097 1.59807 57.5097 2.03142 57.4976 2.56817C57.4915 3.10491 57.4717 3.66143 57.4398 4.23618C57.4261 4.5266 57.414 4.80486 57.4018 5.07095C57.3881 5.33552 57.3759 5.59401 57.3638 5.84642C57.3501 6.09883 57.341 6.31626 57.3349 6.50177C57.3288 6.68575 57.3258 6.83324 57.3258 6.94272C57.6937 6.90319 58.1605 6.86517 58.7231 6.82564C59.272 6.78763 59.8681 6.76786 60.5082 6.76786V7.38824H60.0764C59.9243 7.38824 59.7616 7.39432 59.5868 7.408C59.2371 7.41408 58.8828 7.43385 58.5194 7.46578C58.3384 7.47186 58.159 7.48403 57.9811 7.49923C57.8032 7.51596 57.6299 7.52964 57.4626 7.54333C57.1068 7.56309 56.8225 7.58286 56.6096 7.60111H56.6035ZM61.8402 0.618853C61.8463 0.891027 61.8493 1.16776 61.8493 1.45362V2.34617C61.8432 2.66244 61.8402 2.98327 61.8402 3.30562V4.31373C61.8204 4.99189 61.8113 5.68829 61.8113 6.39837C61.8052 6.75418 61.8022 7.10846 61.8022 7.4597V8.54079L61.124 8.50278C61.1119 8.07551 61.1012 7.66497 61.0951 7.27115C61.0891 6.87734 61.086 6.50177 61.086 6.14596C61.086 5.79016 61.086 5.42676 61.0906 5.09376C61.0936 4.76077 61.0982 4.42929 61.1058 4.09934V2.30512C61.1058 2.0147 61.1043 1.73188 61.1012 1.45666C61.0982 1.18145 61.0936 0.909274 61.086 0.6371L61.8433 0.617332L61.8402 0.618853Z" fill="white"/>
<path d="M69.1525 8.20172C68.8226 8.25342 68.3664 8.28231 67.7856 8.28839C67.4875 8.28839 67.188 8.28839 66.8839 8.29295C66.5798 8.29599 66.2696 8.29751 65.9533 8.29751C65.6371 8.29751 65.3299 8.29599 65.0319 8.29295C64.7339 8.28991 64.4404 8.28839 64.15 8.28839C63.8717 8.28231 63.6284 8.27926 63.4171 8.27926C63.2057 8.27926 63.037 8.28535 62.9077 8.29903L62.9457 7.63912C63.2179 7.61936 63.6284 7.61936 64.1774 7.63912C64.4495 7.6452 64.7278 7.64977 65.0167 7.65433C65.3041 7.65737 65.6036 7.65889 65.9138 7.65889C66.224 7.65889 66.5296 7.65737 66.8307 7.65433C67.1317 7.65129 67.4298 7.64977 67.7278 7.64977C68.0182 7.64368 68.2843 7.63 68.523 7.61175C68.7617 7.59351 68.9792 7.56918 69.1723 7.54333L69.1525 8.20324V8.20172ZM63.1206 5.42828C63.3015 5.2595 63.4794 5.08768 63.6543 4.90978C63.8291 4.73188 63.9994 4.54333 64.1682 4.34262C64.3355 4.148 64.4951 3.95945 64.6426 3.77547C64.7916 3.59148 64.9331 3.40902 65.0699 3.22808C65.1277 3.1186 65.187 2.9924 65.2448 2.84947C65.3025 2.70654 65.3573 2.5484 65.409 2.37354C65.5063 2.04359 65.593 1.63609 65.6705 1.15104L66.408 1.26812C66.3943 1.41713 66.3791 1.5631 66.3593 1.70451C66.3395 1.84744 66.3198 1.98277 66.3015 2.11201C66.2437 2.38419 66.1844 2.63507 66.1267 2.86923C66.2301 3.04409 66.4019 3.24784 66.6406 3.48048C66.7501 3.58388 66.8596 3.69184 66.9706 3.80588C67.08 3.9184 67.1971 4.03092 67.3203 4.14039C67.5392 4.37303 67.7734 4.59655 68.0182 4.80942C68.1353 4.9189 68.2508 5.0223 68.3679 5.11961C68.485 5.21693 68.5945 5.30664 68.6979 5.39179L68.2235 6.01216C67.7187 5.67612 67.2534 5.29751 66.8276 4.87785C66.6148 4.67106 66.4186 4.46883 66.2407 4.27116C66.0628 4.07349 65.9001 3.88494 65.7511 3.704C65.5899 3.91688 65.4333 4.12063 65.2813 4.31525C65.1292 4.50988 64.9787 4.69386 64.8297 4.86872C64.6746 5.04358 64.5043 5.22605 64.3203 5.41611C64.1363 5.60618 63.931 5.80537 63.7045 6.01216L63.1221 5.4298L63.1206 5.42828Z" fill="white"/>
<path d="M76.4653 3.91535C76.6203 3.92144 76.777 3.926 76.9351 3.93056C77.0932 3.9336 77.2498 3.93512 77.4049 3.93512H78.2291C78.3583 3.9412 78.4723 3.94576 78.5727 3.95033C78.6731 3.95337 78.7643 3.95489 78.8494 3.95489H79.1885L79.1688 4.61479H78.7612C78.5742 4.61479 78.3309 4.61175 78.0344 4.60567C77.7364 4.60567 77.4247 4.60567 77.0978 4.60111C76.7709 4.59807 76.4333 4.59655 76.0836 4.59655H74.1145C73.8043 4.59655 73.5489 4.59807 73.3482 4.60111C73.1475 4.60415 73.0015 4.60871 72.9118 4.61632L72.854 3.93816H74.7988C74.9827 3.93816 75.1759 3.93512 75.3766 3.92904C75.5712 3.92904 75.7582 3.92752 75.9391 3.92448C76.1201 3.92143 76.295 3.91991 76.4622 3.91991L76.4653 3.91535ZM73.4394 6.88342C73.5109 6.88342 73.6082 6.88494 73.7298 6.88798C73.853 6.89102 74.005 6.89558 74.186 6.90319C74.3608 6.90927 74.5448 6.91687 74.7395 6.92295C74.9341 6.92904 75.1378 6.93664 75.3507 6.94272C75.7962 6.96249 76.2661 6.97161 76.7572 6.97161C76.9959 6.97769 77.227 6.97921 77.4505 6.97617C77.6741 6.97313 77.8885 6.96857 78.0953 6.96097C78.1074 6.79219 78.115 6.64622 78.115 6.52001C78.115 6.39381 78.1089 6.25088 78.0953 6.08818H75.8266C75.6062 6.08818 75.3918 6.0897 75.1819 6.09275C74.9721 6.09579 74.7699 6.10035 74.5752 6.10795C74.3745 6.11403 74.2027 6.11859 74.0613 6.12316C73.9184 6.1262 73.8028 6.12772 73.7116 6.12772L73.7314 5.4298H74.0948C74.259 5.4298 74.4688 5.42676 74.7197 5.42067C74.966 5.42067 75.2199 5.42067 75.486 5.41611C75.7506 5.41307 76.0289 5.41155 76.3208 5.41155C76.6127 5.41155 76.8864 5.41307 77.1449 5.41611C77.4034 5.41915 77.6558 5.42371 77.9006 5.43132C78.147 5.4374 78.3431 5.44804 78.4921 5.46021C78.6411 5.47389 78.7476 5.48606 78.8129 5.49822V5.86619C78.8129 5.94373 78.8114 6.01976 78.8084 6.09427C78.8053 6.16877 78.8008 6.24176 78.7932 6.31322C78.7734 6.50025 78.7643 6.66903 78.7643 6.81804C78.7582 6.89558 78.7552 6.97009 78.7552 7.04155V7.2453C78.7491 7.25899 78.7415 7.27571 78.7354 7.29852C78.7293 7.32133 78.7217 7.34566 78.7156 7.37151C78.7095 7.39128 78.7035 7.41104 78.6959 7.42929C78.6898 7.44906 78.6822 7.4673 78.6761 7.48707C78.67 7.50683 78.6579 7.52356 78.6426 7.54029C78.6259 7.55701 78.6122 7.5707 78.5986 7.58438C78.5788 7.59046 78.5545 7.59959 78.5256 7.60871C78.4967 7.61783 78.4587 7.62392 78.4146 7.62392C78.1241 7.62392 77.7942 7.61479 77.4247 7.59503C77.2377 7.58134 77.0491 7.57222 76.8621 7.56614C76.6751 7.56005 76.4865 7.55245 76.2995 7.54637C76.0988 7.53268 75.9057 7.52508 75.7172 7.52204C75.5301 7.519 75.3446 7.51444 75.1637 7.50684C74.9827 7.49315 74.814 7.48707 74.6589 7.48707H74.2514C74.2453 7.62848 74.2438 7.7562 74.2468 7.87024C74.2499 7.98276 74.2651 8.12113 74.2909 8.2823H77.1221C77.3548 8.2823 77.5813 8.28838 77.8003 8.30207C78.0268 8.30815 78.2275 8.31271 78.4009 8.31728C78.5757 8.32032 78.7248 8.32184 78.8464 8.32184L78.7293 8.99999C78.6062 8.99999 78.4541 8.99847 78.2732 8.99543C78.0922 8.99239 77.8885 8.99087 77.6619 8.99087C77.4293 8.98479 77.1921 8.98174 76.9488 8.98174H76.1976C75.9391 8.98174 75.6852 8.98022 75.4359 8.97718C75.1865 8.97414 74.9462 8.97262 74.7136 8.97262C74.4749 8.96654 74.2605 8.95742 74.0735 8.94829C73.8864 8.93917 73.7237 8.93005 73.5884 8.92397C73.5823 8.91028 73.5747 8.87835 73.5687 8.82665C73.5626 8.77495 73.5565 8.70349 73.5489 8.61378C73.5428 8.52255 73.5352 8.42675 73.5291 8.32336C73.523 8.21996 73.5154 8.11352 73.5094 8.00405C73.4774 7.75772 73.4577 7.53877 73.4516 7.34414C73.4455 7.23466 73.4394 7.14191 73.4364 7.0674C73.4333 6.9929 73.4318 6.9336 73.4318 6.88798L73.4394 6.88342ZM74.8657 2.72326C74.852 2.61378 74.8398 2.4967 74.8276 2.37354C74.814 2.25038 74.8018 2.12722 74.7881 2.00557C74.776 1.87633 74.7623 1.75316 74.7501 1.6376C74.7364 1.52052 74.7243 1.40497 74.7121 1.28788L75.4678 1.26812V2.74151C75.7141 2.74759 75.9346 2.75215 76.1323 2.75671C76.3299 2.75975 76.555 2.76127 76.8058 2.76127V2.58641C76.8058 2.52863 76.8089 2.46933 76.815 2.41155C76.815 2.35986 76.815 2.30512 76.8195 2.24734C76.8226 2.18956 76.8241 2.12721 76.8241 2.06335V1.68474C76.8241 1.62696 76.8256 1.56462 76.8287 1.50076C76.8317 1.4369 76.8363 1.37151 76.8439 1.30613L77.6391 1.24835C77.6254 1.38368 77.6117 1.519 77.595 1.65129C77.5783 1.78358 77.5646 1.91434 77.5509 2.04359C77.5311 2.17891 77.5129 2.30512 77.4931 2.4222C77.4734 2.53928 77.4551 2.6518 77.4353 2.76127C77.5251 2.76736 77.6178 2.77192 77.7121 2.77648C77.8064 2.77952 77.8976 2.78104 77.9888 2.78104H78.4343V3.40142H78.1044C77.9615 3.40142 77.7836 3.39837 77.5707 3.39229C77.1312 3.39229 76.6751 3.38317 76.2037 3.3634C75.965 3.35732 75.7293 3.35276 75.5012 3.3482C75.2716 3.34516 75.0496 3.34364 74.8368 3.34364C74.6239 3.34364 74.4277 3.34516 74.2696 3.3482C74.1115 3.35124 73.9868 3.3558 73.8956 3.3634V2.72326H74.8657ZM74.0126 0.298022C74.0841 0.298022 74.1814 0.299542 74.3031 0.302583C74.4262 0.305624 74.5752 0.307145 74.7486 0.307145C74.9174 0.313227 75.0968 0.316269 75.2868 0.316269H75.8829C76.0897 0.322351 76.2965 0.326912 76.5033 0.331474C76.7101 0.334515 76.9199 0.336035 77.1343 0.336035H78.2108L78.191 0.976176H76.1247C75.9118 0.976176 75.7004 0.977697 75.4936 0.980738C75.2868 0.983779 75.0861 0.9853 74.893 0.9853C74.4855 0.998985 74.1921 1.00811 74.0111 1.01419V0.296501L74.0126 0.298022Z" fill="white"/>
<path d="M83.9716 2.78104C83.9716 2.82666 83.926 2.9042 83.8363 3.01368C83.739 3.111 83.6523 3.15965 83.5747 3.15965C83.2646 3.15965 83.0213 3.15053 82.8479 3.13076C82.7567 3.1186 82.67 3.10795 82.5864 3.10187C82.5028 3.09579 82.4222 3.08971 82.3446 3.0821C82.2808 3.07602 82.2139 3.07146 82.1454 3.0669C82.077 3.06386 82.0116 3.0593 81.9463 3.05169H81.7334C81.6558 3.05169 81.5722 3.05474 81.481 3.06082C81.481 3.09275 81.4795 3.13684 81.4764 3.19158C81.4734 3.24632 81.4688 3.31323 81.4612 3.39077C81.4551 3.46832 81.4475 3.55043 81.4414 3.63862C81.4354 3.72529 81.4278 3.81804 81.4217 3.91535C81.4156 4.01267 81.4095 4.1039 81.4065 4.19209C81.4034 4.27876 81.4019 4.36543 81.4019 4.44906C81.4019 4.64369 81.4141 4.76533 81.4399 4.81702C81.5889 4.81094 81.7577 4.80486 81.9493 4.79726C82.1394 4.79118 82.3522 4.78509 82.5849 4.77749C83.038 4.77141 83.4744 4.79118 83.894 4.83527V5.47541C83.6614 5.45565 83.4379 5.44652 83.225 5.44652H82.5758C82.4724 5.4526 82.3674 5.45717 82.261 5.46173C82.1546 5.46477 82.0466 5.46629 81.9356 5.46629C81.8261 5.47237 81.7182 5.47541 81.6102 5.47541H81.3046C81.259 5.47541 81.2134 5.47693 81.1693 5.47997C81.1237 5.48302 81.0856 5.48454 81.0537 5.48454C80.9625 5.49822 80.9017 5.49366 80.8697 5.47541C80.8302 5.45565 80.8013 5.42067 80.7831 5.36898C80.7572 5.32336 80.745 5.23365 80.745 5.0968C80.745 5.08464 80.7435 5.04358 80.7405 4.97516C80.7374 4.90674 80.7359 4.80942 80.7359 4.67866C80.7298 4.54941 80.7268 4.41409 80.7268 4.27116V3.815C80.7207 3.65991 80.7146 3.50633 80.7116 3.35428C80.7085 3.20223 80.707 3.05474 80.707 2.91333C80.707 2.77192 80.7085 2.65484 80.7116 2.56361C80.7146 2.47237 80.7192 2.40547 80.7268 2.35986C80.7983 2.35986 80.8728 2.36138 80.9503 2.36442C81.0279 2.36746 81.1145 2.36898 81.2118 2.36898C81.3867 2.38266 81.5905 2.39179 81.8231 2.39787C82.036 2.41763 82.2656 2.42676 82.5119 2.42676C82.6351 2.43284 82.7613 2.4374 82.8905 2.44196C83.0197 2.445 83.1551 2.44653 83.298 2.44653C83.298 2.39483 83.298 2.34313 83.3026 2.29143C83.3056 2.23973 83.3102 2.18499 83.3178 2.12721C83.3239 2.07552 83.3299 2.0223 83.3375 1.96756C83.3436 1.91282 83.3497 1.8596 83.3573 1.8079V1.22554C83.1368 1.21946 82.9194 1.2149 82.702 1.21034C82.486 1.2073 82.264 1.20274 82.0375 1.19513H81.4019C81.1982 1.19513 81.0096 1.19817 80.8348 1.20426L80.815 0.612772H82.4252C82.6001 0.618854 82.7689 0.626457 82.9346 0.632539C83.0988 0.638621 83.26 0.646223 83.4151 0.652306C83.5641 0.658388 83.6933 0.662949 83.8028 0.667511C83.9123 0.670552 84.0035 0.672072 84.075 0.672072C84.075 0.72377 84.0735 0.784591 84.0704 0.856055C84.0674 0.92752 84.0659 1.00811 84.0659 1.09782C84.0522 1.28484 84.0431 1.47947 84.037 1.68018C84.0309 1.78358 84.0233 1.88545 84.0172 1.98581C84.0111 2.08616 84.0035 2.185 83.9974 2.28231C83.9914 2.3857 83.9853 2.47846 83.9822 2.55904C83.9792 2.63963 83.9777 2.71262 83.9777 2.778L83.9716 2.78104ZM81.8185 8.41611C81.928 8.34464 82.042 8.26558 82.1576 8.17891C82.2747 8.09224 82.3994 7.99949 82.5362 7.90217C82.6655 7.79878 82.7932 7.69538 82.9194 7.59198C83.0456 7.48859 83.1703 7.38519 83.2934 7.2818C83.4227 7.18448 83.5474 7.08565 83.6675 6.98529C83.7876 6.88494 83.9047 6.78306 84.0218 6.67967C84.1373 6.57627 84.2453 6.48048 84.3411 6.39381C84.4369 6.30714 84.5281 6.23111 84.6133 6.16573L85.2047 6.61125C85.1394 6.67663 85.0785 6.73441 85.0208 6.78611C84.963 6.8378 84.8976 6.90319 84.8261 6.98073C84.9615 7.08413 85.1181 7.19817 85.296 7.31981C85.4739 7.44297 85.6731 7.57222 85.892 7.70754C86.1049 7.84287 86.3238 7.96299 86.5474 8.06639C86.7709 8.16978 86.999 8.26102 87.2316 8.33856L86.8819 8.83273C86.4941 8.73542 86.0669 8.54839 85.6016 8.27014C85.3553 8.12113 85.1272 7.97364 84.9174 7.82919C84.7075 7.68474 84.5175 7.53725 84.3502 7.38823C84.189 7.51748 84.0202 7.64824 83.8454 7.78053C83.6705 7.91281 83.4926 8.04358 83.3117 8.17282C83.1307 8.29599 82.9528 8.41611 82.778 8.53623C82.6031 8.65635 82.4359 8.77039 82.2732 8.87987L81.817 8.41459L81.8185 8.41611ZM86.4348 5.91332V4.67258C86.4288 4.56918 86.4227 4.46426 86.4196 4.35783C86.4166 4.25139 86.4151 4.14647 86.4151 4.04308V3.32539C86.2281 3.34516 86.0547 3.35884 85.8966 3.36949C85.7385 3.37861 85.5742 3.39077 85.407 3.40294C85.407 3.54587 85.4085 3.68423 85.4115 3.81956C85.4146 3.95489 85.4191 4.08109 85.4267 4.19817C85.4328 4.32133 85.4389 4.43537 85.4465 4.54181C85.4526 4.64825 85.4587 4.74708 85.4663 4.83831V5.75063L84.7486 5.77039C84.7547 5.67308 84.7592 5.57121 84.7638 5.46477C84.7668 5.35833 84.7714 5.25342 84.779 5.15002V4.83527C84.779 4.72883 84.776 4.62392 84.7699 4.52052C84.7699 4.41105 84.7684 4.29396 84.7653 4.1708C84.7623 4.04764 84.7577 3.92448 84.7501 3.80283C84.744 3.67359 84.7395 3.53674 84.7349 3.39077C84.7319 3.2448 84.7303 3.09123 84.7303 2.93005C84.7243 2.77496 84.7197 2.62747 84.7151 2.4891C84.7121 2.35073 84.7136 2.22301 84.7197 2.10593C84.7197 1.87329 84.7288 1.66954 84.7486 1.49468C84.7547 1.31373 84.7653 1.13887 84.7775 0.971616V0.729853C84.7775 0.646224 84.7744 0.554992 84.7683 0.457678L85.369 0.418145V0.737455C85.369 0.834768 85.372 0.92752 85.3781 1.01875C85.3781 1.10998 85.3796 1.19817 85.3826 1.28484C85.3857 1.37151 85.3872 1.46122 85.3872 1.55094V2.74455C85.4708 2.74455 85.5529 2.74455 85.6351 2.73999C85.7156 2.73695 85.7977 2.73238 85.8829 2.72478C85.9604 2.7187 86.0426 2.71414 86.1307 2.70958C86.2174 2.70654 86.3071 2.70501 86.3968 2.70501C86.3908 2.556 86.3862 2.4146 86.3816 2.27775C86.3771 2.1409 86.3801 2.01318 86.3862 1.89001C86.3862 1.63761 86.3953 1.40497 86.4151 1.19209V0.591484C86.4151 0.500253 86.4136 0.410542 86.4105 0.31931C86.4075 0.229599 86.4029 0.141408 86.3953 0.0577796L87.0552 0C87.0613 0.0836289 87.0659 0.176381 87.0704 0.276736C87.0735 0.37709 87.075 0.482006 87.075 0.591484V1.3183C87.075 1.44146 87.0735 1.56918 87.0704 1.70147C87.0674 1.83375 87.0659 1.96452 87.0659 2.09376C87.0598 2.22909 87.0567 2.35986 87.0567 2.48606V2.86923L87.1921 5.87531L86.4364 5.91332H86.4348Z" fill="white"/>
<path d="M88.6079 4.73947C88.6398 4.73947 88.6855 4.73947 88.7432 4.73491C88.801 4.73187 88.8755 4.72731 88.9668 4.7197C89.1416 4.7197 89.3545 4.71058 89.6069 4.69081C89.724 4.68473 89.8471 4.67865 89.9809 4.67105C90.1132 4.66496 90.2516 4.65888 90.393 4.65128C90.5344 4.6452 90.6804 4.64064 90.8294 4.63607C90.9784 4.63303 91.1305 4.63151 91.2856 4.63151C91.2795 4.51443 91.2704 4.37454 91.2612 4.21033C91.2521 4.04611 91.2308 3.86213 91.1974 3.66294L91.9546 3.6234C91.9865 3.82411 92.0063 4.00962 92.0124 4.18144C92.0185 4.35326 92.0185 4.50379 92.0124 4.63303C92.1796 4.63912 92.4305 4.64824 92.7635 4.65736C93.0965 4.66648 93.5253 4.65888 94.0484 4.63303C94.1396 4.62695 94.2247 4.61783 94.3053 4.60871C94.3859 4.59958 94.4589 4.59046 94.5243 4.58438C94.6398 4.56461 94.7341 4.55549 94.8056 4.55549V5.33095C94.7676 5.33095 94.7219 5.33248 94.6702 5.33552C94.6185 5.33856 94.5577 5.34312 94.4863 5.35072C94.4224 5.3568 94.3464 5.36137 94.2582 5.36593C94.1715 5.36897 94.0757 5.37049 93.9723 5.37049C93.875 5.37657 93.7731 5.38113 93.6667 5.38569C93.5603 5.38873 93.4417 5.39025 93.3124 5.39025C93.1832 5.39025 93.06 5.38721 92.9247 5.38113C92.7894 5.37505 92.6464 5.36441 92.4974 5.35224C92.2906 5.34008 92.0854 5.32943 91.8816 5.32335C91.6779 5.31727 91.4726 5.31119 91.2658 5.30359C91.059 5.30359 90.8598 5.30206 90.6697 5.29902C90.4797 5.29598 90.2957 5.29446 90.1224 5.29446C89.9475 5.30054 89.7848 5.30815 89.6327 5.31423C89.4807 5.32031 89.3408 5.32791 89.2116 5.334C89.0762 5.34008 88.9607 5.34616 88.8679 5.3492C88.7737 5.35224 88.6976 5.35376 88.6398 5.35376L88.611 4.74251L88.6079 4.73947ZM90.13 2.78103C90.1239 2.68372 90.1178 2.58489 90.1148 2.48453C90.1117 2.38418 90.1102 2.2823 90.1102 2.17891C90.1041 2.07551 90.0965 1.97059 90.0904 1.86416C90.0843 1.75772 90.0737 1.6452 90.0615 1.52964L90.837 1.50987V2.79928C90.8887 2.79928 90.9465 2.8008 91.0119 2.80384C91.0757 2.80688 91.1442 2.8084 91.2156 2.8084C91.2871 2.81449 91.3555 2.81753 91.4239 2.81753H92.4761V2.67764C92.4761 2.62898 92.4792 2.5788 92.4853 2.52711C92.4853 2.47541 92.4853 2.42523 92.4898 2.37657C92.4929 2.32792 92.4944 2.27774 92.4944 2.22604V1.90673C92.4944 1.85503 92.4944 1.79877 92.4989 1.73643C92.502 1.67561 92.5065 1.61175 92.5141 1.54789L93.3094 1.49011C93.2835 1.73643 93.2546 1.97211 93.2227 2.19867C93.2029 2.30207 93.1832 2.40546 93.1649 2.50886C93.1452 2.61226 93.1269 2.71565 93.1071 2.81905C93.2364 2.82513 93.3611 2.82817 93.4812 2.82817H94.3874V3.45919H94.0286C93.8674 3.45919 93.6637 3.45615 93.4173 3.45007C92.9201 3.45007 92.3788 3.44094 91.798 3.42117C91.5076 3.41509 91.2278 3.41053 90.9586 3.40597C90.691 3.40293 90.4295 3.40141 90.1786 3.40141C89.9277 3.40141 89.7042 3.40293 89.5293 3.40597C89.3545 3.40901 89.2222 3.41357 89.131 3.42117V2.78103H90.13ZM91.2354 0.618846C91.4741 0.618846 91.7189 0.617326 91.9683 0.614284C92.2176 0.611243 92.4716 0.606682 92.7301 0.599079C92.9886 0.592997 93.2425 0.583874 93.4918 0.57475C93.7412 0.565627 93.9845 0.556505 94.2247 0.550423L94.205 1.26811H93.2349C93.0022 1.26811 92.7605 1.26963 92.5081 1.27267C92.2557 1.27571 91.9941 1.28027 91.722 1.28788C91.4498 1.29396 91.1867 1.29852 90.9313 1.30308C90.6758 1.30612 90.4249 1.30764 90.1801 1.30764C89.6951 1.31373 89.3591 1.32437 89.172 1.33653V0.618846H91.2369H91.2354ZM89.7225 5.93308C90.6986 5.89507 91.5288 5.8753 92.2146 5.8753C92.9004 5.8753 93.5435 5.89507 94.1837 5.93308V7.24226C94.1837 7.33957 94.1822 7.43688 94.1791 7.53268C94.1761 7.62847 94.1746 7.72274 94.1746 7.81397C94.1685 7.8976 94.167 7.97667 94.17 8.05118C94.173 8.12568 94.1776 8.19563 94.1852 8.25949V8.43435C94.1852 8.47388 94.1715 8.50885 94.1457 8.54078C94.1259 8.58032 94.0848 8.60921 94.0195 8.62745C93.9419 8.64722 93.8446 8.65634 93.729 8.65634C93.4128 8.67611 93.0859 8.6898 92.7498 8.70044C92.4138 8.70956 92.0717 8.71869 91.722 8.72477H90.7473C90.4523 8.72477 90.1862 8.72173 89.9475 8.71564L89.3271 8.75518C89.321 8.68371 89.3134 8.60617 89.3074 8.52254C89.3013 8.43891 89.2937 8.34464 89.2876 8.24124C89.2815 8.13176 89.2754 8.01924 89.2678 7.90673C89.2617 7.79421 89.2541 7.67865 89.2481 7.56309C89.2481 7.44601 89.2465 7.33349 89.2435 7.22401C89.2404 7.11453 89.2389 7.00353 89.2389 6.89406C89.2328 6.78458 89.2313 6.67814 89.2344 6.57474C89.2374 6.47135 89.242 6.371 89.2496 6.27368C89.2298 6.22198 89.2268 6.16116 89.2405 6.0897C89.2405 6.038 89.2633 5.99999 89.3089 5.97262C89.3469 5.96045 89.3955 5.95285 89.4548 5.95285C89.4868 5.95285 89.5263 5.95133 89.5704 5.94829C89.616 5.94525 89.6677 5.94069 89.7255 5.93308H89.7225ZM90.0235 8.09527C90.3535 8.10743 90.6667 8.11808 90.9647 8.12416C91.2627 8.13024 91.5501 8.13328 91.8284 8.13328C92.1188 8.1196 92.4016 8.10895 92.6768 8.09983C92.9521 8.09071 93.2273 8.0755 93.5055 8.05574C93.5055 7.96451 93.504 7.85351 93.501 7.72122C93.4979 7.58894 93.4934 7.44144 93.4858 7.28027C93.4797 7.11301 93.4721 6.96552 93.466 6.83932C93.4599 6.71311 93.4523 6.6082 93.4462 6.52457C93.3231 6.52457 93.1923 6.52609 93.0539 6.52913C92.914 6.53217 92.7711 6.53369 92.6221 6.53369L91.7204 6.56258C91.4102 6.58235 91.1153 6.59147 90.8385 6.59147C90.6956 6.59755 90.5572 6.60211 90.4219 6.60668C90.2866 6.60972 90.1543 6.61124 90.0235 6.61124V8.09527Z" fill="white"/>
</svg>
