<svg width="273" height="82" viewBox="0 0 273 82" fill="none" xmlns="http://www.w3.org/2000/svg">
<path d="M7.39918 28.0916C8.2675 28.0516 9.40986 28.1501 10.8324 28.3872C12.1349 28.7044 13.1418 29.157 13.85 29.7482C14.5613 30.4595 16.2209 30.4626 16.692 32.1191C17.1262 33.8558 18.2347 37.1166 18.3948 39.3644C18.6319 41.7722 18.6904 44.3341 18.5734 47.0591C18.4564 49.7842 18.2193 52.5616 17.8621 55.4036C17.508 57.1402 15.0724 58.3534 14.3242 59.2217C13.4959 60.1701 12.5691 60.8013 11.5437 61.1154C10.3983 61.5496 9.3144 61.6481 8.28905 61.411C7.22367 61.254 6.27837 60.8783 5.447 60.2871C4.26461 59.6159 3.33471 58.5905 2.66654 57.2111C2.27241 56.5398 1.93678 55.8316 1.65966 55.0803C1.38253 54.3321 1.14544 53.5407 0.948376 52.7124C0.43416 50.9758 0.160115 49.2607 0.120086 47.5641C0.0800575 46.6958 0.049267 45.849 0.0307921 45.0207C0.00923813 44.1925 0 43.3642 0 42.5359C0 40.5621 0.237094 38.65 0.711282 36.7964C1.18547 35.0197 1.75511 33.4432 2.42636 32.0606C3.29468 30.6411 4.12297 29.6158 4.91123 28.9846C5.81958 28.3133 6.64787 27.9777 7.3961 27.9777V28.0947L7.39918 28.0916ZM7.75328 31.7004C7.042 32.2146 6.49083 32.8458 6.0967 33.594C5.85961 33.9882 5.66254 34.4131 5.5055 34.8657C5.34847 35.3184 5.20991 35.8018 5.08982 36.316C4.97281 36.7902 4.8712 37.2736 4.79422 37.7663C4.71417 38.2589 4.65566 38.7824 4.61563 39.3336C4.5756 39.9248 4.52634 40.4882 4.46784 41.0209C4.40933 41.5536 4.36006 42.0956 4.32004 42.6498C3.88588 46.8313 3.96594 49.8519 4.55713 51.7056C5.03132 53.7162 5.8011 55.2774 6.86649 56.3797C8.08891 57.9593 9.29285 58.2734 10.4752 57.3281C11.6576 56.4598 12.3289 55.2558 12.489 53.7193C12.529 52.811 12.566 51.8934 12.606 50.9666C12.646 50.0397 12.6861 49.0821 12.723 48.0968C12.8031 46.2031 12.8031 44.2694 12.723 42.2957C12.606 40.4821 12.4274 38.7054 12.1903 36.9688C11.8732 35.3122 11.5191 33.8927 11.1249 32.7072C10.8878 32.4702 10.7093 32.3316 10.5922 32.2916C10.4752 32.2515 10.3552 32.2115 10.2381 32.1746C10.1211 32.1345 9.98258 32.0945 9.82246 32.0576C9.66543 32.0576 9.50531 32.0483 9.34827 32.0268C9.19124 32.0083 9.01265 31.9775 8.81558 31.9375C8.61852 31.8974 8.43069 31.8605 8.2521 31.8205C8.07351 31.7804 7.90724 31.7404 7.7502 31.7035L7.75328 31.7004ZM9.8163 64.3701C16.458 64.133 22.1113 64.016 26.7762 64.016C29.1625 64.016 33.615 64.016 40.1058 64.3701V72.0648C40.1058 72.616 40.0935 73.161 40.072 73.6937C40.0504 74.2264 40.0381 74.7683 40.0381 75.3226C39.995 75.7968 39.9827 76.2494 40.0042 76.6836C40.0258 77.1177 40.0596 77.5519 40.1027 77.986V78.9929C40.1027 79.27 40.0134 79.5041 39.8379 79.7042C39.7055 79.9413 39.4192 80.1199 38.9789 80.2369C38.4523 80.3539 37.7903 80.4155 36.999 80.4155C30.4096 80.708 25.8556 80.748 23.3399 80.7696H16.7721C14.7706 80.7696 12.9324 80.748 11.2604 80.7111L6.97118 80.9482C6.83877 79.2916 6.70637 76.9822 6.57397 74.0232C6.53086 72.5236 6.49699 71.1534 6.47543 69.9094C6.45388 68.6655 6.46312 67.5539 6.50931 66.5655C6.3769 65.6171 6.50931 65.0259 6.90651 64.7888C7.08203 64.6318 8.04888 64.4932 9.81015 64.3732L9.8163 64.3701ZM11.245 76.9145C13.2557 77.0315 15.1802 77.1116 17.0153 77.1516C18.8505 77.1916 20.6149 77.1916 22.3115 77.1516C24.0081 77.0715 25.7139 77.0038 27.4321 76.9453C29.1472 76.8868 28.7099 76.8868 30.4065 76.7667C30.4065 76.2125 30.3973 75.5628 30.3757 74.8145C30.3542 74.0632 30.3265 73.2164 30.2864 72.2711C30.2464 71.3228 30.1971 70.4575 30.1386 69.6662C30.0801 68.8779 30.0309 68.1667 29.9908 67.5354C29.2395 67.5354 30.5974 67.4554 29.7691 67.4769C28.9409 67.4985 28.0725 67.5262 27.1642 67.5662C26.2959 67.6063 25.3968 67.6555 24.4699 67.714C23.5431 67.7725 22.6255 67.8433 21.7172 67.9203C20.7688 67.9604 19.8543 68.0096 18.9644 68.0681C18.0776 68.1266 17.1785 68.1974 16.2733 68.2744C15.3649 68.3545 14.4966 68.413 13.6683 68.453C12.84 68.493 12.0302 68.5115 11.2419 68.5115V76.9145H11.245ZM34.1662 60.9953C34.2093 60.5211 34.2431 60.0008 34.2647 59.4281C34.2862 58.8553 34.2986 58.2549 34.2986 57.6237C34.2986 57.0325 34.2862 56.4105 34.2647 55.7608C34.2431 55.1111 34.2093 54.4676 34.1662 53.8363C34.123 53.1651 34.0769 52.5061 34.0338 51.8534C33.9906 51.2037 33.9445 50.5601 33.9013 49.9289C33.8582 49.2576 33.8121 48.5987 33.7689 47.9459C33.7258 47.2962 33.6796 46.6157 33.6365 45.9045C33.1962 45.9045 32.7128 45.9137 32.1832 45.9352C31.6567 45.9568 31.1055 45.966 30.5328 45.966C29.96 46.0061 29.3781 46.0245 28.7838 46.0245H23.3399C22.7672 46.0245 22.2283 46.0153 21.7233 45.9938C21.2184 45.9753 20.7657 45.9445 20.3716 45.9045V41.4058H22.9458C23.5185 41.4459 24.1097 41.4766 24.7286 41.4951C25.3444 41.5167 25.9602 41.5444 26.5761 41.5844C27.1026 41.5844 27.6661 41.5937 28.2604 41.6152C28.8546 41.6368 29.4797 41.646 30.1417 41.646C30.7575 41.686 31.3395 41.7045 31.8907 41.7045H33.3748C33.3748 41.5475 33.3625 41.064 33.3409 40.2542C33.3194 39.4475 33.2855 38.5576 33.2424 37.5908C33.1993 36.6239 33.1654 35.6786 33.1439 34.7487C33.1223 33.8219 33.11 33.1414 33.11 32.7072C33.0669 32.1561 33.033 31.6234 33.0115 31.1092C32.9899 30.598 32.9776 30.1239 32.9776 29.6897V28.0916L38.3877 27.9746C38.4308 28.4488 38.4523 28.9322 38.4523 29.4249V30.9337C38.4092 31.4479 38.3877 31.9806 38.3877 32.5317V34.2468C38.2553 35.4292 38.1906 36.5747 38.1906 37.6801C38.1475 38.2713 38.1352 38.8347 38.1567 39.3674C38.1783 39.9001 38.2121 40.4236 38.2553 40.9347C38.2984 42.9454 38.3538 44.8914 38.4215 46.7635C38.4862 48.6387 38.5416 50.5201 38.5878 52.4138C38.7202 56.1611 38.7849 59.0616 38.7849 61.1123L34.1662 60.9953Z" fill="black"/>
<path d="M63.8674 74.2501C63.1068 74.17 62.4109 74.1023 61.7797 74.0438C61.1485 73.9853 60.5573 73.9545 60.0092 73.9545C59.4611 73.9144 58.913 73.896 58.3649 73.896C57.8168 73.896 57.3088 73.936 56.8469 74.013H55.2642C54.7593 74.013 54.2512 74.053 53.7462 74.13C53.1981 74.17 52.6285 74.1977 52.0373 74.2193C51.4461 74.2377 50.8364 74.287 50.2021 74.3671H49.7279C49.537 74.3671 49.3369 74.4071 49.1275 74.4841C48.6626 74.5641 48.2407 74.5641 47.862 74.4841C47.1876 74.287 46.7227 74.0899 46.4702 73.8929C46.0484 73.5388 45.839 72.926 45.839 72.0577C45.7528 71.0724 45.6819 69.8962 45.6173 68.5352C45.5526 67.1742 45.4787 65.6469 45.3956 63.9473C45.1831 60.514 45.0569 57.0223 45.0169 53.472C44.8906 50.0018 44.8259 46.6456 44.8259 43.4125C44.7828 41.7559 44.7613 40.3456 44.7613 39.1817V36.1919L44.5088 33.7655C45.2693 33.7655 46.4055 33.707 47.9266 33.5869C49.3184 33.4699 50.8149 33.4083 52.4191 33.4083C53.1365 33.3683 53.8632 33.3406 54.6022 33.319C55.3412 33.3005 56.0894 33.2698 56.8469 33.2297H58.873C59.5073 33.2297 60.0954 33.2513 60.6435 33.2882C62.0784 33.4853 63.153 33.7224 63.8704 33.9995C64.5017 34.3167 64.9235 35.0865 65.136 36.3089V42.0484C65.136 43.705 65.1236 45.4324 65.1052 47.2275C65.0836 49.0226 65.0528 50.9256 65.0097 52.9393C64.9235 54.95 64.8404 56.9053 64.7572 58.7989C64.671 60.6926 64.5879 62.5863 64.5047 64.4799C64.4185 66.3736 64.3261 67.9717 64.2215 69.2742C64.1168 70.5766 63.9998 71.6205 63.8735 72.4118V74.247L63.8674 74.2501ZM48.8073 37.442C48.7642 38.6644 48.7334 39.9577 48.7118 41.3186C48.6903 42.6796 48.6995 44.1114 48.7426 45.6079C48.7426 47.1475 48.7734 48.6839 48.8381 50.2235C48.9027 51.7631 48.9735 53.3211 49.0598 54.8977C49.0998 56.4372 49.1552 57.9368 49.2168 59.3963C49.2815 60.8558 49.3738 62.2753 49.5001 63.6578C49.6694 66.3028 49.8573 68.569 50.0697 70.4627H51.1443C51.5231 70.4627 51.9049 70.4442 52.2836 70.4042C52.958 70.4042 53.7401 70.3457 54.6238 70.2256H55.7631C56.1849 70.2256 56.6067 70.2071 57.0286 70.1671C57.4504 70.1671 57.9031 70.1579 58.3896 70.1363C58.873 70.1179 59.3903 70.1055 59.9384 70.1055C59.9784 69.0802 60.0123 67.8978 60.0338 66.5553C60.0554 65.2159 60.0646 63.7533 60.0646 62.1767V52.5883C60.0215 50.9317 59.9784 49.3644 59.9384 47.8834C59.8953 46.4023 59.8522 44.9551 59.8121 43.5325C59.769 42.1531 59.7259 40.9399 59.6859 39.893C59.6428 38.8492 59.5997 37.9501 59.5596 37.1987C58.5466 37.1987 57.5767 37.208 56.6498 37.2295C55.723 37.2511 54.8147 37.2603 53.9279 37.2603C52.1574 37.3404 50.4485 37.3989 48.8042 37.4389L48.8073 37.442ZM77.1477 29.7472C77.2 31.5639 77.2401 33.3868 77.2647 35.2219C77.2893 37.0571 77.3047 38.883 77.3047 40.6967V51.2889C78.093 51.4059 79.0352 51.4675 80.1375 51.4675C80.661 51.5075 81.2122 51.526 81.791 51.526H83.6016C84.0203 51.566 84.4791 51.5968 84.9779 51.6153C85.4768 51.6368 85.9879 51.6461 86.5144 51.6461H89.4273V55.7875H86.8285C85.8832 55.7875 84.8609 55.769 83.7586 55.729C81.4493 55.729 79.2446 55.6705 77.1446 55.5504C77.0923 55.8276 77.0522 56.1047 77.0276 56.3787C76.9999 56.6558 76.9876 56.9114 76.9876 57.1485V58.6881C76.9352 58.9652 76.8952 59.23 76.8706 59.4856C76.8428 59.7411 76.8305 59.9875 76.8305 60.2246V61.7026C76.6735 64.5046 76.5934 67.2666 76.5934 69.9885C76.5411 71.328 76.5134 72.7013 76.5134 74.1023V78.333L68.8894 78.2745V74.013C68.8894 73.3017 68.9018 72.5812 68.9295 71.8514C68.9541 71.1217 68.9941 70.4011 69.0465 69.6898V67.6484C69.0465 66.9586 69.0711 66.2566 69.1265 65.5484C69.1265 64.8772 69.1388 64.1874 69.1666 63.4761C69.1912 62.7649 69.2066 62.0351 69.2066 61.2869C69.2589 58.919 69.299 56.4926 69.3236 54.0078C69.3482 51.5229 69.3636 48.918 69.3636 46.196C69.3636 43.474 69.3513 40.7521 69.3236 38.0301C69.2959 35.3082 69.2558 32.5646 69.2066 29.8026L77.1446 29.7441L77.1477 29.7472Z" fill="black"/>
<path d="M119.249 70.8203C118.578 70.8203 117.06 70.8788 114.692 70.9988C113.47 71.0389 112.198 71.0789 110.874 71.1159C109.553 71.1559 108.161 71.2144 106.702 71.2944C105.242 71.3745 103.783 71.4515 102.323 71.5315C100.864 71.6116 99.4043 71.6886 97.9447 71.7686C96.4852 71.8087 95.1643 71.8487 93.9788 71.8856C92.7964 71.9257 91.7895 71.9842 90.9612 72.0642L90.8442 67.4486H92.4423C93.1536 67.4486 94.0589 67.4301 95.1643 67.3901C96.2297 67.3901 97.3843 67.3593 98.6252 67.3008C99.8692 67.2423 101.199 67.1746 102.619 67.0945C103.998 67.0545 105.421 67.0267 106.88 67.0052C108.34 66.9867 109.839 66.9559 111.379 66.9159C112.879 66.9159 114.289 66.9067 115.61 66.8851C116.931 66.8666 118.144 66.8543 119.249 66.8543V70.8203ZM101.495 32.2324C102.323 32.0354 103.546 32.0939 105.165 32.411C106.742 32.7651 107.946 33.2978 108.774 34.0091C110.114 35.3516 111.259 37.6579 112.207 40.9341C113.036 44.2103 112.503 48.3918 110.609 53.4816C109.427 56.7178 107.669 58.6884 105.341 59.3997C102.933 60.151 100.922 59.9909 99.3057 58.9255C96.8209 57.506 95.2228 55.4338 94.5115 52.7118C93.7602 50.227 93.3876 47.3264 93.3876 44.0132C93.3876 40.2259 94.3144 37.3469 96.1681 35.3732C98.0217 33.3994 99.7984 32.3556 101.495 32.2355V32.2324ZM102.622 35.9613C101.122 36.9097 99.9985 37.935 99.2472 39.0374C98.4189 40.2197 97.9047 41.8794 97.7076 44.0102C97.2335 48.2317 97.5106 51.0922 98.5359 52.5917C99.4843 54.1313 100.193 55.0181 100.667 55.2552C101.772 56.1235 102.976 56.2036 104.275 55.4923C105.578 54.9011 106.465 53.8542 106.939 52.3546C107.136 51.8035 107.293 51.1815 107.413 50.4918C107.53 49.802 107.629 49.0815 107.709 48.3302C107.789 47.5419 107.847 46.7629 107.887 45.9931C107.927 45.2233 107.946 44.4659 107.946 43.7146C107.906 42.9663 107.838 42.2551 107.739 41.5838C107.641 40.9125 107.512 40.2628 107.355 39.6316C107 38.5262 106.545 37.6394 105.994 36.9682C105.837 36.8912 105.649 36.8019 105.43 36.7034C105.212 36.6048 104.947 36.4971 104.633 36.377C104.315 36.2969 103.992 36.2199 103.657 36.1399C103.321 36.0598 102.976 36.0013 102.622 35.9613ZM127.003 30.2803C127.04 31.9369 127.061 33.6335 127.061 35.3701V40.814C127.021 42.7477 127.003 44.6999 127.003 46.6736V52.8288C126.886 56.9703 126.824 61.2133 126.824 65.5518C126.784 67.7226 126.766 69.8811 126.766 72.0334V78.632L122.624 78.3949C122.544 75.79 122.486 73.2836 122.445 70.8788C122.405 68.474 122.387 66.1831 122.387 64.0154C122.387 61.8476 122.396 59.6276 122.418 57.5953C122.436 55.5631 122.467 53.5401 122.507 51.5294V40.58C122.507 38.8033 122.498 37.079 122.476 35.4009C122.458 33.7258 122.427 32.0569 122.387 30.4004L127.003 30.2834V30.2803Z" fill="black"/>
<path d="M185.829 61.9432H179.378C177.799 61.9432 176.161 61.934 174.467 61.9124C172.77 61.8939 171.015 61.8631 169.199 61.8231C169.082 62.5344 169.02 63.1841 169.02 63.7753C168.98 64.1294 168.962 64.4773 168.962 64.8099V65.8445C168.845 66.5157 168.783 67.1285 168.783 67.6796C168.743 67.9968 168.724 68.2924 168.724 68.5664V69.2777C168.684 70.6202 168.684 71.7226 168.724 72.5909V75.0757C168.805 75.864 168.863 76.6523 168.903 77.4436C168.903 77.8377 168.912 78.3212 168.934 78.8939C168.952 79.4666 168.965 80.1071 168.965 80.8183L164.349 80.6398C164.349 79.9285 164.34 79.2788 164.318 78.6876C164.297 78.0964 164.287 77.6006 164.287 77.2096C164.247 76.7754 164.229 76.332 164.229 75.8794V66.9714C164.229 66.7343 164.22 66.4695 164.198 66.1739C164.177 65.8783 164.149 65.5735 164.109 65.2564V61.8231C162.058 61.8631 160.134 61.8939 158.339 61.9124C156.543 61.934 154.816 61.9432 153.159 61.9432C151.503 61.9432 150.191 61.934 149.224 61.9124C148.257 61.8939 147.617 61.8631 147.3 61.8231L147.537 57.8572H154.225C155.133 57.8172 156.069 57.7894 157.036 57.7679C158.003 57.7494 159.037 57.7186 160.143 57.6786C161.208 57.6786 162.283 57.6694 163.367 57.6478C164.451 57.6293 165.547 57.617 166.652 57.617H169.996C171.08 57.617 172.158 57.5985 173.22 57.5585C174.245 57.5585 175.252 57.5493 176.238 57.5277C177.223 57.5092 178.15 57.4784 179.018 57.4384H181.475C182.205 57.4384 182.885 57.4199 183.517 57.3799C184.108 57.3799 184.613 57.3707 185.025 57.3491C185.441 57.3307 185.746 57.3183 185.943 57.3183L185.826 61.934L185.829 61.9432ZM151.09 49.4542C151.564 49.02 152.134 48.4381 152.805 47.7083C153.477 46.9786 154.225 46.061 155.053 44.9556C155.881 43.8902 156.71 42.7848 157.538 41.6424C158.366 40.5001 159.213 39.3331 160.081 38.1507C160.99 36.9683 161.886 35.8044 162.776 34.6589C163.662 33.5166 164.54 32.3896 165.408 31.2842C166.237 30.2188 166.985 29.3105 167.656 28.5622C168.327 27.814 168.918 27.2012 169.433 26.7271L173.041 29.6276C172.29 30.4959 171.542 31.4227 170.794 32.4081L167.952 35.9583C168.663 36.7096 169.528 37.5472 170.557 38.474C171.582 39.4008 172.746 40.4385 174.048 41.5808C176.613 43.9087 179.492 45.9594 182.688 47.736L179.729 51.5234C178.467 50.6551 177.186 49.7282 175.883 48.7429C174.581 47.7576 173.3 46.6922 172.038 45.5468C170.695 44.4044 169.454 43.3175 168.309 42.2921C167.163 41.2668 166.12 40.2599 165.171 39.2746C164.657 39.9458 164.137 40.6047 163.604 41.2575C163.071 41.9072 162.569 42.5292 162.095 43.1204C161.581 43.7516 161.079 44.3428 160.586 44.8971C160.094 45.4513 159.629 46.0025 159.195 46.5536C158.68 47.1849 158.197 47.7576 157.744 48.2687C157.292 48.7829 156.867 49.2541 156.473 49.6882C156.078 50.1624 155.703 50.5873 155.349 50.9599C154.995 51.3356 154.699 51.6804 154.462 51.9945L151.087 49.4511L151.09 49.4542Z" fill="black"/>
<path d="M231.28 77.2715C229.387 77.3886 226.585 77.4501 222.877 77.4501C220.984 77.4101 219.05 77.3916 217.079 77.3916H194.62C193.299 77.3916 192.243 77.4317 191.455 77.5087V72.6559H193.407C194.155 72.6559 194.965 72.6744 195.833 72.7144C196.741 72.7144 197.687 72.7237 198.675 72.7452C199.661 72.7637 200.707 72.776 201.813 72.776C201.696 71.5936 201.634 70.2511 201.634 68.7516C201.594 67.9633 201.563 67.1843 201.545 66.4145C201.523 65.6447 201.514 64.8872 201.514 64.1359C201.514 63.3477 201.505 62.5964 201.483 61.8882C201.462 61.1769 201.453 60.4687 201.453 59.7574C201.413 59.0862 201.394 58.4765 201.394 57.9222V56.5028L206.13 56.1486C206.13 56.5027 206.139 56.9461 206.161 57.4788C206.179 58.0115 206.21 58.6335 206.25 59.3417C206.25 60.053 206.259 60.792 206.281 61.5618C206.299 62.3316 206.311 63.1106 206.311 63.8988C206.351 65.5554 206.41 67.1535 206.49 68.6931C206.49 69.4813 206.499 70.2111 206.521 70.8823C206.539 71.5536 206.552 72.1848 206.552 72.776C207.063 72.816 207.577 72.8437 208.091 72.8653C208.602 72.8838 209.117 72.8961 209.631 72.8961H212.827C213.301 72.9361 213.803 72.9638 214.336 72.9854C214.868 73.0039 215.392 73.0162 215.903 73.0162H218.921C218.804 71.8338 218.742 70.4913 218.742 68.9917C218.702 68.2035 218.683 67.4245 218.683 66.6547V64.3761C218.683 63.5879 218.674 62.8273 218.653 62.0975C218.631 61.3678 218.622 60.6288 218.622 59.8775C218.582 59.1662 218.563 58.5257 218.563 57.953V56.5028L223.299 56.1486V64.0189C223.299 64.8472 223.29 65.6663 223.268 66.4761C223.247 67.2859 223.238 68.0834 223.238 68.8717C223.197 69.6999 223.179 70.4513 223.179 71.1194V73.0131H231.403L231.286 77.2746L231.28 77.2715ZM194.765 46.6741C194.093 45.8058 193.641 44.3863 193.404 42.4126C193.167 40.4789 193.659 38.4867 194.882 36.436C195.593 35.2536 196.954 34.2467 198.965 33.4184C200.898 32.6702 203.168 32.1375 205.77 31.8204C208.374 31.5063 211.075 31.4447 213.877 31.6418C216.679 31.8789 219.321 32.353 221.806 33.0612C223.699 33.7325 225.18 34.6593 226.246 35.8417C227.311 37.1042 228.099 38.4467 228.614 39.8661C229.048 41.4057 229.146 42.8468 228.909 44.1862C228.632 45.5287 228.059 46.7911 227.194 47.9735C225.143 50.2613 222.579 51.6223 219.499 52.0565C217.96 52.2936 216.433 52.4321 214.911 52.4722C213.393 52.5122 211.885 52.4722 210.385 52.3551C206.441 52.1181 203.285 51.5269 200.917 50.5785C198.469 49.7102 196.695 48.7649 195.59 47.7364C195.473 47.7364 195.294 47.5578 195.057 47.2037C194.703 46.8496 194.605 46.671 194.762 46.671L194.765 46.6741ZM200.209 45.7873C200.76 46.0645 201.413 46.3508 202.161 46.6464C202.909 46.942 203.719 47.2099 204.587 47.4439C206.364 47.9982 208.137 48.2938 209.914 48.3307C212.953 48.5678 215.654 48.4693 218.021 48.0351C220.152 47.681 221.907 46.9297 223.29 45.7873C224.789 44.5249 225.242 42.8098 224.651 40.639C223.94 38.5883 222.56 37.2643 220.509 36.6731C215.42 35.2536 211.059 34.8964 207.429 35.6077C203.759 36.319 201.314 37.2458 200.092 38.3882C198.869 39.5705 198.494 40.873 198.968 42.2956C199.402 43.8752 199.814 45.0391 200.212 45.7873H200.209Z" fill="black"/>
<path d="M244.949 30.4002C245.383 30.3601 245.876 30.3417 246.43 30.3417C246.984 30.3417 247.572 30.3817 248.207 30.4587C249.389 30.5757 250.692 31.1084 252.114 32.0567C253.534 33.2391 254.658 35.3514 255.489 38.3875C256.2 41.5036 255.843 45.4295 254.424 50.1652C253.832 51.8218 253.081 53.0842 252.176 53.9525C251.19 54.8609 250.165 55.5106 249.1 55.9047C247.994 56.2588 246.852 56.3389 245.666 56.1418C244.521 56.0248 243.554 55.6892 242.766 55.1349C240.241 53.6754 238.741 51.8218 238.267 49.5709C237.713 47.1661 237.439 44.441 237.439 41.405C237.793 37.7747 238.72 35.0928 240.219 33.3561C241.599 31.7396 243.178 30.7512 244.955 30.3971L244.949 30.4002ZM245.306 34.1259C243.924 34.6802 242.997 35.607 242.526 36.9064C242.289 37.5376 242.092 38.2366 241.935 39.0064C241.777 39.7762 241.657 40.5952 241.58 41.4635C241.343 43.0831 241.325 44.4811 241.522 45.6666C241.602 46.2577 241.688 46.7904 241.79 47.2646C241.888 47.7388 242.018 48.1514 242.175 48.5086C242.332 48.8257 242.489 49.1121 242.649 49.3677C242.806 49.6232 242.984 49.8696 243.182 50.1067C243.456 50.6209 243.773 50.975 244.13 51.1721C245.115 52.5146 246.399 52.7917 247.976 52.0003C249.475 51.2121 250.461 50.0882 250.935 48.6256C251.683 46.2208 251.92 43.6743 251.646 40.9924C251.292 38.3105 250.679 36.1982 249.811 34.6586C249.574 34.4215 248.983 34.206 248.034 34.0089C247.126 33.8519 246.218 33.8919 245.312 34.1259H245.306ZM241.694 69.3975C242.128 69.3975 242.661 69.4067 243.292 69.4283C243.924 69.4498 244.653 69.4776 245.482 69.5176C246.31 69.5576 247.188 69.5976 248.114 69.6346C249.041 69.6746 250.017 69.7146 251.043 69.7516C253.173 69.8686 255.483 69.9302 257.968 69.9302C259.15 69.9702 260.363 69.9795 261.607 69.961C262.851 69.9425 264.101 69.9117 265.364 69.8717V69.2497C265.364 69.0342 265.382 68.8063 265.422 68.5692C265.422 68.3721 265.431 68.1535 265.453 67.9195C265.471 67.6824 265.484 67.4453 265.484 67.2082V64.5448H260.246C259.794 64.5448 259.329 64.5263 258.854 64.4863C258.38 64.4863 257.869 64.477 257.315 64.4555C256.761 64.437 256.169 64.4062 255.538 64.3662C254.907 64.3662 254.294 64.3754 253.703 64.397C253.112 64.4185 252.539 64.4278 251.988 64.4278C251.397 64.4678 250.824 64.4986 250.273 64.5171C249.719 64.5386 249.167 64.5479 248.616 64.5479C248.142 64.5879 247.677 64.6187 247.224 64.6371C246.772 64.6587 246.325 64.6679 245.891 64.6679H243.582L243.465 60.1693H247.963C248.515 60.1293 249.06 60.1016 249.592 60.08C250.125 60.0615 250.689 60.0492 251.28 60.0492H255.009C256.508 60.1662 257.977 60.2771 259.418 60.3756C260.859 60.4741 262.248 60.5634 263.59 60.6404C264.97 60.7205 266.133 60.7975 267.082 60.8775C268.03 60.9576 268.757 61.0345 269.271 61.1146L269.154 74.0162C268.286 74.0162 267.387 74.007 266.46 73.9854C265.533 73.9639 264.575 73.9361 263.59 73.8961C262.605 73.8161 261.616 73.7576 260.631 73.7175C259.643 73.6775 258.639 73.6375 257.613 73.6005C256.628 73.5205 255.64 73.4712 254.654 73.4527C253.666 73.4312 252.702 73.4035 251.754 73.3634C250.765 73.2834 249.851 73.2464 249.001 73.2464H246.664C246.664 73.4035 246.655 73.5605 246.633 73.7206C246.612 73.8776 246.602 74.0562 246.602 74.2533C246.562 74.4504 246.544 74.7644 246.544 75.2017V75.7652C246.544 75.9807 246.562 76.1901 246.602 76.3871C246.602 76.6242 246.701 76.9968 246.898 77.511C247.332 77.511 247.942 77.5018 248.733 77.4802C249.522 77.4587 250.488 77.4495 251.634 77.4495C252.776 77.4094 253.962 77.3909 255.184 77.3909H262.937C264.24 77.3909 265.542 77.4094 266.845 77.4495C268.107 77.4495 269.262 77.4587 270.306 77.4802C271.35 77.4987 272.249 77.511 273 77.511L272.409 81.6525H249.269C247.927 81.6525 246.695 81.6217 245.571 81.5632C244.447 81.5047 243.471 81.4554 242.643 81.4154C242.603 81.3353 242.563 81.1506 242.526 80.8519C242.486 80.5563 242.446 80.1499 242.409 79.6387C242.369 79.0845 242.329 78.5148 242.292 77.9236C242.252 77.3325 242.212 76.7197 242.175 76.0885C242.018 74.786 241.898 73.5051 241.821 72.2426C241.781 71.6114 241.753 71.0602 241.731 70.586C241.71 70.1119 241.7 69.7177 241.7 69.4037L241.694 69.3975ZM271.818 29.2732C271.661 31.6811 271.531 34.1259 271.433 36.6108C271.334 39.0957 271.245 41.5805 271.165 44.0685C271.085 46.5934 271.026 48.992 270.986 51.2583C270.946 53.5276 270.928 55.7261 270.928 57.8569L266.429 57.7399V54.8393C266.429 53.814 266.448 52.7301 266.488 51.5847C266.488 50.4423 266.518 49.2476 266.577 48.0036C266.635 46.7596 266.685 45.4695 266.725 44.127C266.765 42.9046 266.814 41.6606 266.872 40.3981C266.931 39.1357 266.98 37.8332 267.02 36.4907C267.1 35.1882 267.159 33.9073 267.199 32.6449C267.239 31.3824 267.276 30.1384 267.316 28.916L271.814 29.2701L271.818 29.2732Z" fill="black"/>
<path d="M72.4983 12.9757H70.3983C69.8872 12.9757 69.3545 12.9695 68.7972 12.9572C68.2399 12.9449 67.6487 12.9233 67.0205 12.8987C66.9405 13.9856 66.882 14.9987 66.845 15.944C66.8081 16.8893 66.8265 17.5944 66.9035 18.0655L65.3701 18.1055C65.3424 17.7514 65.3208 17.3696 65.3024 16.957C65.2839 16.5444 65.2716 16.1164 65.2716 15.6699C65.2439 14.7523 65.2654 13.8317 65.3301 12.9018C64.6496 12.9295 64.003 12.948 63.3964 12.9603C62.7867 12.9726 62.2078 12.9788 61.6597 12.9788C60.5328 12.9788 59.8861 12.9541 59.7168 12.9018L59.7753 11.6455H62.9653C63.2855 11.6455 63.6242 11.6393 63.9783 11.627C64.6711 11.627 65.3917 11.6085 66.1399 11.5685H67.2484C67.6086 11.5685 67.9658 11.5624 68.3199 11.55C68.6617 11.55 68.9943 11.55 69.3206 11.5408C69.647 11.5346 69.9549 11.5316 70.2444 11.5316H71.0604C71.3036 11.5316 71.5284 11.5254 71.7378 11.5131C71.9348 11.5131 72.1011 11.5131 72.2397 11.5038C72.3782 11.4977 72.4798 11.4946 72.5445 11.4946L72.5045 12.988L72.4983 12.9757ZM63.4241 4.31713H64.4833C64.8497 4.31713 65.2346 4.31097 65.6411 4.29865H66.6911C66.999 4.29865 67.2576 4.30481 67.467 4.31713C67.6641 4.31713 67.7811 4.35716 67.8211 4.43414C67.8334 4.48648 67.8211 4.61889 67.7811 4.82827L67.427 5.81051H67.0236C66.885 5.81051 66.7403 5.80435 66.5802 5.79204C66.2538 5.79204 65.912 5.77356 65.5579 5.73354H65.0376C64.862 5.73354 64.6804 5.72738 64.4987 5.71506C64.314 5.71506 64.1354 5.71506 63.9599 5.70582C63.7843 5.69966 63.615 5.69043 63.458 5.67503V6.39247C63.458 6.62033 63.4641 6.84818 63.4764 7.06988C63.4764 7.29158 63.4764 7.5102 63.4857 7.7165C63.4918 7.92588 63.4949 8.12295 63.4949 8.30462H63.849C64.006 8.30462 64.197 8.29846 64.4187 8.28614C64.6404 8.28614 64.8713 8.28614 65.1053 8.27691C65.3424 8.27075 65.5826 8.26767 65.832 8.26767H68.4246V7.33469C68.4246 7.01446 68.4308 6.69115 68.4431 6.36168C68.4431 6.04761 68.4431 5.7243 68.4523 5.38867C68.4585 5.05612 68.4616 4.72358 68.4616 4.39719C68.4215 3.75673 68.4031 3.10087 68.4031 2.4327C68.3907 2.10631 68.3846 1.78607 68.3846 1.472V0.529785L69.995 0.609844C69.995 0.846937 69.9919 1.10866 69.9857 1.39502C69.9796 1.68446 69.9765 2.00469 69.9765 2.3588C69.9642 2.72521 69.9549 3.09779 69.9457 3.4796C69.9395 3.85834 69.9303 4.24631 69.9149 4.63736C69.9026 5.01609 69.8872 5.39483 69.8749 5.76741C69.8626 6.13998 69.841 6.50948 69.8164 6.8759C69.7764 7.62105 69.7579 8.23072 69.7579 8.70183L69.7179 9.60402C69.2467 9.56399 68.6833 9.54551 68.0274 9.54551C67.6856 9.55783 67.3408 9.56707 66.9867 9.5763C66.6326 9.58246 66.2661 9.5917 65.8874 9.60709C65.1792 9.64712 64.4741 9.6656 63.7659 9.6656C63.033 9.69331 62.4418 9.67176 61.9984 9.60709C61.9984 9.22836 61.9954 8.84347 61.9892 8.45858C61.983 8.07368 61.9738 7.68263 61.9584 7.2885C61.9461 6.90977 61.9245 6.52488 61.8999 6.13998C61.8722 5.75509 61.8414 5.37635 61.8014 5.00994C61.7737 4.64352 61.7521 4.28634 61.7336 3.9384C61.7152 3.59045 61.6905 3.25483 61.6659 2.92844C61.6259 2.28798 61.6074 1.70294 61.6074 1.17948L63.2178 1.04092C63.2301 1.31497 63.2486 1.58901 63.267 1.85689C63.2855 2.12478 63.304 2.39574 63.3163 2.67287C63.3409 2.96231 63.3625 3.24251 63.3748 3.51655C63.3871 3.7906 63.3995 4.05848 63.4148 4.32021L63.4241 4.31713Z" fill="black"/>
<path d="M87.149 16.609C86.4808 16.7137 85.557 16.7722 84.3808 16.7846C83.7773 16.7846 83.1707 16.7846 82.5549 16.7938C81.9391 16.8 81.3109 16.803 80.6705 16.803C80.03 16.803 79.408 16.8 78.8045 16.7938C78.201 16.7876 77.6067 16.7846 77.0186 16.7846C76.4551 16.7722 75.9624 16.7661 75.5344 16.7661C75.1064 16.7661 74.7647 16.7784 74.5029 16.8061L74.583 15.4698H80.4949C80.4826 15.325 80.4672 15.1619 80.4549 14.9802C80.4426 14.7985 80.4272 14.5953 80.4149 14.3705C80.4026 14.1488 80.3872 13.924 80.3748 13.7023C80.3625 13.4806 80.3471 13.2497 80.3348 13.0157C80.3225 12.7786 80.3071 12.5507 80.2948 12.329C80.2825 12.1073 80.2671 11.8918 80.2548 11.6824C80.2424 11.4854 80.2332 11.3068 80.224 11.1436C80.2178 10.9804 80.2147 10.8387 80.2147 10.7217L81.7482 10.6047V10.9989C81.7482 11.1559 81.7543 11.3314 81.7666 11.5285C81.7666 11.9472 81.7851 12.3937 81.8251 12.8648V13.6007C81.8251 13.844 81.8313 14.0811 81.8436 14.3182C81.8436 14.5676 81.8436 14.7893 81.8528 14.9863C81.859 15.1834 81.8621 15.3589 81.8621 15.516C82.3855 15.516 82.8936 15.5129 83.3832 15.5067C83.8728 15.5006 84.3562 15.4913 84.8273 15.4759C85.2861 15.4482 85.711 15.4236 86.1051 15.3959C86.4993 15.3682 86.8564 15.3312 87.1859 15.2789L87.1459 16.6152L87.149 16.609ZM76.7014 2.4881C78.6782 2.41112 80.458 2.37109 82.0437 2.37109C83.6295 2.37109 85.0213 2.41112 86.3053 2.4881V5.80742C86.3053 6.09686 86.3022 6.3709 86.296 6.63263C86.2899 6.89435 86.2868 7.14992 86.2868 7.39933C86.2745 7.64874 86.2714 7.86736 86.2776 8.05827C86.2837 8.24918 86.293 8.40929 86.3084 8.53862V8.87116C86.3084 8.97585 86.2806 9.05591 86.2314 9.10826C86.1914 9.18524 86.1144 9.24682 85.9943 9.28377C85.8372 9.3238 85.634 9.34227 85.3846 9.34227C85.0582 9.36999 84.7164 9.39154 84.3623 9.41001C84.0082 9.42849 83.6418 9.44081 83.2631 9.44081C82.8843 9.45312 82.5056 9.45928 82.133 9.45928H81.0245C80.6581 9.4716 80.2948 9.48083 79.9345 9.49007C79.5743 9.49623 79.2232 9.49931 78.8845 9.49931C78.5458 9.49931 78.2071 9.49931 77.9115 9.49007C77.6159 9.48391 77.3511 9.47468 77.1171 9.45928L75.9009 9.53626C75.8885 9.40693 75.8731 9.2345 75.8608 9.02512C75.8485 8.81574 75.8331 8.56633 75.8208 8.27997C75.8085 7.99361 75.7931 7.70109 75.7808 7.40549C75.7685 7.1099 75.7531 6.80506 75.7407 6.49099C75.7407 6.17691 75.7377 5.86592 75.7315 5.55801C75.7253 5.25009 75.7223 4.94526 75.7223 4.6435C75.71 4.34175 75.7069 4.07078 75.713 3.82753C75.7192 3.58428 75.7284 3.37797 75.7438 3.20862C75.7038 3.0639 75.6976 2.92226 75.7253 2.77754C75.7253 2.68517 75.7715 2.61435 75.8639 2.562C75.9409 2.53737 76.0333 2.52197 76.138 2.52197C76.2026 2.52197 76.2827 2.52197 76.375 2.51274C76.4674 2.50658 76.5783 2.49734 76.7076 2.48194L76.7014 2.4881ZM77.114 8.18452C77.7822 8.22454 78.4473 8.24918 79.1062 8.26457C79.7683 8.27689 80.4395 8.27689 81.12 8.26457C81.7882 8.25226 82.4286 8.2307 83.0445 8.20607C83.6603 8.18144 84.2607 8.14757 84.8519 8.10754C84.8519 8.02748 84.8488 7.91663 84.8427 7.77499C84.8365 7.63027 84.8273 7.45476 84.8119 7.24538C84.7996 7.04831 84.7842 6.84509 84.7719 6.63571C84.7595 6.42633 84.7442 6.20463 84.7318 5.96753C84.7195 5.77047 84.7041 5.57032 84.6918 5.3671C84.6795 5.16388 84.6641 4.95757 84.6518 4.74819C84.6395 4.55113 84.6271 4.37562 84.621 4.21858C84.6148 4.06154 84.6117 3.93222 84.6117 3.82445H80.9014C80.5473 3.82445 80.2055 3.82753 79.8699 3.83369C79.5373 3.83984 79.2048 3.84293 78.8784 3.84293C78.552 3.85524 78.241 3.8614 77.9454 3.8614H77.111V8.18144L77.114 8.18452Z" fill="black"/>
<path d="M90.8412 1.68447V2.42039C90.8412 2.70367 90.8473 3.02698 90.8596 3.3934C90.8596 4.15394 90.8781 4.92681 90.9181 5.71199V9.46239C91.1152 9.45007 91.3307 9.44083 91.5648 9.43159C91.8019 9.42543 92.0482 9.42236 92.3099 9.42236H98.0833L97.9663 10.7587C97.7169 10.771 97.4613 10.7803 97.1996 10.7895C96.9379 10.7957 96.6761 10.7926 96.4144 10.7803C96.1527 10.7803 95.8848 10.7772 95.6077 10.771C95.3336 10.7649 95.0565 10.7618 94.7825 10.7618C94.5084 10.7618 94.2036 10.7649 93.908 10.771C93.6124 10.7772 93.3076 10.7864 92.9935 10.8018C92.6794 10.8141 92.353 10.8295 92.0112 10.8418C91.6695 10.8542 91.3184 10.8696 90.952 10.8819C90.795 10.9219 90.6441 10.9404 90.4994 10.9404C90.3423 10.9681 90.173 10.9465 89.9882 10.8819C89.8558 10.8696 89.7512 10.7895 89.6742 10.6448C89.5818 10.5524 89.5356 10.3492 89.5356 10.0351C89.4956 9.64098 89.4771 9.05286 89.4771 8.26768C89.4648 7.88894 89.4556 7.49481 89.4463 7.08837C89.4402 6.68192 89.4309 6.257 89.4155 5.81052V1.68755H90.8289L90.8412 1.68447ZM92.3345 12.5662C94.3114 12.4861 95.9926 12.4492 97.3813 12.4492C98.77 12.4492 100.045 12.4892 101.329 12.5662V15.1188C101.329 15.3035 101.326 15.4821 101.319 15.6576C101.313 15.8331 101.31 16.0148 101.31 16.1965C101.298 16.3535 101.295 16.5044 101.301 16.6491C101.307 16.7938 101.316 16.9385 101.332 17.0802V17.4127C101.332 17.5051 101.304 17.5821 101.252 17.6498C101.224 17.7299 101.147 17.7884 101.015 17.8253C100.858 17.8654 100.661 17.8838 100.427 17.8838C99.1025 17.9485 97.7477 17.9885 96.3621 18.0008H94.4068C93.8095 18.0008 93.2645 17.9947 92.7656 17.9824L91.4878 18.0593C91.4601 17.7853 91.4385 17.4528 91.42 17.0679C91.4016 16.683 91.3769 16.2457 91.3523 15.7623C91.34 15.2635 91.3308 14.8109 91.3215 14.3982C91.3154 13.9856 91.3184 13.6161 91.3308 13.2898C91.2907 12.9757 91.3308 12.7786 91.4478 12.7016C91.5401 12.6493 91.8327 12.6031 92.3315 12.5631L92.3345 12.5662ZM92.9042 16.7292C93.5724 16.7692 94.2128 16.7938 94.8287 16.8061C95.4445 16.8185 96.0326 16.8185 96.5961 16.8061C97.1473 16.7784 97.7015 16.7569 98.265 16.7384C98.8285 16.7199 99.4043 16.6891 99.9924 16.6491C99.9924 16.2827 99.9739 15.7839 99.9339 15.1557C99.9216 14.8416 99.9031 14.5522 99.8846 14.2905C99.8661 14.0288 99.8477 13.7917 99.8353 13.5823C99.5859 13.5823 99.3242 13.5854 99.0502 13.5915C98.7761 13.5977 98.4928 13.6069 98.2065 13.6223C97.917 13.6346 97.6214 13.6531 97.3135 13.6716C97.0056 13.69 96.7008 13.7147 96.399 13.7393C95.7709 13.7793 95.1612 13.8163 94.5731 13.8563C94.2713 13.884 93.985 13.9025 93.7079 13.9148C93.4338 13.9271 93.1628 13.9333 92.9011 13.9333V16.723L92.9042 16.7292ZM98.579 11.6024C98.5914 11.1836 98.6037 10.7525 98.6191 10.3061C98.6314 9.85959 98.6437 9.39464 98.6591 8.91122C98.6714 8.42779 98.6807 7.93821 98.6899 7.44863C98.6961 6.95904 98.6991 6.4633 98.6991 5.96448C98.7115 5.49337 98.7207 5.02534 98.7299 4.56039C98.7361 4.09544 98.7392 3.63973 98.7392 3.19633C98.7392 2.75293 98.7453 2.31262 98.7576 1.91849C98.77 1.52436 98.7915 1.15178 98.8161 0.797682L100.072 0.720703C100.072 1.13947 100.069 1.57362 100.063 2.02626C100.057 2.47889 100.054 2.94692 100.054 3.43035C100.042 3.91377 100.035 4.40336 100.035 4.89294V7.75038C100.035 8.20917 100.042 8.66797 100.054 9.12368C100.054 10.0413 100.072 10.8388 100.112 11.5193L98.579 11.5962V11.6024Z" fill="black"/>
<path d="M110.169 14.5493C110.157 14.2753 110.141 13.9458 110.129 13.5671C110.117 13.1883 110.095 12.7542 110.07 12.2707C110.018 11.3285 109.978 10.3524 109.953 9.34555C109.889 8.36331 109.849 7.46112 109.836 6.63591C109.796 5.85073 109.796 5.32111 109.836 5.04399L111.29 5.00396C111.225 5.59208 111.203 6.33415 111.231 7.22402C111.231 8.14161 111.25 9.04996 111.29 9.95522C111.314 10.414 111.342 10.8574 111.367 11.2916C111.391 11.7227 111.413 12.1507 111.425 12.5694C111.45 12.9882 111.471 13.3638 111.484 13.6995C111.496 14.032 111.508 14.3307 111.524 14.5924C111.588 14.5924 111.65 14.5955 111.712 14.6016C111.77 14.6078 111.838 14.6109 111.918 14.6109C111.982 14.6232 112.053 14.6294 112.124 14.6294H113.233C113.245 14.1182 113.285 13.4501 113.35 12.6248C113.402 11.8273 113.442 10.9498 113.467 9.99217C113.519 9.07459 113.559 8.16624 113.584 7.26098C113.596 6.8145 113.605 6.40497 113.614 6.02316C113.621 5.64442 113.624 5.29032 113.624 4.96394H115.077C115.077 5.09634 115.074 5.2934 115.068 5.56437C115.062 5.83225 115.052 6.17712 115.037 6.59588C115.025 7.43341 114.985 8.36331 114.92 9.38558C114.892 9.89672 114.865 10.4017 114.831 10.8974C114.797 11.3963 114.769 11.8858 114.741 12.3693C114.661 13.3515 114.624 14.1028 114.624 14.6263C114.781 14.6386 114.942 14.6478 115.105 14.6571C115.268 14.6632 115.434 14.6663 115.607 14.6663H116.53V15.9626C116.361 15.9626 116.136 15.9596 115.862 15.9534C115.588 15.9472 115.274 15.9442 114.92 15.9442C114.554 15.9318 114.169 15.9226 113.771 15.9134C113.371 15.9072 112.962 15.898 112.543 15.8826C112.124 15.8549 111.718 15.8425 111.327 15.8425H109.156C108.86 15.8425 108.617 15.8549 108.42 15.8826V14.5462H110.169V14.5493ZM108.635 2.29432C108.792 2.29432 108.986 2.2974 109.214 2.30356C109.442 2.30972 109.701 2.31279 109.99 2.31279C110.28 2.32511 110.578 2.33127 110.892 2.33127H111.893C112.232 2.34358 112.583 2.35282 112.943 2.36206C113.303 2.36822 113.667 2.3713 114.033 2.3713H115.998L115.958 3.66762H112.383C112.016 3.66762 111.656 3.6707 111.302 3.67685C110.948 3.68301 110.6 3.68609 110.261 3.68609C109.605 3.69841 109.063 3.71996 108.632 3.7446V2.29124L108.635 2.29432ZM119.751 1.25357C119.763 1.80473 119.77 2.36514 119.77 2.94402V4.75147C119.757 5.39194 119.751 6.04163 119.751 6.69441V8.73588C119.711 10.1092 119.693 11.5194 119.693 12.9574C119.68 13.6779 119.674 14.3953 119.674 15.1066V17.2959L118.301 17.2189C118.273 16.3537 118.255 15.5223 118.242 14.7248C118.23 13.9273 118.224 13.1668 118.224 12.4462C118.224 11.7257 118.224 10.9898 118.233 10.3155C118.239 9.64115 118.249 8.9699 118.264 8.30172V4.66834C118.264 4.08022 118.261 3.5075 118.255 2.95018C118.249 2.39285 118.239 1.84169 118.224 1.29052L119.757 1.25049L119.751 1.25357Z" fill="black"/>
<path d="M133.558 16.6093C133.087 16.6617 132.591 16.7078 132.074 16.7479C131.557 16.7879 131.018 16.8125 130.454 16.8279C129.891 16.8279 129.333 16.8279 128.785 16.8372C128.234 16.8433 127.698 16.8464 127.175 16.8464C126.076 16.8064 125.075 16.7879 124.17 16.7879C123.711 16.7756 123.298 16.7694 122.932 16.7694C122.566 16.7694 122.251 16.7817 121.99 16.8095L121.95 15.4731C122.63 15.4731 123.443 15.4916 124.385 15.5316C124.844 15.5439 125.321 15.5562 125.82 15.5716C126.319 15.584 126.827 15.6055 127.354 15.6301C128.388 15.6301 129.454 15.6117 130.556 15.5716C131.643 15.5316 132.656 15.4331 133.601 15.276L133.561 16.6124L133.558 16.6093ZM123.308 12.6619C123.295 12.4001 123.28 12.0553 123.268 11.6303C123.255 11.2054 123.24 10.6974 123.228 10.1092C123.215 9.52113 123.2 8.93301 123.188 8.35105C123.175 7.76909 123.16 7.17482 123.147 6.57439C123.135 5.98627 123.12 5.42279 123.107 4.88394C123.095 4.34817 123.08 3.83703 123.067 3.35052C123.055 2.8671 123.046 2.48221 123.037 2.20201C123.03 1.9218 123.027 1.73398 123.027 1.6416H124.638C125.017 1.6416 125.408 1.64468 125.805 1.65084C126.205 1.657 126.621 1.66623 127.052 1.68163C127.458 1.68163 127.855 1.68471 128.25 1.69087C128.644 1.69702 129.035 1.70626 129.429 1.72166C129.808 1.73398 130.134 1.74937 130.402 1.76169C130.67 1.774 130.888 1.7894 131.061 1.80172L130.962 3.21504C130.753 3.19041 130.525 3.16886 130.276 3.15654C130.026 3.14422 129.758 3.13806 129.472 3.13806C129.186 3.13806 128.893 3.14114 128.598 3.1473C128.302 3.15346 128.006 3.1627 127.705 3.17809C127.391 3.19041 127.095 3.2058 126.821 3.21812C126.547 3.23044 126.276 3.24583 126.014 3.25815C125.503 3.29818 125.112 3.29818 124.835 3.25815C124.847 3.58454 124.856 3.93864 124.866 4.31737C124.872 4.69611 124.875 5.10256 124.875 5.53364V8.1078C124.875 8.51425 124.872 8.89606 124.866 9.25632C124.859 9.61658 124.856 9.94605 124.856 10.2478C124.844 10.8759 124.863 11.2362 124.915 11.3286C125.217 11.3163 125.7 11.2762 126.368 11.2116C126.984 11.1469 127.606 11.1069 128.234 11.0946C128.576 11.0699 128.905 11.0484 129.226 11.0361C129.546 11.0237 129.869 11.0114 130.199 10.996C130.513 10.9837 130.805 10.9745 131.073 10.9652C131.341 10.9591 131.587 10.956 131.809 10.956L131.769 12.2924C131.56 12.3047 131.304 12.3201 131.002 12.3324C130.701 12.3447 130.362 12.3663 129.98 12.3909C129.586 12.4032 129.186 12.4217 128.773 12.4402C128.36 12.4586 127.939 12.4771 127.508 12.4894C127.101 12.5171 126.698 12.5387 126.301 12.5572C125.9 12.5756 125.506 12.5879 125.112 12.5879C124.706 12.6003 124.351 12.6157 124.053 12.628C123.751 12.6403 123.502 12.6557 123.308 12.668V12.6619ZM125.682 6.43891H126.261C126.504 6.43891 126.787 6.43275 127.113 6.42043C127.754 6.42043 128.41 6.40196 129.078 6.36193C129.42 6.34961 129.752 6.34037 130.079 6.33113C130.405 6.32498 130.725 6.3219 131.042 6.3219H132.299L132.222 7.73522H128.961C128.647 7.74754 128.342 7.75678 128.046 7.76601C127.751 7.77217 127.461 7.77525 127.172 7.77525C126.882 7.77525 126.621 7.77217 126.387 7.76601C126.15 7.75986 125.95 7.75062 125.777 7.73522L125.679 6.43891H125.682Z" fill="black"/>
<path d="M136.033 15.393C136.046 15.0912 136.058 14.694 136.073 14.1952C136.086 13.6964 136.098 13.1083 136.113 12.4278C136.126 11.7596 136.135 11.0822 136.144 10.3955C136.15 9.70889 136.153 9.00993 136.153 8.3048C136.166 7.5966 136.172 6.93766 136.172 6.32184V4.55441C136.159 3.99093 136.153 3.55061 136.153 3.2273V2.60839L137.844 2.56836C137.868 3.23654 137.868 4.11409 137.844 5.20103C137.831 6.28797 137.791 7.41493 137.727 8.57885C137.699 9.16696 137.674 9.73045 137.65 10.2693C137.622 10.8051 137.597 11.3285 137.573 11.8397C137.545 12.3508 137.527 12.7911 137.514 13.1668C137.502 13.5393 137.496 13.838 137.496 14.0597C138.241 13.9797 139.186 13.9027 140.326 13.8226C141.437 13.7456 142.644 13.7056 143.94 13.7056V14.9619H143.066C142.758 14.9619 142.429 14.9742 142.074 15.0019C141.366 15.0143 140.649 15.0543 139.913 15.1189C139.547 15.1313 139.183 15.1559 138.823 15.1867C138.463 15.2206 138.112 15.2483 137.773 15.276C137.052 15.316 136.477 15.356 136.046 15.393H136.033ZM146.638 1.25357C146.65 1.80473 146.656 2.36514 146.656 2.94402V4.75147C146.644 5.39194 146.638 6.04163 146.638 6.69441V8.73588C146.598 10.1092 146.579 11.5194 146.579 12.9574C146.567 13.6779 146.561 14.3953 146.561 15.1066V17.2959L145.187 17.2189C145.163 16.3537 145.141 15.5223 145.129 14.7248C145.117 13.9273 145.111 13.1668 145.111 12.4462C145.111 11.7257 145.111 10.9898 145.12 10.3155C145.126 9.64115 145.135 8.9699 145.151 8.30172V4.66834C145.151 4.08022 145.147 3.5075 145.141 2.95018C145.135 2.39285 145.126 1.84169 145.111 1.29052L146.644 1.25049L146.638 1.25357Z" fill="black"/>
<path d="M161.446 16.609C160.778 16.7137 159.854 16.7722 158.678 16.7845C158.074 16.7845 157.468 16.7845 156.852 16.7938C156.236 16.7999 155.608 16.803 154.967 16.803C154.327 16.803 153.705 16.7999 153.101 16.7938C152.498 16.7876 151.904 16.7845 151.315 16.7845C150.752 16.7722 150.259 16.7661 149.831 16.7661C149.403 16.7661 149.062 16.7784 148.8 16.8061L148.877 15.4698C149.428 15.4297 150.259 15.4297 151.371 15.4698C151.922 15.4821 152.486 15.4913 153.071 15.5005C153.653 15.5067 154.259 15.5098 154.887 15.5098C155.515 15.5098 156.134 15.5067 156.744 15.5005C157.354 15.4944 157.957 15.4913 158.561 15.4913C159.149 15.479 159.688 15.4513 160.171 15.4143C160.654 15.3774 161.095 15.3281 161.486 15.2758L161.446 16.6121V16.609ZM149.231 10.9927C149.597 10.6509 149.958 10.303 150.312 9.94269C150.666 9.58243 151.011 9.20062 151.352 8.79417C151.691 8.40004 152.014 8.01823 152.313 7.64565C152.615 7.27308 152.901 6.90358 153.178 6.53716C153.295 6.31547 153.415 6.0599 153.532 5.77046C153.649 5.48102 153.76 5.16079 153.865 4.80669C154.062 4.13851 154.238 3.3133 154.395 2.33105L155.888 2.56815C155.86 2.86991 155.829 3.1655 155.789 3.45186C155.749 3.7413 155.709 4.01535 155.672 4.27707C155.555 4.82824 155.435 5.3363 155.318 5.81049C155.528 6.16459 155.876 6.57719 156.359 7.0483C156.581 7.25768 156.802 7.4763 157.027 7.70724C157.249 7.93509 157.486 8.16295 157.735 8.38465C158.179 8.85576 158.653 9.30839 159.149 9.73947C159.386 9.96117 159.62 10.1705 159.857 10.3676C160.094 10.5647 160.316 10.7463 160.525 10.9188L159.564 12.1751C158.542 11.4946 157.6 10.7279 156.738 9.87803C156.307 9.45927 155.91 9.04974 155.549 8.64946C155.189 8.24917 154.86 7.86735 154.558 7.50093C154.231 7.93201 153.914 8.34462 153.606 8.73875C153.298 9.13288 152.994 9.50545 152.692 9.85956C152.378 10.2137 152.033 10.5832 151.66 10.968C151.288 11.3529 150.872 11.7563 150.413 12.1751L149.234 10.9958L149.231 10.9927Z" fill="black"/>
<path d="M176.252 7.92846C176.566 7.94077 176.884 7.95001 177.204 7.95925C177.524 7.96541 177.841 7.96849 178.155 7.96849H179.824C180.086 7.9808 180.317 7.99004 180.52 7.99928C180.723 8.00544 180.908 8.00852 181.081 8.00852H181.767L181.727 9.34486H180.902C180.523 9.34486 180.031 9.33871 179.43 9.32639C178.827 9.32639 178.195 9.32639 177.533 9.31715C176.871 9.31099 176.188 9.30791 175.48 9.30791H171.492C170.864 9.30791 170.347 9.31099 169.94 9.31715C169.534 9.32331 169.238 9.33255 169.056 9.34794L168.939 7.97464H172.878C173.25 7.97464 173.641 7.96849 174.048 7.95617C174.442 7.95617 174.821 7.95309 175.187 7.94693C175.553 7.94077 175.908 7.93769 176.246 7.93769L176.252 7.92846ZM170.125 13.9389C170.27 13.9389 170.467 13.942 170.713 13.9482C170.962 13.9543 171.27 13.9636 171.637 13.979C171.991 13.9913 172.363 14.0067 172.758 14.019C173.152 14.0313 173.564 14.0467 173.995 14.059C174.898 14.0991 175.849 14.1175 176.844 14.1175C177.327 14.1298 177.795 14.1329 178.248 14.1268C178.7 14.1206 179.134 14.1114 179.553 14.096C179.578 13.7542 179.593 13.4586 179.593 13.203C179.593 12.9475 179.581 12.658 179.553 12.3286H174.959C174.513 12.3286 174.079 12.3316 173.654 12.3378C173.229 12.3439 172.819 12.3532 172.425 12.3686C172.019 12.3809 171.671 12.3901 171.384 12.3994C171.095 12.4055 170.861 12.4086 170.676 12.4086L170.716 10.9953H171.452C171.785 10.9953 172.21 10.9891 172.718 10.9768C173.216 10.9768 173.731 10.9768 174.269 10.9676C174.805 10.9614 175.369 10.9583 175.96 10.9583C176.551 10.9583 177.105 10.9614 177.629 10.9676C178.152 10.9737 178.663 10.983 179.159 10.9984C179.658 11.0107 180.055 11.0322 180.357 11.0569C180.659 11.0846 180.874 11.1092 181.007 11.1338V11.879C181.007 12.036 181.004 12.19 180.997 12.3409C180.991 12.4917 180.982 12.6395 180.967 12.7843C180.927 13.163 180.908 13.5048 180.908 13.8065C180.896 13.9636 180.89 14.1145 180.89 14.2592V14.6718C180.877 14.6995 180.862 14.7334 180.85 14.7795C180.837 14.8257 180.822 14.875 180.81 14.9273C180.797 14.9674 180.785 15.0074 180.77 15.0444C180.757 15.0844 180.742 15.1213 180.729 15.1614C180.717 15.2014 180.693 15.2353 180.662 15.2691C180.628 15.303 180.6 15.3307 180.572 15.3584C180.532 15.3707 180.483 15.3892 180.425 15.4077C180.366 15.4262 180.289 15.4385 180.2 15.4385C179.612 15.4385 178.944 15.42 178.195 15.38C177.817 15.3523 177.435 15.3338 177.056 15.3215C176.677 15.3092 176.296 15.2938 175.917 15.2814C175.51 15.2537 175.119 15.2383 174.737 15.2322C174.359 15.226 173.983 15.2168 173.617 15.2014C173.25 15.1737 172.908 15.1614 172.594 15.1614H171.769C171.757 15.4477 171.754 15.7064 171.76 15.9373C171.766 16.1652 171.797 16.4454 171.849 16.7718H177.583C178.054 16.7718 178.513 16.7841 178.956 16.8118C179.415 16.8241 179.821 16.8333 180.172 16.8426C180.526 16.8487 180.828 16.8518 181.074 16.8518L180.837 18.2251C180.588 18.2251 180.28 18.222 179.914 18.2159C179.547 18.2097 179.134 18.2066 178.676 18.2066C178.205 18.1943 177.724 18.1882 177.232 18.1882H175.71C175.187 18.1882 174.673 18.1851 174.168 18.1789C173.663 18.1728 173.176 18.1697 172.705 18.1697C172.222 18.1574 171.788 18.1389 171.409 18.1204C171.03 18.1019 170.701 18.0835 170.427 18.0712C170.414 18.0434 170.399 17.9788 170.387 17.8741C170.374 17.7694 170.362 17.6247 170.347 17.443C170.334 17.2583 170.319 17.0643 170.307 16.8549C170.294 16.6455 170.279 16.43 170.267 16.2083C170.202 15.7094 170.162 15.2661 170.15 14.8719C170.137 14.6502 170.125 14.4624 170.119 14.3115C170.113 14.1606 170.11 14.0406 170.11 13.9482L170.125 13.9389ZM173.013 5.51441C172.985 5.29271 172.961 5.05562 172.936 4.80621C172.908 4.5568 172.884 4.30739 172.856 4.06106C172.831 3.79933 172.804 3.54992 172.779 3.3159C172.751 3.07881 172.727 2.84479 172.702 2.6077L174.232 2.56767V5.55136C174.731 5.56368 175.178 5.57291 175.578 5.58215C175.978 5.58831 176.434 5.59139 176.942 5.59139V5.23729C176.942 5.12028 176.948 5.00019 176.961 4.88319C176.961 4.77849 176.961 4.66764 176.97 4.55064C176.976 4.43363 176.979 4.30739 176.979 4.17806V3.41136C176.979 3.29435 176.982 3.1681 176.988 3.03878C176.994 2.90946 177.004 2.77705 177.019 2.64465L178.63 2.52764C178.602 2.80169 178.574 3.07573 178.54 3.34361C178.506 3.6115 178.479 3.87631 178.451 4.13803C178.411 4.41208 178.374 4.66765 178.334 4.90474C178.294 5.14183 178.257 5.36969 178.217 5.59139C178.399 5.60371 178.586 5.61294 178.777 5.62218C178.968 5.62834 179.153 5.63142 179.338 5.63142H180.24V6.88771H179.572C179.282 6.88771 178.922 6.88155 178.491 6.86923C177.601 6.86923 176.677 6.85076 175.723 6.81073C175.239 6.79841 174.762 6.78917 174.3 6.77994C173.835 6.77378 173.386 6.7707 172.955 6.7707C172.524 6.7707 172.126 6.77378 171.806 6.77994C171.486 6.78609 171.233 6.79533 171.049 6.81073V5.51441H173.013ZM171.286 0.603177C171.43 0.603177 171.628 0.606256 171.874 0.612415C172.123 0.618573 172.425 0.621652 172.776 0.621652C173.118 0.633968 173.481 0.640128 173.866 0.640128H175.073C175.492 0.652445 175.911 0.661682 176.329 0.670919C176.748 0.677077 177.173 0.680156 177.607 0.680156H179.787L179.747 1.97647H175.563C175.132 1.97647 174.704 1.97955 174.285 1.98571C173.866 1.99187 173.46 1.99495 173.069 1.99495C172.243 2.02266 171.649 2.04114 171.283 2.05345V0.600098L171.286 0.603177Z" fill="black"/>
<path d="M191.455 5.63175C191.455 5.72412 191.362 5.88116 191.181 6.10286C190.984 6.29992 190.808 6.39846 190.651 6.39846C190.023 6.39846 189.53 6.37998 189.179 6.33995C188.994 6.31532 188.819 6.29377 188.65 6.28145C188.48 6.26913 188.317 6.25681 188.16 6.24142C188.031 6.2291 187.895 6.21987 187.757 6.21063C187.618 6.20447 187.486 6.19523 187.353 6.17984H186.922C186.765 6.17984 186.596 6.18599 186.411 6.19831C186.411 6.26297 186.408 6.35227 186.402 6.46312C186.396 6.57397 186.386 6.70945 186.371 6.86649C186.359 7.02352 186.343 7.1898 186.331 7.36839C186.319 7.5439 186.303 7.73172 186.291 7.92879C186.279 8.12585 186.266 8.3106 186.26 8.48919C186.254 8.6647 186.251 8.84022 186.251 9.00957C186.251 9.4037 186.276 9.65003 186.328 9.75472C186.63 9.7424 186.971 9.73009 187.359 9.71469C187.744 9.70238 188.175 9.69006 188.646 9.67466C189.564 9.66235 190.448 9.70238 191.298 9.79167V11.088C190.827 11.048 190.374 11.0295 189.943 11.0295H188.628C188.419 11.0418 188.206 11.051 187.991 11.0603C187.775 11.0664 187.556 11.0695 187.332 11.0695C187.11 11.0818 186.891 11.088 186.673 11.088H186.054C185.961 11.088 185.869 11.0911 185.78 11.0972C185.687 11.1034 185.61 11.1065 185.546 11.1065C185.361 11.1342 185.238 11.1249 185.173 11.088C185.093 11.048 185.035 10.9771 184.998 10.8724C184.945 10.7801 184.921 10.5984 184.921 10.3213C184.921 10.2966 184.918 10.2135 184.911 10.075C184.905 9.93639 184.902 9.73932 184.902 9.47452C184.89 9.21279 184.884 8.93875 184.884 8.64931V7.72557C184.871 7.4115 184.859 7.1005 184.853 6.79259C184.847 6.48467 184.844 6.186 184.844 5.89964C184.844 5.61328 184.847 5.37618 184.853 5.19143C184.859 5.00668 184.868 4.8712 184.884 4.77883C185.029 4.77883 185.179 4.78191 185.336 4.78807C185.493 4.79422 185.669 4.7973 185.866 4.7973C186.22 4.82502 186.633 4.84349 187.104 4.85581C187.535 4.89583 188 4.91431 188.499 4.91431C188.748 4.92663 189.004 4.93586 189.265 4.9451C189.527 4.95126 189.801 4.95434 190.091 4.95434C190.091 4.84965 190.091 4.74496 190.1 4.64027C190.106 4.53558 190.115 4.42473 190.131 4.30772C190.143 4.20303 190.155 4.09526 190.171 3.98441C190.183 3.87356 190.195 3.76579 190.211 3.6611V2.48179C189.764 2.46947 189.324 2.46023 188.884 2.451C188.446 2.44484 187.997 2.4356 187.538 2.42021H186.251C185.838 2.42021 185.456 2.42636 185.102 2.43868L185.062 1.24089H188.323C188.677 1.25321 189.019 1.26861 189.355 1.28092C189.687 1.29324 190.014 1.30864 190.328 1.32095C190.629 1.33327 190.891 1.34251 191.113 1.35174C191.335 1.3579 191.519 1.36098 191.664 1.36098C191.664 1.46567 191.661 1.58884 191.655 1.73356C191.649 1.87828 191.646 2.04147 191.646 2.22314C191.618 2.60188 191.599 2.99601 191.587 3.40245C191.575 3.61183 191.559 3.81814 191.547 4.02136C191.535 4.22458 191.519 4.42473 191.507 4.62179C191.495 4.83117 191.482 5.019 191.476 5.1822C191.47 5.34539 191.467 5.49319 191.467 5.62559L191.455 5.63175ZM187.095 17.043C187.316 16.8983 187.547 16.7382 187.781 16.5627C188.018 16.3872 188.271 16.1994 188.548 16.0023C188.81 15.7929 189.068 15.5835 189.324 15.3742C189.579 15.1648 189.832 14.9554 190.081 14.746C190.343 14.5489 190.596 14.3488 190.839 14.1456C191.082 13.9424 191.319 13.7361 191.556 13.5267C191.79 13.3173 192.009 13.1233 192.203 12.9478C192.397 12.7723 192.582 12.6183 192.754 12.4859L193.952 13.3881C193.819 13.5205 193.696 13.6375 193.579 13.7422C193.462 13.8469 193.33 13.9793 193.185 14.1363C193.459 14.3457 193.776 14.5767 194.137 14.823C194.497 15.0724 194.9 15.3341 195.344 15.6082C195.775 15.8822 196.218 16.1255 196.671 16.3348C197.123 16.5442 197.585 16.729 198.056 16.886L197.348 17.8867C196.563 17.6897 195.698 17.3109 194.756 16.7475C194.257 16.4457 193.795 16.147 193.37 15.8545C192.945 15.562 192.56 15.2633 192.221 14.9616C191.895 15.2233 191.553 15.4881 191.199 15.756C190.845 16.0239 190.485 16.2887 190.118 16.5504C189.752 16.7998 189.392 17.043 189.038 17.2863C188.683 17.5296 188.345 17.7605 188.015 17.9822L187.092 17.04L187.095 17.043ZM196.443 11.9748V9.4622C196.431 9.25282 196.418 9.04036 196.412 8.82482C196.406 8.60928 196.403 8.39682 196.403 8.18744V6.73408C196.024 6.77411 195.673 6.80183 195.353 6.82338C195.033 6.84185 194.7 6.86649 194.361 6.89112C194.361 7.18056 194.364 7.46076 194.371 7.7348C194.377 8.00885 194.386 8.26442 194.401 8.50151C194.414 8.75092 194.426 8.98186 194.441 9.1974C194.454 9.41294 194.466 9.61308 194.481 9.79783V11.6453L193.028 11.6853C193.04 11.4883 193.05 11.282 193.059 11.0664C193.065 10.8509 193.074 10.6384 193.09 10.4291V9.79167C193.09 9.57613 193.084 9.36367 193.071 9.15429C193.071 8.93259 193.068 8.6955 193.062 8.44609C193.056 8.19668 193.047 7.94727 193.031 7.70093C193.019 7.43921 193.01 7.16208 193 6.86649C192.994 6.57089 192.991 6.25989 192.991 5.93351C192.979 5.61943 192.97 5.32076 192.96 5.04056C192.954 4.76035 192.957 4.5017 192.97 4.26461C192.97 3.7935 192.988 3.3809 193.028 3.0268C193.04 2.66038 193.062 2.30628 193.087 1.96757V1.47799C193.087 1.30864 193.08 1.12389 193.068 0.926822L194.284 0.846764V1.49338C194.284 1.69045 194.291 1.87828 194.303 2.06302C194.303 2.24777 194.306 2.42636 194.312 2.60187C194.318 2.77738 194.321 2.95905 194.321 3.14072V5.55785C194.491 5.55785 194.657 5.55785 194.823 5.54861C194.986 5.54245 195.153 5.53322 195.325 5.51782C195.482 5.5055 195.648 5.49627 195.827 5.48703C196.003 5.48087 196.184 5.47779 196.366 5.47779C196.354 5.17604 196.344 4.88968 196.335 4.61256C196.326 4.33543 196.332 4.07678 196.344 3.82737C196.344 3.31624 196.363 2.84513 196.403 2.41405V1.19779C196.403 1.01304 196.4 0.831368 196.394 0.646619C196.387 0.46495 196.378 0.286359 196.363 0.117007L197.699 0C197.711 0.169353 197.721 0.35718 197.73 0.560404C197.736 0.763627 197.739 0.976088 197.739 1.19779V2.66962C197.739 2.91903 197.736 3.17768 197.73 3.44556C197.724 3.71345 197.721 3.97825 197.721 4.23998C197.708 4.51402 197.702 4.77883 197.702 5.0344V5.81034L197.976 11.8978L196.446 11.9748H196.443Z" fill="black"/>
<path d="M200.842 9.59778C200.907 9.59778 200.999 9.59778 201.116 9.58854C201.233 9.58239 201.384 9.57315 201.569 9.55775C201.923 9.55775 202.354 9.53928 202.865 9.49925C203.102 9.48693 203.352 9.47462 203.623 9.45922C203.891 9.4469 204.171 9.43459 204.457 9.41919C204.744 9.40688 205.039 9.39764 205.341 9.3884C205.643 9.38224 205.951 9.37916 206.265 9.37916C206.252 9.14207 206.234 8.85879 206.215 8.52624C206.197 8.19369 206.154 7.82112 206.086 7.41775L207.619 7.33769C207.684 7.74414 207.724 8.11979 207.736 8.46774C207.749 8.81568 207.749 9.12052 207.736 9.38224C208.075 9.39456 208.583 9.41303 209.258 9.43151C209.932 9.44998 210.8 9.43459 211.859 9.38224C212.044 9.36993 212.217 9.35145 212.38 9.33298C212.543 9.3145 212.691 9.29603 212.823 9.28371C213.057 9.24368 213.248 9.22521 213.393 9.22521V10.7956C213.316 10.7956 213.224 10.7986 213.119 10.8048C213.014 10.811 212.891 10.8202 212.746 10.8356C212.617 10.8479 212.463 10.8572 212.284 10.8664C212.109 10.8725 211.915 10.8756 211.706 10.8756C211.508 10.8879 211.302 10.8972 211.087 10.9064C210.871 10.9126 210.631 10.9157 210.369 10.9157C210.107 10.9157 209.858 10.9095 209.584 10.8972C209.31 10.8849 209.02 10.8633 208.719 10.8387C208.3 10.814 207.884 10.7925 207.472 10.7802C207.059 10.7679 206.643 10.7555 206.225 10.7401C205.806 10.7401 205.402 10.7371 205.018 10.7309C204.633 10.7247 204.26 10.7217 203.909 10.7217C203.555 10.734 203.226 10.7494 202.918 10.7617C202.61 10.774 202.326 10.7894 202.065 10.8017C201.791 10.814 201.557 10.8264 201.369 10.8325C201.178 10.8387 201.024 10.8418 200.907 10.8418L200.848 9.60394L200.842 9.59778ZM203.925 5.63185C203.912 5.43478 203.9 5.23464 203.894 5.03142C203.888 4.82819 203.884 4.62189 203.884 4.41251C203.872 4.20313 203.857 3.99066 203.844 3.77512C203.832 3.55958 203.811 3.33173 203.786 3.09771L205.356 3.05768V5.6688C205.461 5.6688 205.578 5.67188 205.71 5.67803C205.84 5.68419 205.978 5.68727 206.123 5.68727C206.268 5.69959 206.406 5.70575 206.545 5.70575H208.676V5.42247C208.676 5.32393 208.682 5.22232 208.694 5.11763C208.694 5.01294 208.694 4.91133 208.703 4.81279C208.71 4.71426 208.713 4.61265 208.713 4.50796V3.86134C208.713 3.75665 208.713 3.64272 208.722 3.51648C208.728 3.39331 208.737 3.26399 208.753 3.13466L210.363 3.01766C210.311 3.51648 210.252 3.99374 210.187 4.45254C210.147 4.66192 210.107 4.8713 210.07 5.08068C210.03 5.29006 209.994 5.49944 209.953 5.70883C210.215 5.72114 210.468 5.7273 210.711 5.7273H212.546V7.00514H211.819C211.493 7.00514 211.08 6.99899 210.582 6.98667C209.575 6.98667 208.479 6.96819 207.302 6.92817C206.714 6.91585 206.148 6.90661 205.603 6.89738C205.061 6.89122 204.531 6.88814 204.023 6.88814C203.515 6.88814 203.062 6.89122 202.708 6.89738C202.354 6.90353 202.086 6.91277 201.902 6.92817V5.63185H203.925ZM206.163 1.25331C206.646 1.25331 207.142 1.25023 207.647 1.24407C208.152 1.23791 208.666 1.22867 209.19 1.21328C209.713 1.20096 210.228 1.18249 210.732 1.16401C211.237 1.14554 211.73 1.12706 212.217 1.11475L212.177 2.5681H210.212C209.741 2.5681 209.251 2.57118 208.74 2.57734C208.229 2.5835 207.7 2.59273 207.148 2.60813C206.597 2.62045 206.065 2.62968 205.547 2.63892C205.03 2.64508 204.522 2.64816 204.026 2.64816C203.044 2.66047 202.363 2.68203 201.985 2.70666V1.25331H206.166H206.163ZM203.099 12.0149C205.076 11.9379 206.757 11.8979 208.146 11.8979C209.535 11.8979 210.837 11.9379 212.134 12.0149V14.666C212.134 14.8631 212.13 15.0602 212.124 15.2542C212.118 15.4482 212.115 15.6391 212.115 15.8238C212.103 15.9932 212.1 16.1533 212.106 16.3042C212.112 16.455 212.121 16.5967 212.137 16.726V17.0801C212.137 17.1602 212.109 17.231 212.057 17.2956C212.017 17.3757 211.933 17.4342 211.801 17.4711C211.644 17.5112 211.447 17.5297 211.213 17.5297C210.572 17.5697 209.91 17.5974 209.23 17.6189C208.549 17.6374 207.857 17.6559 207.148 17.6682H205.175C204.577 17.6682 204.038 17.6621 203.555 17.6497L202.299 17.7298C202.286 17.5851 202.271 17.428 202.259 17.2587C202.246 17.0893 202.231 16.8984 202.219 16.689C202.206 16.4673 202.194 16.2395 202.179 16.0116C202.166 15.7838 202.151 15.5498 202.139 15.3157C202.139 15.0787 202.136 14.8508 202.129 14.6291C202.123 14.4074 202.12 14.1826 202.12 13.9609C202.108 13.7392 202.105 13.5237 202.111 13.3143C202.117 13.1049 202.126 12.9017 202.142 12.7046C202.102 12.5999 202.096 12.4768 202.123 12.3321C202.123 12.2274 202.169 12.1504 202.262 12.095C202.339 12.0703 202.437 12.0549 202.557 12.0549C202.622 12.0549 202.702 12.0519 202.791 12.0457C202.884 12.0395 202.988 12.0303 203.105 12.0149H203.099ZM203.709 16.3934C204.377 16.4181 205.011 16.4396 205.615 16.452C206.218 16.4643 206.8 16.4704 207.364 16.4704C207.952 16.4427 208.525 16.4212 209.082 16.4027C209.639 16.3842 210.197 16.3534 210.76 16.3134C210.76 16.1286 210.757 15.9039 210.751 15.636C210.745 15.3681 210.736 15.0694 210.72 14.743C210.708 14.4043 210.692 14.1056 210.68 13.8501C210.668 13.5945 210.652 13.382 210.64 13.2127C210.391 13.2127 210.126 13.2158 209.846 13.2219C209.562 13.2281 209.273 13.2312 208.971 13.2312L207.145 13.2897C206.517 13.3297 205.92 13.3482 205.359 13.3482C205.07 13.3605 204.79 13.3697 204.516 13.379C204.242 13.3851 203.974 13.3882 203.709 13.3882V16.3934Z" fill="black"/>
</svg>
